<svg width="241" height="241" viewBox="0 0 241 241" fill="none" xmlns="http://www.w3.org/2000/svg">
<path d="M41.7822 123.308L41.7817 67.4342C41.7817 66.0287 42.7684 64.32 43.9854 63.6172L95.4847 33.8152C96.7018 33.1124 97.6884 33.6822 97.6884 35.0877L97.6889 90.9611C97.6889 92.3666 96.7023 94.0758 95.4852 94.7781L43.9859 124.58C42.7689 125.282 41.7827 124.713 41.7822 123.308Z" fill="#455A64"/>
<path d="M97.0488 33.6634C97.0565 33.6687 97.0642 33.6735 97.0719 33.6788C96.6724 33.4296 96.1099 33.4547 95.4842 33.8162L43.9849 63.6172C43.3795 63.9657 42.832 64.5639 42.4353 65.2483L38.2949 62.8586C38.6945 62.1688 39.244 61.5683 39.8523 61.2174L91.3511 31.4163C91.9516 31.0678 92.4963 31.0321 92.893 31.2509C93.3003 31.4775 96.6492 33.4296 97.0488 33.6634Z" fill="#37474F"/>
<path d="M42.4352 65.2488C42.0303 65.9434 41.7811 66.7276 41.7811 67.4347L41.7835 123.307C41.7835 123.992 42.0178 124.477 42.3966 124.717C41.9435 124.445 38.6862 122.562 38.2919 122.335C37.8947 122.104 37.6479 121.61 37.6479 120.907V65.0348C37.6479 64.3301 37.8947 63.5488 38.2943 62.8591L42.4352 65.2488Z" fill="#263238"/>
<path d="M51.1068 71.1413L47.5636 73.1869C47.1751 73.411 46.8599 73.9571 46.8599 74.4054V78.1896C46.8599 78.4069 46.9389 78.552 47.0613 78.6238C47.0956 78.6441 47.9097 79.114 47.9448 79.1338C48.0682 79.2032 48.2321 79.1984 48.4196 79.0904L51.9628 77.0448C52.3513 76.8207 52.6665 76.2751 52.666 75.8263V72.0421C52.666 71.8267 52.5889 71.6826 52.4684 71.6103C52.4332 71.5891 51.6172 71.1186 51.583 71.0989C51.4596 71.028 51.2947 71.0323 51.1068 71.1413Z" fill="#263238"/>
<path d="M51.9627 77.0443L48.4195 79.0899C48.031 79.3141 47.7158 79.1324 47.7158 78.6836V74.8994C47.7158 74.4507 48.0306 73.9051 48.4195 73.6809L51.9627 71.6353C52.3512 71.4112 52.6664 71.5929 52.6664 72.0416V75.8258C52.6664 76.2746 52.3517 76.8202 51.9627 77.0443Z" fill="#BA68C8"/>
<path opacity="0.3" d="M51.9627 77.0443L48.4195 79.0899C48.031 79.3141 47.7158 79.1324 47.7158 78.6836V74.8994C47.7158 74.4507 48.0306 73.9051 48.4195 73.6809L51.9627 71.6353C52.3512 71.4112 52.6664 71.5929 52.6664 72.0416V75.8258C52.6664 76.2746 52.3517 76.8202 51.9627 77.0443Z" fill="white"/>
<path d="M52.3587 71.5466L51.5856 71.1003C51.4637 71.0299 51.294 71.0319 51.1055 71.1418L47.5619 73.1888C47.3686 73.2958 47.1946 73.4891 47.0649 73.7142L47.9224 74.2092C48.0521 73.9841 48.2237 73.7956 48.4194 73.6838L51.963 71.6372C52.111 71.5534 52.246 71.5254 52.3587 71.5466Z" fill="#37474F"/>
<path d="M59.3582 66.3757L55.8151 68.4213C55.4266 68.6455 55.1113 69.1916 55.1113 69.6398V73.424C55.1113 73.6414 55.1899 73.7865 55.3128 73.8578C55.347 73.8781 56.1611 74.348 56.1963 74.3683C56.3197 74.4377 56.4836 74.4329 56.6711 74.3249L60.2143 72.2793C60.6028 72.0551 60.918 71.5095 60.9175 71.0608V67.2766C60.9175 67.0611 60.8404 66.9175 60.7199 66.8447C60.6847 66.8235 59.8687 66.3531 59.8344 66.3333C59.7111 66.263 59.5467 66.2668 59.3582 66.3757Z" fill="#263238"/>
<path d="M60.2147 72.2788L56.6715 74.3244C56.283 74.5485 55.9678 74.3668 55.9678 73.9181V70.1339C55.9678 69.6851 56.283 69.1395 56.6715 68.9154L60.2147 66.8698C60.6032 66.6457 60.9184 66.8274 60.9184 67.2761V71.0603C60.9179 71.509 60.6032 72.0547 60.2147 72.2788Z" fill="#BA68C8"/>
<path opacity="0.3" d="M60.2147 72.2788L56.6715 74.3244C56.283 74.5485 55.9678 74.3668 55.9678 73.9181V70.1339C55.9678 69.6851 56.283 69.1395 56.6715 68.9154L60.2147 66.8698C60.6032 66.6457 60.9184 66.8274 60.9184 67.2761V71.0603C60.9179 71.509 60.6032 72.0547 60.2147 72.2788Z" fill="white"/>
<path d="M60.6102 66.7811L59.8371 66.3348C59.7151 66.2644 59.5455 66.2663 59.357 66.3762L55.8133 68.4228C55.6201 68.5298 55.4461 68.7231 55.3164 68.9482L56.1739 69.4432C56.3035 69.2181 56.4751 69.0296 56.6708 68.9178L60.2145 66.8707C60.3625 66.7883 60.4979 66.7599 60.6102 66.7811Z" fill="#37474F"/>
<path d="M67.6097 61.6102L64.0665 63.6558C63.678 63.8799 63.3628 64.426 63.3628 64.8743V68.6585C63.3628 68.8759 63.4414 69.021 63.5643 69.0928C63.5985 69.113 64.4126 69.583 64.4478 69.6027C64.5712 69.6721 64.7351 69.6673 64.9225 69.5593L68.4657 67.5137C68.8542 67.2896 69.1695 66.744 69.1695 66.2952V62.5111C69.1695 62.2956 69.0923 62.152 68.9718 62.0792C68.9366 62.058 68.1206 61.5876 68.0859 61.5678C67.963 61.4974 67.7982 61.5013 67.6097 61.6102Z" fill="#263238"/>
<path d="M68.4661 67.5137L64.923 69.5593C64.5345 69.7835 64.2192 69.6018 64.2192 69.153V65.3688C64.2192 64.9201 64.5345 64.3745 64.923 64.1503L68.4661 62.1047C68.8546 61.8806 69.1699 62.0623 69.1699 62.5111V66.2952C69.1699 66.7435 68.8546 67.2891 68.4661 67.5137Z" fill="#BA68C8"/>
<path opacity="0.3" d="M68.4661 67.5137L64.923 69.5593C64.5345 69.7835 64.2192 69.6018 64.2192 69.153V65.3688C64.2192 64.9201 64.5345 64.3745 64.923 64.1503L68.4661 62.1047C68.8546 61.8806 69.1699 62.0623 69.1699 62.5111V66.2952C69.1699 66.7435 68.8546 67.2891 68.4661 67.5137Z" fill="white"/>
<path d="M68.8622 62.016L68.089 61.5697C67.9671 61.4993 67.7974 61.5013 67.609 61.6112L64.0653 63.6577C63.8725 63.7647 63.698 63.958 63.5684 64.1831L64.4258 64.6781C64.5555 64.453 64.7271 64.2646 64.9228 64.1528L68.4664 62.1057C68.6144 62.0228 68.7494 61.9944 68.8622 62.016Z" fill="#37474F"/>
<path d="M51.1068 79.9739L47.5636 82.0195C47.1751 82.2437 46.8599 82.7898 46.8599 83.238V87.0222C46.8599 87.2401 46.9389 87.3847 47.0613 87.4565C47.0956 87.4767 47.9097 87.9467 47.9448 87.9665C48.0682 88.0359 48.2321 88.031 48.4196 87.9231L51.9628 85.8775C52.3513 85.6533 52.6665 85.1077 52.666 84.659V80.8748C52.666 80.6593 52.5889 80.5157 52.4684 80.4429C52.4332 80.4217 51.6172 79.9513 51.583 79.9315C51.4596 79.8607 51.2947 79.865 51.1068 79.9739Z" fill="#263238"/>
<path d="M51.9627 85.877L48.4195 87.9226C48.031 88.1467 47.7158 87.965 47.7158 87.5163V83.7326C47.7158 83.2838 48.0306 82.7382 48.4195 82.5141L51.9627 80.4685C52.3512 80.2443 52.6664 80.426 52.6664 80.8748V84.659C52.6664 85.1072 52.3517 85.6528 51.9627 85.877Z" fill="#BA68C8"/>
<path opacity="0.3" d="M51.9627 85.877L48.4195 87.9226C48.031 88.1467 47.7158 87.965 47.7158 87.5163V83.7326C47.7158 83.2838 48.0306 82.7382 48.4195 82.5141L51.9627 80.4685C52.3512 80.2443 52.6664 80.426 52.6664 80.8748V84.659C52.6664 85.1072 52.3517 85.6528 51.9627 85.877Z" fill="white"/>
<path d="M52.3587 80.3793L51.5856 79.933C51.4637 79.8626 51.294 79.8645 51.1055 79.9744L47.5619 82.0215C47.3686 82.1285 47.1946 82.3217 47.0649 82.5468L47.9224 83.0418C48.0521 82.8168 48.2237 82.6283 48.4194 82.5165L51.963 80.4699C52.111 80.3865 52.246 80.3581 52.3587 80.3793Z" fill="#37474F"/>
<path d="M59.3582 75.2084L55.8151 77.254C55.4266 77.4781 55.1113 78.0238 55.1113 78.4725V82.2567C55.1113 82.4741 55.1899 82.6191 55.3128 82.691C55.347 82.7112 56.1611 83.1811 56.1963 83.2009C56.3197 83.2703 56.4836 83.2655 56.6711 83.1575L60.2143 81.1119C60.6028 80.8878 60.918 80.3422 60.9175 79.8934V76.1092C60.9175 75.8938 60.8404 75.7497 60.7199 75.6774C60.6847 75.6562 59.8687 75.1857 59.8344 75.166C59.7111 75.0956 59.5467 75.0995 59.3582 75.2084Z" fill="#263238"/>
<path d="M60.2147 81.1114L56.6715 83.157C56.283 83.3812 55.9678 83.1995 55.9678 82.7507V78.9665C55.9678 78.5178 56.283 77.9722 56.6715 77.748L60.2147 75.7024C60.6032 75.4783 60.9184 75.66 60.9184 76.1088V79.8929C60.9179 80.3417 60.6032 80.8873 60.2147 81.1114Z" fill="#BA68C8"/>
<path opacity="0.3" d="M60.2147 81.1114L56.6715 83.157C56.283 83.3812 55.9678 83.1995 55.9678 82.7507V78.9665C55.9678 78.5178 56.283 77.9722 56.6715 77.748L60.2147 75.7024C60.6032 75.4783 60.9184 75.66 60.9184 76.1088V79.8929C60.9179 80.3417 60.6032 80.8873 60.2147 81.1114Z" fill="white"/>
<path d="M60.6102 75.6137L59.8371 75.1674C59.7151 75.097 59.5455 75.099 59.357 75.2089L55.8133 77.2554C55.6201 77.3624 55.4461 77.5557 55.3164 77.7808L56.1739 78.2758C56.3035 78.0507 56.4751 77.8623 56.6708 77.7505L60.2145 75.7039C60.3625 75.621 60.4979 75.5925 60.6102 75.6137Z" fill="#37474F"/>
<path d="M67.6097 70.4429L64.0665 72.4885C63.678 72.7126 63.3628 73.2587 63.3628 73.707V77.4911C63.3628 77.7085 63.4414 77.8536 63.5643 77.9249C63.5985 77.9452 64.4126 78.4151 64.4478 78.4354C64.5712 78.5048 64.7351 78.5 64.9225 78.392L68.4657 76.3464C68.8542 76.1218 69.1695 75.5766 69.1695 75.1279V71.3437C69.1695 71.1283 69.0923 70.9846 68.9718 70.9118C68.9366 70.8906 68.1206 70.4202 68.0859 70.4004C67.963 70.3301 67.7982 70.3339 67.6097 70.4429Z" fill="#263238"/>
<path d="M68.4661 76.3464L64.923 78.392C64.5345 78.6161 64.2192 78.4344 64.2192 77.9857V74.2015C64.2192 73.7528 64.5345 73.2071 64.923 72.983L68.4661 70.9374C68.8546 70.7133 69.1699 70.895 69.1699 71.3437V75.1279C69.1699 75.5762 68.8546 76.1218 68.4661 76.3464Z" fill="#BA68C8"/>
<path opacity="0.3" d="M68.4661 76.3464L64.923 78.392C64.5345 78.6161 64.2192 78.4344 64.2192 77.9857V74.2015C64.2192 73.7528 64.5345 73.2071 64.923 72.983L68.4661 70.9374C68.8546 70.7133 69.1699 70.895 69.1699 71.3437V75.1279C69.1699 75.5762 68.8546 76.1218 68.4661 76.3464Z" fill="white"/>
<path d="M68.8622 70.8487L68.089 70.4024C67.9671 70.332 67.7974 70.3339 67.609 70.4438L64.0653 72.4909C63.8725 72.5979 63.698 72.7912 63.5684 73.0162L64.4258 73.5113C64.5555 73.2862 64.7271 73.0977 64.9228 72.9859L68.4664 70.9393C68.6144 70.8554 68.7494 70.827 68.8622 70.8487Z" fill="#37474F"/>
<path d="M51.1068 88.8066L47.5636 90.8522C47.1751 91.0763 46.8599 91.6224 46.8599 92.0707V95.8549C46.8599 96.0727 46.9389 96.2173 47.0613 96.2891C47.0956 96.3094 47.9097 96.7793 47.9448 96.7991C48.0682 96.8685 48.2321 96.8637 48.4196 96.7557L51.9628 94.7101C52.3513 94.486 52.6665 93.9404 52.666 93.4916V89.7074C52.666 89.492 52.5889 89.3479 52.4684 89.2756C52.4332 89.2543 51.6172 88.7839 51.583 88.7642C51.4596 88.6933 51.2947 88.6976 51.1068 88.8066Z" fill="#263238"/>
<path d="M51.9627 94.7096L48.4195 96.7552C48.031 96.9794 47.7158 96.7976 47.7158 96.3489V92.5647C47.7158 92.116 48.0306 91.5704 48.4195 91.3462L51.9627 89.3006C52.3512 89.0765 52.6664 89.2582 52.6664 89.7069V93.4911C52.6664 93.9399 52.3517 94.4855 51.9627 94.7096Z" fill="#BA68C8"/>
<path opacity="0.3" d="M51.9627 94.7096L48.4195 96.7552C48.031 96.9794 47.7158 96.7976 47.7158 96.3489V92.5647C47.7158 92.116 48.0306 91.5704 48.4195 91.3462L51.9627 89.3006C52.3512 89.0765 52.6664 89.2582 52.6664 89.7069V93.4911C52.6664 93.9399 52.3517 94.4855 51.9627 94.7096Z" fill="white"/>
<path d="M52.3587 89.2119L51.5856 88.7656C51.4637 88.6952 51.294 88.6972 51.1055 88.807L47.5619 90.8541C47.3686 90.9611 47.1946 91.1544 47.0649 91.3795L47.9224 91.8745C48.0521 91.6494 48.2237 91.4609 48.4194 91.3491L51.963 89.3021C52.111 89.2192 52.246 89.1907 52.3587 89.2119Z" fill="#37474F"/>
<path d="M59.3582 84.041L55.8151 86.0866C55.4266 86.3108 55.1113 86.8569 55.1113 87.3051V91.0893C55.1113 91.3067 55.1899 91.4518 55.3128 91.5231C55.347 91.5434 56.1611 92.0133 56.1963 92.0336C56.3197 92.103 56.4836 92.0982 56.6711 91.9902L60.2143 89.9446C60.6028 89.7204 60.918 89.1748 60.9175 88.7261V84.9419C60.9175 84.7264 60.8404 84.5828 60.7199 84.51C60.6847 84.4888 59.8687 84.0184 59.8344 83.9986C59.7111 83.9282 59.5467 83.9321 59.3582 84.041Z" fill="#263238"/>
<path d="M60.2147 89.9446L56.6715 91.9902C56.283 92.2143 55.9678 92.0326 55.9678 91.5839V87.7997C55.9678 87.3509 56.283 86.8053 56.6715 86.5812L60.2147 84.5356C60.6032 84.3114 60.9184 84.4932 60.9184 84.9419V88.7261C60.9179 89.1743 60.6032 89.72 60.2147 89.9446Z" fill="#BA68C8"/>
<path opacity="0.3" d="M60.2147 89.9446L56.6715 91.9902C56.283 92.2143 55.9678 92.0326 55.9678 91.5839V87.7997C55.9678 87.3509 56.283 86.8053 56.6715 86.5812L60.2147 84.5356C60.6032 84.3114 60.9184 84.4932 60.9184 84.9419V88.7261C60.9179 89.1743 60.6032 89.72 60.2147 89.9446Z" fill="white"/>
<path d="M60.6102 84.4464L59.8371 84.0001C59.7151 83.9297 59.5455 83.9316 59.357 84.0415L55.8133 86.0881C55.6201 86.1951 55.4461 86.3884 55.3164 86.6135L56.1739 87.1085C56.3035 86.8834 56.4751 86.6949 56.6708 86.5831L60.2145 84.5365C60.3625 84.4536 60.4979 84.4252 60.6102 84.4464Z" fill="#37474F"/>
<path d="M67.6097 79.2755L64.0665 81.3206C63.678 81.5448 63.3628 82.0909 63.3628 82.5391V86.3233C63.3628 86.5407 63.4414 86.6858 63.5643 86.7576C63.5985 86.7778 64.4126 87.2478 64.4478 87.2675C64.5712 87.337 64.7351 87.3321 64.9225 87.2242L68.4657 85.1786C68.8542 84.9544 69.1695 84.4088 69.1695 83.9601V80.1759C69.1695 79.9604 69.0923 79.8168 68.9718 79.744C68.9366 79.7228 68.1206 79.2524 68.0859 79.2326C67.963 79.1627 67.7982 79.1671 67.6097 79.2755Z" fill="#263238"/>
<path d="M68.4661 85.179L64.923 87.2246C64.5345 87.4488 64.2192 87.2671 64.2192 86.8183V83.0341C64.2192 82.5854 64.5345 82.0398 64.923 81.8156L68.4661 79.77C68.8546 79.5459 69.1699 79.7276 69.1699 80.1764V83.9605C69.1699 84.4088 68.8546 84.9544 68.4661 85.179Z" fill="#BA68C8"/>
<path opacity="0.3" d="M68.4661 85.179L64.923 87.2246C64.5345 87.4488 64.2192 87.2671 64.2192 86.8183V83.0341C64.2192 82.5854 64.5345 82.0398 64.923 81.8156L68.4661 79.77C68.8546 79.5459 69.1699 79.7276 69.1699 80.1764V83.9605C69.1699 84.4088 68.8546 84.9544 68.4661 85.179Z" fill="white"/>
<path d="M68.8622 79.6813L68.089 79.235C67.9671 79.1646 67.7974 79.1666 67.609 79.2765L64.0653 81.3235C63.8725 81.4305 63.698 81.6238 63.5684 81.8489L64.4258 82.3439C64.5555 82.1193 64.7271 81.9304 64.9228 81.8185L68.4664 79.7715C68.6144 79.6881 68.7494 79.6597 68.8622 79.6813Z" fill="#37474F"/>
<path d="M51.1068 97.6392L47.5636 99.6848C47.1751 99.909 46.8599 100.455 46.8599 100.903V104.688C46.8599 104.905 46.9389 105.05 47.0613 105.122C47.0956 105.142 47.9097 105.612 47.9448 105.632C48.0682 105.701 48.2321 105.696 48.4196 105.588L51.9628 103.543C52.3513 103.319 52.6665 102.773 52.666 102.324V98.5401C52.666 98.3246 52.5889 98.181 52.4684 98.1082C52.4332 98.087 51.6172 97.6166 51.583 97.5968C51.4596 97.5264 51.2947 97.5303 51.1068 97.6392Z" fill="#263238"/>
<path d="M51.9627 103.542L48.4195 105.588C48.031 105.812 47.7158 105.63 47.7158 105.182V101.398C47.7158 100.949 48.0306 100.403 48.4195 100.179L51.9627 98.1338C52.3512 97.9096 52.6664 98.0913 52.6664 98.5401V102.324C52.6664 102.773 52.3517 103.318 51.9627 103.542Z" fill="#BA68C8"/>
<path opacity="0.3" d="M51.9627 103.542L48.4195 105.588C48.031 105.812 47.7158 105.63 47.7158 105.182V101.398C47.7158 100.949 48.0306 100.403 48.4195 100.179L51.9627 98.1338C52.3512 97.9096 52.6664 98.0913 52.6664 98.5401V102.324C52.6664 102.773 52.3517 103.318 51.9627 103.542Z" fill="white"/>
<path d="M52.3587 98.0446L51.5856 97.5982C51.4637 97.5279 51.294 97.5298 51.1055 97.6397L47.5619 99.6868C47.3686 99.7938 47.1946 99.987 47.0649 100.212L47.9224 100.707C48.0521 100.482 48.2237 100.294 48.4194 100.182L51.963 98.1352C52.111 98.0513 52.246 98.0234 52.3587 98.0446Z" fill="#37474F"/>
<path d="M59.3582 92.8737L55.8151 94.9193C55.4266 95.1434 55.1113 95.689 55.1113 96.1378V99.922C55.1113 100.139 55.1899 100.284 55.3128 100.356C55.347 100.376 56.1611 100.846 56.1963 100.866C56.3197 100.936 56.4836 100.931 56.6711 100.823L60.2143 98.7772C60.6028 98.5531 60.918 98.0075 60.9175 97.5587V93.7745C60.9175 93.5591 60.8404 93.415 60.7199 93.3427C60.6847 93.3215 59.8687 92.851 59.8344 92.8313C59.7111 92.7609 59.5467 92.7648 59.3582 92.8737Z" fill="#263238"/>
<path d="M60.2147 98.7772L56.6715 100.823C56.283 101.047 55.9678 100.865 55.9678 100.417V96.6323C55.9678 96.1836 56.283 95.638 56.6715 95.4138L60.2147 93.3682C60.6032 93.1441 60.9184 93.3258 60.9184 93.7745V97.5587C60.9179 98.007 60.6032 98.5526 60.2147 98.7772Z" fill="#BA68C8"/>
<path opacity="0.3" d="M60.2147 98.7772L56.6715 100.823C56.283 101.047 55.9678 100.865 55.9678 100.417V96.6323C55.9678 96.1836 56.283 95.638 56.6715 95.4138L60.2147 93.3682C60.6032 93.1441 60.9184 93.3258 60.9184 93.7745V97.5587C60.9179 98.007 60.6032 98.5526 60.2147 98.7772Z" fill="white"/>
<path d="M60.6102 93.279L59.8371 92.8327C59.7151 92.7623 59.5455 92.7643 59.357 92.8742L55.8133 94.9207C55.6201 95.0277 55.4461 95.221 55.3164 95.4461L56.1739 95.9411C56.3035 95.716 56.4751 95.5276 56.6708 95.4157L60.2145 93.3687C60.3625 93.2863 60.4979 93.2578 60.6102 93.279Z" fill="#37474F"/>
<path d="M67.6097 88.1082L64.0665 90.1538C63.678 90.3779 63.3628 90.924 63.3628 91.3723V95.1564C63.3628 95.3738 63.4414 95.5189 63.5643 95.5902C63.5985 95.6105 64.4126 96.0804 64.4478 96.1007C64.5712 96.1701 64.7351 96.1653 64.9225 96.0573L68.4657 94.0117C68.8542 93.7876 69.1695 93.2419 69.1695 92.7932V89.009C69.1695 88.7936 69.0923 88.6499 68.9718 88.5771C68.9366 88.5559 68.1206 88.0855 68.0859 88.0657C67.963 87.9954 67.7982 87.9997 67.6097 88.1082Z" fill="#263238"/>
<path d="M68.4661 94.0117L64.923 96.0573C64.5345 96.2814 64.2192 96.0997 64.2192 95.651V91.8668C64.2192 91.418 64.5345 90.8724 64.923 90.6483L68.4661 88.6027C68.8546 88.3786 69.1699 88.5603 69.1699 89.009V92.7932C69.1699 93.2415 68.8546 93.7871 68.4661 94.0117Z" fill="#BA68C8"/>
<path opacity="0.3" d="M68.4661 94.0117L64.923 96.0573C64.5345 96.2814 64.2192 96.0997 64.2192 95.651V91.8668C64.2192 91.418 64.5345 90.8724 64.923 90.6483L68.4661 88.6027C68.8546 88.3786 69.1699 88.5603 69.1699 89.009V92.7932C69.1699 93.2415 68.8546 93.7871 68.4661 94.0117Z" fill="white"/>
<path d="M68.8622 88.514L68.089 88.0677C67.9671 87.9973 67.7974 87.9992 67.609 88.1091L64.0653 90.1562C63.8725 90.2632 63.698 90.4565 63.5684 90.6816L64.4258 91.1766C64.5555 90.9515 64.7271 90.763 64.9228 90.6512L68.4664 88.6046C68.6144 88.5207 68.7494 88.4923 68.8622 88.514Z" fill="#37474F"/>
<path d="M49.3475 75.3968C49.334 75.3776 49.3287 75.3501 49.3311 75.3154C49.3345 75.2802 49.3441 75.2465 49.3625 75.2151L50.005 74.0646C50.0209 74.0376 50.0373 74.0106 50.0541 73.9846C50.0705 73.9586 50.0888 73.9388 50.1086 73.9277L50.3395 73.7942C50.3612 73.7817 50.3804 73.7831 50.3959 73.7981C50.4113 73.8135 50.4195 73.8376 50.4195 73.8708V76.8163C50.4195 76.8501 50.4113 76.8833 50.3959 76.9161C50.38 76.9494 50.3612 76.9725 50.3395 76.985L50.0999 77.1234C50.0777 77.1359 50.0594 77.1345 50.0435 77.1195C50.0281 77.1046 50.0199 77.08 50.0199 77.0467V74.7943L49.5996 75.5429C49.5818 75.5747 49.5625 75.5945 49.5418 75.6017C49.521 75.6089 49.5027 75.6036 49.4868 75.5853L49.3475 75.3968Z" fill="white"/>
<path d="M58.6296 70.3951C58.6894 70.2876 58.7274 70.1917 58.7438 70.1059C58.7602 70.0206 58.7689 69.9454 58.7689 69.8818C58.7689 69.757 58.7443 69.6654 58.6951 69.608C58.6455 69.5492 58.5636 69.5536 58.4493 69.6196C58.3409 69.6823 58.2613 69.769 58.2107 69.8804C58.1606 69.9912 58.1249 70.117 58.1028 70.2573C58.097 70.3002 58.0854 70.3363 58.0676 70.3662C58.0493 70.3966 58.0319 70.4168 58.0141 70.4269L57.7803 70.5624C57.7586 70.5744 57.7393 70.5744 57.7225 70.5609C57.7056 70.5484 57.6984 70.5229 57.7003 70.4848C57.7061 70.3445 57.7287 70.2028 57.7687 70.0577C57.8083 69.9141 57.8603 69.7767 57.9268 69.6475C57.9929 69.5179 58.07 69.4012 58.1592 69.2967C58.2483 69.1921 58.3438 69.1101 58.4469 69.0508C58.5708 68.979 58.6783 68.9482 58.7694 68.9583C58.8605 68.9684 58.9352 69.0055 58.9945 69.0696C59.0537 69.1347 59.0976 69.2191 59.126 69.3222C59.1545 69.4263 59.1689 69.5372 59.1689 69.6557C59.1689 69.7319 59.1661 69.8052 59.1603 69.8775C59.1545 69.9488 59.1405 70.0254 59.1188 70.1064C59.0971 70.1879 59.0653 70.2775 59.0239 70.3754C58.9824 70.4737 58.927 70.5855 58.8585 70.7104L58.3105 71.7973L59.1338 71.322C59.155 71.31 59.1743 71.3109 59.1897 71.3259C59.2056 71.3413 59.2133 71.3654 59.2133 71.3991V71.723C59.2133 71.7563 59.2056 71.79 59.1897 71.8228C59.1738 71.8561 59.155 71.8797 59.1338 71.8922L57.7504 72.6909C57.7287 72.703 57.7104 72.702 57.6945 72.687C57.6781 72.6721 57.6704 72.6475 57.6704 72.6143V72.3361C57.6704 72.2846 57.6805 72.234 57.7003 72.1843C57.7196 72.1352 57.7369 72.0995 57.7504 72.0759L58.6296 70.3951Z" fill="white"/>
<path d="M67.3323 63.9243C67.354 63.9122 67.3728 63.9132 67.3882 63.9281C67.4046 63.9436 67.4123 63.9677 67.4123 64.0009V64.3248C67.4123 64.3581 67.4051 64.3938 67.3901 64.4309C67.3752 64.4689 67.3612 64.5012 67.3467 64.5311L66.9144 65.4826C67.0035 65.4498 67.084 65.4363 67.1563 65.4435C67.2282 65.4503 67.2899 65.4778 67.341 65.526C67.3925 65.5737 67.432 65.6431 67.46 65.7332C67.487 65.8243 67.5015 65.9347 67.5015 66.0653C67.5015 66.2234 67.4812 66.3757 67.4402 66.5218C67.3998 66.6688 67.3434 66.8052 67.2715 66.9315C67.1992 67.0587 67.1144 67.173 67.0166 67.2751C66.9192 67.3764 66.8132 67.4612 66.698 67.5272C66.5601 67.6068 66.4401 67.6506 66.3379 67.6593C66.2367 67.6685 66.1519 67.6526 66.0834 67.6125C66.0154 67.573 65.9634 67.5133 65.9282 67.4332C65.8925 67.3537 65.8718 67.267 65.866 67.1734C65.8641 67.1378 65.8713 67.1036 65.8882 67.0717C65.9056 67.039 65.9243 67.0163 65.946 67.0038L66.1798 66.8683C66.1996 66.8573 66.216 66.8577 66.229 66.8698C66.241 66.8823 66.2545 66.903 66.269 66.9315C66.2806 66.9614 66.2965 66.9864 66.3162 67.0067C66.3355 67.0274 66.362 67.0409 66.3943 67.0481C66.4266 67.0554 66.4681 67.052 66.5172 67.0385C66.5664 67.0255 66.6266 66.998 66.6975 66.9565C66.8185 66.8867 66.9153 66.7936 66.9891 66.6765C67.0633 66.5594 67.1004 66.4321 67.1004 66.2957C67.1004 66.1588 67.0633 66.0817 66.9891 66.0658C66.9153 66.0494 66.818 66.0759 66.6975 66.1453L66.4521 66.2875C66.4305 66.3001 66.4117 66.2986 66.3962 66.2837C66.3803 66.2683 66.3721 66.2442 66.3721 66.2109V65.887C66.3721 65.8537 66.3794 65.8181 66.3943 65.7805C66.4092 65.7429 66.4232 65.7101 66.4372 65.6807L66.8517 64.7707L66.0343 65.2426C66.013 65.2546 65.9938 65.2541 65.9783 65.2387C65.9624 65.2238 65.9547 65.1992 65.9547 65.1659V64.842C65.9547 64.8088 65.9624 64.775 65.9783 64.7418C65.9942 64.7085 66.013 64.6854 66.0343 64.6728L67.3323 63.9243Z" fill="white"/>
<path d="M50.1578 85.8669C50.1366 85.8789 50.1173 85.8779 50.1019 85.8625C50.086 85.8481 50.0783 85.8235 50.0783 85.7902V85.2383L49.1606 85.768C49.1389 85.7801 49.1201 85.7791 49.1042 85.7637C49.0883 85.7483 49.0806 85.7247 49.0806 85.6914V85.3675C49.0806 85.3251 49.0868 85.2836 49.0994 85.2446C49.1124 85.2046 49.1278 85.1617 49.1456 85.1154L50.0518 82.851C50.0913 82.7517 50.1313 82.691 50.1728 82.6664L50.3979 82.5367C50.4196 82.5247 50.4379 82.5256 50.4543 82.5406C50.4702 82.556 50.4779 82.5801 50.4779 82.6134V84.4368L50.7324 84.2897C50.7541 84.2772 50.7734 84.2787 50.7883 84.2936C50.8042 84.309 50.8124 84.3336 50.8124 84.3669V84.6908C50.8124 84.7245 50.8042 84.7573 50.7883 84.7905C50.7729 84.8238 50.7541 84.8469 50.7324 84.8595L50.4779 85.0065V85.5584C50.4779 85.5916 50.4702 85.6254 50.4543 85.6581C50.4379 85.6914 50.4196 85.715 50.3979 85.7276L50.1578 85.8669ZM50.0778 84.6676V83.6926L49.5712 84.9602L50.0778 84.6676Z" fill="white"/>
<path d="M57.8334 78.3496C57.8334 78.3163 57.8416 78.2836 57.8571 78.2503C57.873 78.217 57.8913 78.1934 57.9134 78.1809L59.0269 77.5384C59.049 77.5258 59.0674 77.5273 59.0833 77.5422C59.0987 77.5577 59.1069 77.5818 59.1069 77.615V77.9389C59.1069 77.9722 59.0987 78.0059 59.0833 78.0392C59.0669 78.0729 59.049 78.0951 59.0269 78.1081L58.1949 78.5887L58.1622 79.1907C58.2157 79.1266 58.2682 79.076 58.3207 79.0398C58.3728 79.0041 58.4157 78.9762 58.4494 78.9564C58.5598 78.8928 58.6625 78.8562 58.7569 78.847C58.8519 78.8378 58.9338 78.8586 59.0028 78.9082C59.0722 78.9579 59.1262 79.0369 59.1657 79.1449C59.2052 79.2529 59.225 79.3917 59.225 79.5618C59.225 79.7561 59.2047 79.9344 59.1642 80.0964C59.1237 80.2583 59.0683 80.4039 58.9984 80.534C58.9285 80.6641 58.8461 80.7774 58.7512 80.8733C58.6567 80.9683 58.5559 81.0473 58.4494 81.109C58.313 81.1876 58.1959 81.2305 58.0981 81.2387C58.0002 81.2464 57.9192 81.2271 57.8551 81.1809C57.791 81.1336 57.7423 81.0661 57.71 80.9775C57.6773 80.8878 57.6594 80.7856 57.6551 80.669C57.6532 80.6338 57.6604 80.5996 57.6773 80.5673C57.6941 80.535 57.7134 80.5118 57.7351 80.4998L57.9751 80.361C57.9944 80.3499 58.0123 80.3499 58.0282 80.36C58.0441 80.3706 58.0547 80.3909 58.0609 80.4212C58.0725 80.4844 58.0918 80.5306 58.1173 80.5596C58.1429 80.589 58.1723 80.6068 58.206 80.6131C58.2393 80.6193 58.2769 80.6159 58.3188 80.6005C58.3603 80.5861 58.4036 80.5653 58.4494 80.5388C58.5617 80.4738 58.6523 80.3745 58.7213 80.2405C58.7912 80.1065 58.8254 79.9575 58.8254 79.7932C58.8254 79.6563 58.7912 79.5623 58.7213 79.5112C58.6523 79.4596 58.5617 79.4649 58.4494 79.5266C58.3897 79.5608 58.3429 79.5951 58.3082 79.6283C58.274 79.6621 58.2455 79.6944 58.2243 79.7247C58.2022 79.7565 58.1829 79.7835 58.165 79.8071C58.1472 79.8312 58.1246 79.8515 58.0966 79.8674L57.8238 80.0245C57.8021 80.0371 57.7838 80.0356 57.7679 80.0207C57.752 80.0053 57.7443 79.9807 57.7443 79.9474L57.8334 78.3496Z" fill="white"/>
<path d="M65.9067 75.635C65.9087 75.4576 65.9294 75.2966 65.9689 75.152C66.008 75.0084 66.0538 74.8647 66.1044 74.7225L66.6673 73.1763C66.675 73.1531 66.6857 73.1276 66.6987 73.0992C66.7112 73.0707 66.7314 73.0481 66.7594 73.0317L67.0255 72.8779C67.0476 72.8654 67.0655 72.8668 67.0819 72.8823C67.0978 72.8977 67.1055 72.9213 67.1055 72.9546C67.1055 72.97 67.104 72.983 67.1011 72.9941C67.0978 73.0047 67.0954 73.0143 67.091 73.0225L66.7237 74.0463C66.8399 73.9822 66.9469 73.9494 67.0447 73.9475C67.1426 73.9455 67.226 73.9735 67.2963 74.0299C67.3662 74.0868 67.4207 74.173 67.4593 74.2868C67.4978 74.4015 67.5166 74.5408 67.5166 74.7052C67.5166 74.8724 67.4973 75.0368 67.4573 75.1978C67.4178 75.3593 67.3629 75.5096 67.292 75.6489C67.2207 75.7892 67.1354 75.915 67.037 76.0259C66.9387 76.1382 66.8298 76.2278 66.7122 76.2963C66.5931 76.3652 66.4847 76.3999 66.3863 76.4018C66.288 76.4037 66.2027 76.3768 66.1314 76.3184C66.0605 76.2611 66.0051 76.1748 65.966 76.0591C65.9265 75.9434 65.9067 75.8022 65.9067 75.635ZM67.1151 74.937C67.1151 74.7823 67.0799 74.6724 67.01 74.6078C66.9401 74.5432 66.8404 74.5485 66.7126 74.6223C66.584 74.6965 66.4847 74.8064 66.4148 74.9515C66.3449 75.0966 66.3092 75.2474 66.3092 75.4022C66.3092 75.5569 66.3444 75.6682 66.4148 75.7357C66.4847 75.8032 66.584 75.7993 66.7126 75.7251C66.8409 75.6513 66.9401 75.54 67.01 75.392C67.0799 75.2441 67.1151 75.0922 67.1151 74.937Z" fill="white"/>
<path d="M50.6007 91.1954C50.6219 91.1828 50.6412 91.1843 50.6566 91.1997C50.6725 91.2151 50.6802 91.2387 50.6802 91.272V91.5732C50.6802 91.6041 50.6764 91.6374 50.6687 91.6735C50.6605 91.7097 50.6489 91.7583 50.6335 91.8191L49.9462 94.6552C49.938 94.6879 49.9283 94.7183 49.9148 94.7482C49.9023 94.779 49.884 94.8007 49.8599 94.8142L49.6141 94.9564C49.5928 94.9689 49.574 94.9675 49.5581 94.9521C49.5422 94.9376 49.5345 94.913 49.5345 94.8798C49.5345 94.8672 49.5374 94.847 49.5432 94.82L50.2334 91.9776L49.3036 92.5141C49.282 92.5266 49.2632 92.5257 49.2477 92.5103C49.2313 92.4948 49.2236 92.4702 49.2236 92.437V92.1131C49.2236 92.0798 49.2313 92.0471 49.2477 92.0138C49.2632 91.9805 49.282 91.9569 49.3036 91.9444L50.6007 91.1954Z" fill="white"/>
<path d="M57.626 89.3657C57.626 89.2076 57.6472 89.0548 57.6896 88.9073C57.7315 88.7598 57.7937 88.6205 57.8747 88.488C57.758 88.3945 57.7002 88.2209 57.7002 87.9688C57.7002 87.8291 57.719 87.6907 57.7561 87.5534C57.7937 87.417 57.8453 87.2873 57.9118 87.1678C57.9778 87.0473 58.0564 86.9388 58.147 86.8429C58.2376 86.746 58.3364 86.6674 58.4434 86.6058C58.5495 86.5441 58.6483 86.5094 58.7389 86.5007C58.83 86.4925 58.9086 86.5103 58.9746 86.5547C59.0406 86.598 59.0927 86.6675 59.1303 86.761C59.1679 86.8549 59.1862 86.9716 59.1862 87.1114C59.1862 87.2396 59.1713 87.3635 59.1399 87.4849C59.1096 87.6059 59.0667 87.7216 59.0117 87.8324C59.0903 87.8725 59.1515 87.9414 59.1949 88.0392C59.2387 88.1371 59.2604 88.2653 59.2604 88.4234C59.2604 88.5718 59.2416 88.7184 59.2026 88.862C59.164 89.0056 59.1096 89.1416 59.0387 89.2693C58.9674 89.3965 58.8816 89.5137 58.7809 89.6211C58.6806 89.7272 58.5673 89.8168 58.4434 89.8887C58.3186 89.9605 58.2063 90.0014 58.1056 90.0106C58.0048 90.0202 57.919 90.0019 57.8477 89.9561C57.7768 89.9103 57.7214 89.838 57.6833 89.7388C57.6453 89.639 57.626 89.5151 57.626 89.3657ZM58.0256 89.1353C58.0256 89.2052 58.0371 89.2601 58.0607 89.2997C58.0848 89.3392 58.1162 89.3652 58.1542 89.3782C58.1928 89.3903 58.2372 89.3917 58.2878 89.3806C58.3379 89.37 58.3899 89.3488 58.4434 89.318C58.4965 89.2871 58.5485 89.2486 58.5991 89.2013C58.6488 89.1541 58.6936 89.102 58.7322 89.0447C58.7707 88.9868 58.8021 88.9251 58.8252 88.8581C58.8493 88.7911 58.8609 88.7227 58.8609 88.6528C58.8609 88.5829 58.8493 88.5289 58.8252 88.4909C58.8016 88.4528 58.7702 88.4277 58.7322 88.4147C58.6936 88.4022 58.6488 88.4012 58.5991 88.4118C58.5485 88.4224 58.4965 88.4431 58.4434 88.474C58.3899 88.5048 58.3379 88.5439 58.2878 88.5911C58.2372 88.6383 58.1928 88.6904 58.1542 88.7482C58.1157 88.8051 58.0848 88.8663 58.0607 88.9319C58.0371 88.9974 58.0256 89.0654 58.0256 89.1353ZM58.0993 87.7385C58.0993 87.7997 58.1089 87.8469 58.1277 87.8816C58.1461 87.9163 58.1721 87.9394 58.2049 87.9515C58.2372 87.9626 58.2743 87.965 58.3148 87.9558C58.3552 87.9481 58.3981 87.9308 58.4434 87.9047C58.4863 87.8797 58.5288 87.8474 58.5707 87.8083C58.6121 87.7693 58.6488 87.725 58.6816 87.6758C58.7143 87.6266 58.7399 87.5741 58.7587 87.5172C58.777 87.4613 58.7866 87.4025 58.7866 87.3418C58.7866 87.281 58.777 87.2333 58.7587 87.1981C58.7399 87.1639 58.7143 87.1408 58.6816 87.1287C58.6488 87.1176 58.6121 87.1157 58.5707 87.1249C58.5292 87.1331 58.4868 87.1504 58.4434 87.1755C58.3977 87.2015 58.3548 87.2338 58.3148 87.2724C58.2743 87.3114 58.2376 87.3553 58.2049 87.4044C58.1721 87.4536 58.1465 87.5061 58.1277 87.5625C58.1089 87.6189 58.0993 87.6777 58.0993 87.7385Z" fill="white"/>
<path d="M66.2681 85.1598C66.2681 85.1443 66.2695 85.1318 66.2719 85.1207C66.2753 85.1096 66.2782 85.1005 66.2825 85.0918L66.6734 84.0049C66.5626 84.0685 66.4599 84.1013 66.365 84.1027C66.2705 84.1042 66.1885 84.0777 66.1196 84.0237C66.0502 83.9687 65.9958 83.8863 65.9557 83.774C65.9153 83.6617 65.8945 83.5239 65.8945 83.36C65.8945 83.1932 65.9148 83.0298 65.9557 82.8717C65.9958 82.7131 66.0521 82.5652 66.1225 82.4288C66.1939 82.2919 66.2777 82.1694 66.3746 82.0624C66.4715 81.9545 66.5751 81.8691 66.6855 81.8046C66.7959 81.7414 66.8995 81.7067 66.9964 81.7033C67.0933 81.699 67.1771 81.7241 67.2485 81.779C67.3193 81.8335 67.3757 81.9169 67.4157 82.0292C67.4557 82.141 67.4765 82.2803 67.4765 82.4475C67.4765 82.5357 67.4702 82.6215 67.4577 82.7049C67.4446 82.7888 67.4278 82.8693 67.407 82.9488C67.3863 83.0269 67.3637 83.105 67.3386 83.1792C67.314 83.2549 67.289 83.3262 67.2634 83.3956L66.7067 84.939C66.6985 84.9621 66.6884 84.9872 66.6754 85.0161C66.6628 85.045 66.6421 85.0672 66.6146 85.0831L66.3481 85.2369C66.3264 85.2494 66.3081 85.248 66.2922 85.2335C66.2758 85.2176 66.2681 85.193 66.2681 85.1598ZM66.2975 83.1276C66.2975 83.2983 66.3341 83.4067 66.4069 83.454C66.4802 83.5017 66.5727 83.493 66.6855 83.4279C66.7978 83.3633 66.8908 83.2641 66.9641 83.1305C67.0369 82.9975 67.0735 82.8471 67.0735 82.6799C67.0735 82.5131 67.0369 82.4042 66.9641 82.3536C66.8908 82.3034 66.7978 82.3107 66.6855 82.3757C66.5727 82.4403 66.4802 82.5401 66.4069 82.675C66.3341 82.809 66.2975 82.9604 66.2975 83.1276Z" fill="white"/>
<path d="M49.3767 101.455C49.381 101.452 49.3989 101.456 49.4302 101.465L50.0447 101.625L49.9175 100.638C49.9136 100.607 49.9112 100.581 49.9112 100.561C49.9112 100.506 49.9257 100.446 49.9546 100.381C49.9835 100.317 50.0177 100.272 50.0577 100.25L50.3248 100.095C50.3653 100.072 50.3995 100.077 50.4289 100.107C50.4578 100.139 50.4723 100.182 50.4723 100.237C50.4723 100.256 50.4694 100.285 50.4655 100.322L50.332 101.469L50.9528 100.586C50.9842 100.54 51.0015 100.516 51.0063 100.514C51.042 100.48 51.0786 100.466 51.1167 100.471C51.1543 100.476 51.1779 100.504 51.1871 100.554L51.2738 100.894C51.2825 100.951 51.2782 101.014 51.2603 101.082C51.2425 101.151 51.2155 101.203 51.1803 101.236C51.176 101.239 51.1702 101.244 51.1635 101.251C51.1567 101.259 51.1447 101.271 51.1268 101.288L50.4255 101.836L50.9403 102.27C50.9668 102.295 50.9803 102.312 50.9803 102.318C51.0025 102.347 51.0111 102.395 51.0068 102.462C51.0025 102.53 50.9822 102.591 50.9466 102.646L50.733 103.016C50.6974 103.072 50.6593 103.105 50.6193 103.118C50.5793 103.131 50.5484 103.12 50.5258 103.084C50.5258 103.078 50.5234 103.072 50.5195 103.067C50.5152 103.063 50.5084 103.05 50.4997 103.027L50.1922 102.218L49.8852 103.382C49.876 103.415 49.8693 103.436 49.8654 103.445C49.8606 103.455 49.8587 103.463 49.8587 103.47C49.836 103.531 49.8047 103.578 49.7652 103.612C49.7247 103.645 49.6876 103.655 49.6519 103.642L49.4379 103.518C49.4022 103.504 49.3825 103.466 49.3776 103.403C49.3733 103.341 49.382 103.282 49.4042 103.229C49.4042 103.222 49.4177 103.19 49.4446 103.134L49.9522 102.1L49.2576 102.368C49.2398 102.371 49.2277 102.373 49.221 102.373C49.2142 102.374 49.2085 102.376 49.2041 102.378C49.1685 102.385 49.1415 102.364 49.1236 102.316C49.1058 102.268 49.1015 102.211 49.1106 102.144L49.1974 101.702C49.2065 101.643 49.2297 101.589 49.2673 101.539C49.3044 101.49 49.341 101.462 49.3767 101.455Z" fill="white"/>
<path d="M59.2399 96.1571C59.2423 96.2135 59.2433 96.2771 59.2433 96.3465C59.2433 96.4164 59.2433 96.4882 59.2433 96.561C59.2433 96.6338 59.2433 96.7051 59.2433 96.7755C59.2433 96.8459 59.2423 96.91 59.2399 96.9688C59.2341 97.1481 59.2168 97.3221 59.1883 97.4888C59.1599 97.6556 59.1141 97.8132 59.0519 97.9597C58.9898 98.1072 58.9093 98.2403 58.8095 98.3598C58.7097 98.4798 58.5873 98.5815 58.4436 98.6644C58.2976 98.7488 58.1752 98.7878 58.0764 98.7825C57.9775 98.7777 57.8975 98.7372 57.8349 98.662C57.7722 98.5868 57.7274 98.4827 57.699 98.3487C57.67 98.2152 57.6527 98.0615 57.6469 97.8884C57.6435 97.7756 57.6411 97.6445 57.6411 97.4975C57.6411 97.35 57.6435 97.2179 57.6469 97.0999C57.6527 96.9206 57.67 96.7456 57.699 96.5754C57.7274 96.4058 57.7727 96.2467 57.8349 96.0978C57.8971 95.9488 57.9775 95.8144 58.0764 95.6915C58.1747 95.5695 58.2976 95.4664 58.4436 95.3815C58.5873 95.2981 58.7097 95.2591 58.8095 95.2639C58.9088 95.2687 58.9898 95.3087 59.0519 95.3839C59.1141 95.4591 59.1599 95.5632 59.1883 95.6972C59.2168 95.8308 59.2341 95.984 59.2399 96.1571ZM58.0465 97.6344C58.0566 97.8479 58.0903 97.9978 58.1487 98.0841C58.207 98.1709 58.3053 98.1738 58.4436 98.0942C58.5815 98.0147 58.6803 97.8981 58.7386 97.7443C58.7965 97.5905 58.8307 97.4016 58.8408 97.177C58.8447 97.0594 58.8466 96.9307 58.8466 96.7904C58.8466 96.6511 58.8447 96.5244 58.8408 96.4111C58.8302 96.198 58.7965 96.0481 58.7386 95.9619C58.6803 95.8751 58.582 95.8722 58.4436 95.9517C58.3053 96.0313 58.207 96.1479 58.1487 96.3017C58.0903 96.4554 58.0566 96.6444 58.0465 96.8685C58.0431 96.9871 58.0407 97.1153 58.0407 97.2551C58.0407 97.3944 58.0431 97.5211 58.0465 97.6344Z" fill="white"/>
<path d="M67.1336 92.8207L67.0893 93.3109C67.0854 93.3407 67.0772 93.3682 67.0637 93.3942C67.0512 93.4203 67.0348 93.4386 67.0151 93.4497L66.7813 93.5851C66.7639 93.5952 66.7485 93.5943 66.735 93.5817C66.7225 93.5702 66.7162 93.549 66.7162 93.522V93.5128L66.7606 93.0361L66.4612 93.2087L66.4169 93.6989C66.413 93.7288 66.4048 93.7567 66.3918 93.7823C66.3788 93.8078 66.3624 93.8266 66.3432 93.8377L66.1089 93.9731C66.0911 93.9832 66.0761 93.9823 66.0631 93.9697C66.0501 93.9582 66.0438 93.9375 66.0438 93.9105V93.9013L66.0887 93.4241L65.8901 93.5388C65.8679 93.5514 65.8496 93.5499 65.8337 93.5345C65.8178 93.5191 65.8101 93.495 65.8101 93.4612V93.1745C65.8101 93.1412 65.8178 93.1075 65.8337 93.0742C65.8501 93.0409 65.8679 93.0183 65.8901 93.0053L66.1388 92.8616L66.201 92.2013L65.9672 92.3363C65.9455 92.3488 65.9267 92.3473 65.9113 92.3324C65.8949 92.3175 65.8872 92.2929 65.8872 92.2596V91.9719C65.8872 91.9386 65.8949 91.9049 65.9113 91.8721C65.9267 91.8388 65.9455 91.8157 65.9672 91.8027L66.2511 91.6388L66.2983 91.151C66.3027 91.1245 66.3104 91.097 66.3224 91.071C66.334 91.045 66.3494 91.0257 66.3697 91.0141L66.6068 90.8777C66.6246 90.8671 66.6396 90.8686 66.6526 90.8806C66.6651 90.8931 66.6714 90.9134 66.6714 90.9404V90.9539L66.6271 91.4219L66.9235 91.2508L66.9707 90.763C66.9746 90.737 66.9823 90.7095 66.9948 90.683C67.0064 90.657 67.0218 90.6377 67.0421 90.6266L67.2787 90.4902C67.2965 90.4791 67.3115 90.4806 67.325 90.4931C67.3375 90.5056 67.3438 90.5254 67.3438 90.5529V90.5664L67.2994 91.0344L67.498 90.9201C67.5192 90.9076 67.538 90.9091 67.5539 90.924C67.5698 90.9394 67.5776 90.964 67.5776 90.9973V91.284C67.5776 91.3173 67.5698 91.351 67.5539 91.3843C67.538 91.418 67.5192 91.4412 67.498 91.4542L67.2459 91.5993L67.1867 92.2582L67.4204 92.1227C67.4426 92.1102 67.4609 92.1116 67.4768 92.1266C67.4922 92.1415 67.5009 92.1656 67.5009 92.1989V92.4866C67.5009 92.5199 67.4922 92.5536 67.4768 92.5869C67.4609 92.6202 67.4426 92.6433 67.4204 92.6558L67.1336 92.8207ZM66.5147 92.6442L66.8112 92.4731L66.8729 91.8128L66.5745 91.9849L66.5147 92.6442Z" fill="white"/>
<path d="M59.3582 101.706L55.8151 103.752C55.4266 103.976 55.1113 104.522 55.1113 104.97V108.755C55.1113 108.972 55.1899 109.117 55.3128 109.188C55.347 109.209 56.1611 109.679 56.1963 109.698C56.3197 109.768 56.4836 109.763 56.6711 109.655L60.2143 107.609C60.6028 107.385 60.918 106.84 60.9175 106.391V102.607C60.9175 102.391 60.8404 102.248 60.7199 102.175C60.6847 102.154 59.8687 101.683 59.8344 101.663C59.7111 101.594 59.5467 101.597 59.3582 101.706Z" fill="#263238"/>
<path d="M56.3573 109.52C56.22 109.52 56.1997 109.35 56.1997 109.249V105.465C56.1997 105.097 56.4687 104.631 56.7873 104.447L60.3304 102.401C60.4235 102.348 60.49 102.336 60.529 102.336C60.6664 102.336 60.6866 102.506 60.6866 102.607V106.391C60.6866 106.759 60.4177 107.225 60.0991 107.409L56.5559 109.454C56.4629 109.508 56.3964 109.52 56.3573 109.52Z" fill="#455A64"/>
<path d="M60.4547 102.597C60.4547 102.6 60.4547 102.603 60.4547 102.607V106.391C60.4547 106.676 60.2296 107.066 59.9828 107.208L56.4397 109.254C56.4368 109.256 56.4339 109.257 56.4305 109.259C56.4305 109.255 56.4305 109.252 56.4305 109.249V105.464C56.4305 105.179 56.6556 104.79 56.9024 104.647L60.4456 102.601C60.4489 102.6 60.4518 102.599 60.4547 102.597ZM60.5289 102.104C60.4345 102.104 60.3275 102.135 60.2147 102.2L56.6715 104.246C56.283 104.47 55.9678 105.016 55.9678 105.464V109.249C55.9678 109.567 56.1264 109.751 56.3572 109.751C56.4517 109.751 56.5587 109.72 56.6715 109.655L60.2147 107.609C60.6032 107.385 60.9184 106.839 60.9184 106.391V102.607C60.9179 102.289 60.7598 102.104 60.5289 102.104Z" fill="#37474F"/>
<path d="M60.6102 102.112L59.8371 101.665C59.7151 101.595 59.5455 101.597 59.357 101.707L55.8133 103.753C55.6201 103.86 55.4461 104.054 55.3164 104.279L56.1739 104.774C56.3035 104.549 56.4751 104.36 56.6708 104.248L60.2145 102.202C60.3625 102.119 60.4979 102.09 60.6102 102.112Z" fill="#37474F"/>
<path d="M77.4505 101.016C76.8316 101.016 76.4624 100.515 76.4624 99.6742L76.4619 53.3396C76.4619 52.0102 77.3984 50.3878 78.5499 49.7231L91.6902 42.1254C91.9958 41.9489 92.2961 41.8554 92.5588 41.8554C93.1777 41.8554 93.5469 42.3572 93.5469 43.1973V89.532C93.5469 90.8613 92.6104 92.4842 91.4589 93.1489L78.3191 100.747C78.013 100.923 77.7127 101.016 77.4505 101.016Z" fill="#455A64"/>
<path d="M92.5587 42.0863C93.2412 42.0863 93.315 42.8628 93.315 43.1968L93.3154 89.5315C93.3154 90.7659 92.4122 92.3305 91.3431 92.9479L78.2033 100.546C77.9324 100.702 77.6721 100.785 77.4504 100.785C76.7674 100.785 76.6937 100.008 76.6937 99.6742L76.6932 53.3396C76.6932 52.1052 77.5965 50.5406 78.6655 49.9232L91.8053 42.3254C92.0767 42.1692 92.337 42.0863 92.5587 42.0863ZM92.5587 41.6236C92.2623 41.6236 91.9282 41.7205 91.5745 41.9248L78.4342 49.5226C77.2171 50.2254 76.2305 51.9345 76.2305 53.3396L76.2309 99.6742C76.2309 100.671 76.7274 101.247 77.4504 101.247C77.7464 101.247 78.0809 101.151 78.4347 100.947L91.5749 93.3489C92.792 92.6462 93.7786 90.937 93.7786 89.532L93.7782 43.1973C93.7782 42.1996 93.2817 41.6231 92.5587 41.6236Z" fill="#37474F"/>
<path d="M93.1381 41.773C93.1458 41.7783 93.1535 41.7831 93.1612 41.7884C92.7616 41.5392 92.1991 41.5643 91.5735 41.9258L78.4337 49.5231C77.8283 49.8716 77.2807 50.4697 76.8841 51.1542L74.8438 49.9762C75.2433 49.2864 75.7928 48.6859 76.4011 48.335L89.5409 40.7377C90.1415 40.3892 90.6861 40.3535 91.0828 40.5724C91.4896 40.7984 92.7385 41.5388 93.1381 41.773Z" fill="#37474F"/>
<path d="M76.8834 51.1542C76.479 51.8487 76.2294 52.6325 76.2294 53.34L76.2318 99.6737C76.2318 100.358 76.466 100.844 76.8449 101.084C76.3918 100.811 75.2345 100.139 74.8402 99.9133C74.4431 99.6819 74.1963 99.1879 74.1963 98.4856V52.1519C74.1963 51.4472 74.4431 50.6659 74.8426 49.9762L76.8834 51.1542Z" fill="#263238"/>
<path d="M78.8432 54.5908C78.8432 53.6317 79.52 52.4604 80.3514 51.9794L89.7123 46.567V59.3935C89.7123 59.4817 89.7061 59.5757 89.6964 59.6668C89.6873 59.7574 89.668 59.8509 89.6463 59.9439C89.6328 60.0109 89.614 60.076 89.5952 60.1377C89.5639 60.2379 89.5292 60.3368 89.4877 60.4356C89.4762 60.4688 89.4656 60.4891 89.4554 60.5088C89.4164 60.6038 89.3759 60.6809 89.3301 60.7609C89.3181 60.7889 89.3075 60.8115 89.2974 60.8313L89.2622 60.8891C89.2371 60.9335 89.212 60.9744 89.1831 61.0188C89.1605 61.0545 89.1383 61.0892 89.1161 61.121C88.9402 61.3827 88.7286 61.616 88.503 61.7982C88.4187 61.8661 88.3179 61.9437 88.2104 62.0021L78.8423 67.4193V54.5908H78.8432Z" fill="#455A64"/>
<path d="M89.5449 46.8567V59.3935C89.5449 59.4759 89.5386 59.5646 89.5299 59.6504C89.5227 59.7198 89.5078 59.8013 89.4812 59.9164C89.4697 59.9733 89.4523 60.0336 89.4364 60.0866C89.4061 60.1835 89.3728 60.2775 89.3333 60.3715L89.3285 60.383L89.3246 60.3951C89.3198 60.4091 89.3125 60.4216 89.3058 60.4351L89.3 60.4466L89.2952 60.4582C89.2677 60.5252 89.234 60.5927 89.1848 60.678L89.1718 60.7007L89.1626 60.7252C89.1617 60.7277 89.1607 60.7305 89.1593 60.7334L89.1173 60.8062C89.0932 60.8482 89.0691 60.8872 89.0407 60.9315C89.0205 60.9638 88.9997 60.9956 88.9756 61.0304C88.8108 61.2767 88.6108 61.4974 88.3982 61.6685C88.2869 61.7582 88.2068 61.8141 88.123 61.8599L79.0093 67.1296V54.5908C79.0093 53.7006 79.6619 52.5708 80.4341 52.1244L89.5449 46.8567ZM89.876 46.2865C89.8394 46.3033 89.7989 46.3231 89.7589 46.3467L80.2673 51.8348C79.3877 52.3433 78.6753 53.5772 78.6753 54.5908V67.5774C78.6753 67.6207 78.6753 67.6612 78.6787 67.7012C78.7187 67.681 78.7592 67.6612 78.7992 67.6376L88.2907 62.1496C88.4011 62.0893 88.5047 62.0122 88.6083 61.9288C88.8493 61.735 89.0701 61.4907 89.2537 61.2164C89.2769 61.1831 89.3005 61.146 89.3241 61.1094C89.354 61.0626 89.381 61.0193 89.4075 60.972H89.4109C89.434 60.932 89.4576 60.8882 89.4745 60.8448C89.5246 60.758 89.568 60.6742 89.6051 60.584C89.6186 60.5575 89.6316 60.5305 89.6418 60.5006C89.6851 60.397 89.7222 60.2934 89.7555 60.1864C89.7753 60.1194 89.7955 60.049 89.809 59.9825C89.8326 59.8822 89.8524 59.782 89.8625 59.6846C89.8726 59.5877 89.8794 59.4875 89.8794 59.3935V46.407C89.8794 46.3669 89.8794 46.3269 89.876 46.2865Z" fill="#37474F"/>
<path d="M91.3509 60.2529C91.3509 60.7614 91.1702 61.3263 90.8829 61.8247C90.5952 62.3197 90.197 62.7545 89.7594 63.0085L80.2673 68.497C80.2037 68.5336 80.1401 68.5674 80.0765 68.5939C79.8157 68.7077 79.5713 68.7409 79.3674 68.6942C79.3371 68.6874 79.3072 68.6807 79.2807 68.6705C79.2503 68.6604 79.2238 68.6503 79.1973 68.6373C79.1703 68.6238 79.1438 68.6108 79.1202 68.5973C78.8695 68.4401 78.7057 68.1321 78.6787 67.7007C78.6753 67.6607 78.6753 67.6203 78.6753 67.5769V54.5904C78.6753 53.5772 79.3877 52.3428 80.2673 51.8343L89.7589 46.3462C89.7989 46.3226 89.8394 46.3028 89.876 46.286V46.2826C90.2404 46.1018 90.5682 46.0855 90.8227 46.2021C90.8463 46.2156 90.866 46.2257 90.8829 46.2354C90.9133 46.2522 90.9432 46.2754 90.973 46.299C90.9865 46.3057 90.9967 46.3159 91.0097 46.3289C91.0328 46.3491 91.0531 46.3689 91.0733 46.3925C91.0767 46.3925 91.0767 46.3959 91.08 46.3992C91.1003 46.4195 91.1167 46.4426 91.1335 46.4696C91.2169 46.5834 91.2772 46.7236 91.3109 46.8909C91.3177 46.9309 91.3244 46.968 91.3312 47.008C91.3379 47.048 91.3447 47.0914 91.3447 47.1319C91.348 47.1521 91.3514 47.1753 91.348 47.1989V47.2659L91.3509 60.2529Z" fill="#BA68C8"/>
<path opacity="0.5" d="M91.3509 60.2529C91.3509 60.7614 91.1702 61.3263 90.8829 61.8247C90.5952 62.3197 90.197 62.7545 89.7594 63.0085L80.2673 68.497C80.2037 68.5336 80.1401 68.5674 80.0765 68.5939C79.8157 68.7077 79.5713 68.7409 79.3674 68.6942C79.3371 68.6874 79.3072 68.6807 79.2807 68.6705C79.2503 68.6604 79.2238 68.6503 79.1973 68.6373C79.1703 68.6238 79.1438 68.6108 79.1202 68.5973C78.8695 68.4401 78.7057 68.1321 78.6787 67.7007C78.6753 67.6607 78.6753 67.6203 78.6753 67.5769V54.5904C78.6753 53.5772 79.3877 52.3428 80.2673 51.8343L89.7589 46.3462C89.7989 46.3226 89.8394 46.3028 89.876 46.286V46.2826C90.2404 46.1018 90.5682 46.0855 90.8227 46.2021C90.8463 46.2156 90.866 46.2257 90.8829 46.2354C90.9133 46.2522 90.9432 46.2754 90.973 46.299C90.9865 46.3057 90.9967 46.3159 91.0097 46.3289C91.0328 46.3491 91.0531 46.3689 91.0733 46.3925C91.0767 46.3925 91.0767 46.3959 91.08 46.3992C91.1003 46.4195 91.1167 46.4426 91.1335 46.4696C91.2169 46.5834 91.2772 46.7236 91.3109 46.8909C91.3177 46.9309 91.3244 46.968 91.3312 47.008C91.3379 47.048 91.3447 47.0914 91.3447 47.1319C91.348 47.1521 91.3514 47.1753 91.348 47.1989V47.2659L91.3509 60.2529Z" fill="white"/>
<path d="M90.883 61.8252C90.5952 62.3202 90.1971 62.7549 89.7594 63.009L80.2674 68.497C80.2038 68.5336 80.1401 68.5674 80.0765 68.5939C79.8158 68.7077 79.5714 68.7409 79.3675 68.6942C79.3371 68.6874 79.3072 68.6807 79.2807 68.6705C79.2504 68.6604 79.2239 68.6503 79.1973 68.6373C79.1805 68.6305 79.167 68.6238 79.154 68.617C79.1438 68.6103 79.1342 68.6035 79.1207 68.5968C78.8701 68.4397 78.7062 68.1317 78.6792 67.7003C78.7192 67.68 78.7592 67.6603 78.7997 67.6366L88.2912 62.1486C88.4016 62.085 88.5052 62.0112 88.6089 61.9278C88.8499 61.7336 89.0706 61.4897 89.2543 61.2154C89.2808 61.1788 89.3044 61.1451 89.3247 61.1084C89.3545 61.0617 89.3815 61.0183 89.408 60.9711H89.4114L90.883 61.8252Z" fill="#37474F"/>
<path d="M91.3511 47.2664V60.2529C91.3511 60.7614 91.1704 61.3263 90.8831 61.8247L89.4116 60.972H89.4082C89.4313 60.9287 89.455 60.8882 89.4752 60.8448C89.5253 60.758 89.5687 60.6742 89.6058 60.584C89.6193 60.5575 89.6323 60.5305 89.6425 60.5002C89.6858 60.3965 89.7229 60.2929 89.7562 60.1859C89.7765 60.1189 89.7962 60.0485 89.8097 59.982C89.8333 59.8817 89.8531 59.7815 89.8632 59.6841C89.8767 59.5872 89.8835 59.487 89.8835 59.393L89.8801 46.4065C89.8801 46.3665 89.8801 46.3265 89.8767 46.286V46.2826C90.2411 46.1018 90.5689 46.0855 90.8233 46.2021C90.847 46.2156 90.8667 46.2257 90.8836 46.2354C90.914 46.2522 90.9439 46.2754 90.9737 46.299C90.9872 46.3057 90.9974 46.3159 91.0104 46.3289C91.0335 46.3491 91.0537 46.3689 91.074 46.3925C91.0774 46.3925 91.0774 46.3959 91.0807 46.3992C91.101 46.4195 91.1174 46.4426 91.1342 46.4696C91.2176 46.5834 91.2779 46.7236 91.3116 46.8909C91.3184 46.9309 91.3251 46.968 91.3319 47.008C91.3386 47.048 91.3454 47.0914 91.3454 47.1319C91.3511 47.1762 91.3511 47.2196 91.3511 47.2664Z" fill="#263238"/>
<path d="M86.736 58.2613C86.3735 58.2613 86.0732 58.1793 85.826 58.0145C85.7826 57.9851 85.7705 57.9263 85.7995 57.8824C85.8289 57.8386 85.8881 57.827 85.9315 57.8559C86.2511 58.069 86.683 58.1229 87.2498 58.0203C87.3023 58.0106 87.3515 58.0453 87.3607 58.0969C87.3698 58.149 87.3356 58.1981 87.284 58.2078C87.0869 58.2439 86.9052 58.2613 86.736 58.2613Z" fill="#455A64"/>
<path d="M85.7162 57.7788C85.6901 57.7788 85.6636 57.7682 85.6453 57.747C85.3103 57.3715 85.2756 56.8037 85.2385 56.2022C85.2322 56.1009 85.226 55.9978 85.2183 55.8937C85.1966 55.6074 85.1252 55.4204 85.0067 55.3375C84.918 55.2758 84.797 55.268 84.6379 55.3138C84.5878 55.3283 84.5348 55.2994 84.5203 55.2488C84.5059 55.1982 84.5348 55.1451 84.5854 55.1307C84.8004 55.069 84.9787 55.0858 85.1151 55.1808C85.2857 55.2994 85.3817 55.5278 85.4077 55.8792C85.4159 55.9838 85.4221 56.0879 85.4284 56.1901C85.4646 56.7825 85.4959 57.2934 85.787 57.6197C85.8222 57.6588 85.8188 57.719 85.7793 57.7542C85.7615 57.7706 85.7388 57.7788 85.7162 57.7788Z" fill="#455A64"/>
<path d="M83.9364 59.1443C83.8988 59.1443 83.8631 59.1221 83.8482 59.085C83.5262 58.2984 83.3561 55.9245 84.2993 55.2714C84.3418 55.242 84.4015 55.2517 84.4319 55.2955C84.4618 55.3389 84.4512 55.3982 84.4078 55.4281C83.5898 55.9949 83.7176 58.2632 84.0251 59.0127C84.0448 59.0614 84.0217 59.1173 83.973 59.1371C83.9605 59.1419 83.948 59.1443 83.9364 59.1443Z" fill="#455A64"/>
<path d="M86.1732 60.612C85.2126 60.612 84.453 60.1946 84.0066 59.4113C83.9806 59.3655 83.9965 59.3072 84.0423 59.2812C84.0876 59.2552 84.1459 59.2711 84.172 59.3168C84.6419 60.1416 85.4941 60.5252 86.5757 60.397C86.6282 60.3917 86.675 60.4283 86.6817 60.4804C86.688 60.5329 86.6504 60.5802 86.5984 60.5864C86.4528 60.6033 86.3111 60.612 86.1732 60.612Z" fill="#455A64"/>
<path d="M86.3856 60.0582C85.7421 60.0582 85.2259 59.874 84.8461 59.5096C84.2552 58.9418 84.005 57.9359 84.1033 56.5212C84.1221 56.2557 84.2663 55.9139 84.5063 55.7751C84.635 55.7043 84.7642 55.7023 84.8692 55.766C84.9859 55.8358 85.0514 55.9713 85.0486 56.1376C85.0322 57.2765 85.2399 58.014 85.6838 58.3914C86.0256 58.6821 86.5124 58.7669 87.1698 58.6498C87.2277 58.642 87.2715 58.6753 87.2802 58.7269C87.2894 58.7785 87.2547 58.8281 87.2031 58.8373C86.4844 58.9645 85.948 58.8662 85.5599 58.5365C85.0702 58.12 84.8408 57.3344 84.8582 56.1347C84.8596 56.0383 84.8278 55.9631 84.7709 55.9294C84.7246 55.9019 84.6663 55.9048 84.607 55.9375C84.4461 56.0306 84.3106 56.2913 84.2937 56.5347C84.1997 57.8911 84.4301 58.8455 84.9782 59.3728C85.3932 59.7714 85.9991 59.9314 86.7765 59.8461C86.8315 59.8427 86.8758 59.8784 86.8816 59.9304C86.8874 59.9825 86.8493 60.0297 86.7972 60.0355C86.6546 60.0505 86.5172 60.0582 86.3856 60.0582Z" fill="#455A64"/>
<path d="M85.9404 61.2555C85.1591 61.2555 84.5287 61.0231 84.064 60.5623C83.3719 59.8765 83.0677 58.709 83.1588 57.0929C83.2094 56.1969 83.5406 55.0796 84.3195 54.6299L84.3503 54.6125C84.6911 54.4245 85.0112 54.4009 85.2758 54.5436C85.5958 54.7162 85.7954 55.1167 85.8378 55.6705L85.8455 55.7674C85.8869 56.327 85.9298 56.9054 86.2947 57.1912C86.528 57.3739 86.8746 57.4236 87.3532 57.3426C87.4101 57.3339 87.4544 57.3691 87.4631 57.4207C87.4718 57.4727 87.4371 57.5219 87.385 57.5306C86.85 57.6212 86.4547 57.559 86.1771 57.3411C85.7462 57.0037 85.698 56.354 85.6556 55.7814L85.6484 55.685C85.6108 55.1977 85.4469 54.8521 85.1861 54.7113C84.9813 54.6005 84.7244 54.6241 84.4434 54.7793L84.4149 54.7952C83.7016 55.2073 83.395 56.2962 83.3497 57.1035C83.2615 58.6633 83.5473 59.781 84.1985 60.4269C84.6762 60.9007 85.3548 61.1128 86.2036 61.0559C86.2537 61.0501 86.301 61.0921 86.3048 61.1446C86.3082 61.1971 86.2682 61.2424 86.2157 61.2458C86.1222 61.2526 86.0301 61.2555 85.9404 61.2555Z" fill="#455A64"/>
<path d="M85.7758 61.9346C85.4577 61.9341 85.1241 61.8739 84.7843 61.7558C84.7347 61.7384 84.7082 61.6844 84.7255 61.6343C84.7429 61.5847 84.7974 61.5586 84.847 61.5755C85.1666 61.6864 85.4789 61.7432 85.7758 61.7437C85.8284 61.7437 85.8713 61.7866 85.8708 61.8392C85.8713 61.8922 85.8284 61.9346 85.7758 61.9346Z" fill="#455A64"/>
<path d="M84.4834 61.6574C84.4704 61.6574 84.4569 61.6546 84.4444 61.6488C83.8535 61.3822 83.4124 60.972 83.1686 60.4626C83.1459 60.4153 83.1657 60.3585 83.2134 60.3353C83.2611 60.3131 83.318 60.3324 83.3406 60.3801C83.5681 60.8554 83.9658 61.2236 84.523 61.4748C84.5712 61.4965 84.5924 61.5528 84.5707 61.601C84.5543 61.6367 84.5196 61.6574 84.4834 61.6574Z" fill="#455A64"/>
<path d="M83.0855 60.1107C83.046 60.1107 83.0093 60.0861 82.9954 60.0466C82.6242 58.9794 82.3972 56.7926 83.2908 55.1418C83.3159 55.095 83.3737 55.0781 83.42 55.1032C83.4663 55.1283 83.4831 55.1861 83.4581 55.2324C82.5934 56.8288 82.8156 58.9486 83.1756 59.9839C83.193 60.0336 83.1665 60.088 83.1168 60.1054C83.1062 60.1088 83.0956 60.1107 83.0855 60.1107Z" fill="#455A64"/>
<path d="M86.1939 55.6638C86.1453 55.6638 86.1033 55.6267 86.099 55.5775C86.0093 54.6174 85.75 54.1595 85.2323 54.0447C84.7441 53.9363 84.1247 54.2833 83.6567 54.9268C83.6258 54.9692 83.5661 54.9784 83.5237 54.948C83.4812 54.9172 83.4716 54.8574 83.5025 54.815C84.0235 54.0992 84.7017 53.7329 85.2733 53.8587C86.044 54.0288 86.2195 54.814 86.2889 55.5597C86.2937 55.6122 86.2552 55.6585 86.2026 55.6633C86.1997 55.6638 86.1968 55.6638 86.1939 55.6638Z" fill="#455A64"/>
<path d="M87.0208 56.9994C86.8535 56.9994 86.7017 56.9599 86.5754 56.8818C86.346 56.7396 86.2071 56.4822 86.1623 56.1169C86.156 56.0648 86.1932 56.0171 86.2452 56.0108C86.2982 56.0041 86.345 56.0417 86.3517 56.0937C86.3893 56.3988 86.4983 56.6095 86.6761 56.7198C86.8569 56.8321 87.1143 56.8389 87.4001 56.7386C87.4507 56.7213 87.5042 56.7473 87.5216 56.797C87.5389 56.8466 87.5129 56.9011 87.4632 56.9184C87.309 56.9724 87.1596 56.9994 87.0208 56.9994Z" fill="#455A64"/>
<path d="M85.388 62.4508C85.3856 62.4508 85.3827 62.4508 85.3793 62.4503C85.2169 62.4354 84.9373 62.393 84.3898 62.1973C82.7293 61.5177 82.0651 60.1425 82.1644 57.5976C82.2218 56.1308 82.9722 54.2462 84.2973 53.4813C84.8467 53.1646 85.3263 53.1029 85.723 53.2971C86.1963 53.5295 86.5101 54.1194 86.6301 55.0025C86.7622 55.9766 87.0066 56.1463 87.4669 56.1294C87.4678 56.1294 87.4693 56.1294 87.4693 56.1294C87.5209 56.1294 87.5633 56.1704 87.5643 56.2219C87.5657 56.2745 87.5242 56.3183 87.4717 56.3198C86.8427 56.3318 86.5742 56.0113 86.4412 55.0275C86.3303 54.2105 86.0527 53.6712 85.6387 53.4678C85.3022 53.3029 84.8829 53.3627 84.3922 53.6456C83.1274 54.3759 82.4097 56.1901 82.3548 57.6043C82.2343 60.6862 83.3501 61.5654 84.4582 62.0189C84.9812 62.206 85.2444 62.246 85.3962 62.2599C85.4488 62.2648 85.4873 62.311 85.4825 62.3636C85.4782 62.4137 85.4367 62.4508 85.388 62.4508Z" fill="#455A64"/>
<path d="M87.4655 55.6638C86.9314 55.6638 86.8191 54.9731 86.7285 54.4164C86.7155 54.3363 86.703 54.2583 86.689 54.1835C86.6798 54.132 86.714 54.0823 86.7656 54.0727C86.8172 54.0621 86.8668 54.0978 86.8765 54.1493C86.89 54.225 86.903 54.3045 86.9165 54.3855C87.0004 54.9012 87.1011 55.4849 87.4809 55.4729C87.5306 55.4637 87.5778 55.5124 87.5792 55.565C87.5812 55.6175 87.5397 55.6618 87.4872 55.6633C87.4799 55.6638 87.4727 55.6638 87.4655 55.6638Z" fill="#455A64"/>
<path d="M86.7014 53.9209C86.6609 53.9209 86.6228 53.8948 86.6103 53.8539C86.418 53.234 86.0521 52.8441 85.5802 52.7563C85.5282 52.7467 85.4944 52.6971 85.5041 52.645C85.5137 52.5934 85.5619 52.5592 85.6149 52.5688C86.1524 52.6686 86.5814 53.1164 86.792 53.7975C86.8079 53.8476 86.7795 53.9011 86.7293 53.9165C86.7202 53.9194 86.7105 53.9209 86.7014 53.9209Z" fill="#455A64"/>
<path d="M83.5797 53.6365C83.5556 53.6365 83.532 53.6273 83.5132 53.6095C83.4756 53.5729 83.4746 53.5126 83.5113 53.475C84.0588 52.9115 84.7138 52.5737 85.3086 52.5486C85.3544 52.5419 85.4055 52.5872 85.4079 52.6397C85.4099 52.6922 85.3694 52.7366 85.3168 52.739C84.778 52.7616 84.1542 53.0865 83.6481 53.6076C83.6293 53.6264 83.6043 53.6365 83.5797 53.6365Z" fill="#455A64"/>
<path d="M82.0043 56.3352C81.9971 56.3352 81.9894 56.3342 81.9812 56.3323C81.9301 56.3198 81.8992 56.2682 81.9113 56.2171C82.1214 55.3664 82.5842 54.4723 83.1809 53.7642C83.2151 53.7242 83.2754 53.7194 83.3154 53.7526C83.3554 53.7864 83.3607 53.8466 83.3269 53.8871C82.748 54.5735 82.2998 55.4396 82.0964 56.2629C82.0863 56.3058 82.0472 56.3352 82.0043 56.3352Z" fill="#455A64"/>
<path d="M81.8022 59.1496C81.7545 59.1496 81.7135 59.1139 81.7077 59.0657C81.6118 58.2752 81.6397 57.4313 81.7892 56.6244C81.7988 56.5728 81.847 56.5386 81.9 56.5482C81.9516 56.5579 81.9858 56.6075 81.9762 56.6596C81.8306 57.4472 81.8027 58.2714 81.8966 59.0431C81.9029 59.0951 81.8658 59.1428 81.8133 59.1491C81.8099 59.1491 81.806 59.1496 81.8022 59.1496Z" fill="#455A64"/>
<path d="M82.4968 61.4622C82.4645 61.4622 82.4327 61.4454 82.4149 61.4155C82.1223 60.9243 81.8919 60.262 81.7656 59.5501C81.7565 59.4981 81.7912 59.4489 81.8432 59.4398C81.8972 59.4311 81.9444 59.4653 81.9536 59.5169C82.0756 60.2066 82.2978 60.8462 82.5788 61.3181C82.6058 61.3634 82.5908 61.4217 82.5455 61.4487C82.5306 61.4579 82.5137 61.4622 82.4968 61.4622Z" fill="#455A64"/>
<path d="M84.5815 63.0548C84.5695 63.0548 84.5574 63.0523 84.5454 63.0475C83.6778 62.6928 83.0705 62.2705 82.6892 61.7567C82.6579 61.7143 82.6666 61.6545 82.709 61.6232C82.7514 61.5924 82.8107 61.6006 82.8425 61.643C83.2025 62.1284 83.7833 62.5299 84.6177 62.8711C84.6664 62.8909 84.69 62.9468 84.6697 62.9955C84.6548 63.0326 84.6191 63.0548 84.5815 63.0548Z" fill="#455A64"/>
<path d="M83.8605 63.464C83.8484 63.464 83.8364 63.4616 83.8243 63.4567C82.0901 62.7472 81.1738 60.9262 81.1738 58.1909C81.1738 56.0696 82.1402 53.3993 84.2996 52.2165C84.9807 51.8434 85.7687 51.8458 86.4069 52.2237C87.1521 52.6652 87.5796 53.5579 87.5796 54.6728C87.5796 54.7253 87.5372 54.7682 87.4847 54.7682C87.4321 54.7682 87.3897 54.7253 87.3897 54.6728C87.3897 53.6114 87.006 52.7997 86.3105 52.3876C85.7307 52.0444 85.0139 52.0425 84.3917 52.3833C82.3007 53.529 81.3647 56.1255 81.3647 58.1904C81.3647 60.0394 81.8038 62.4238 83.8971 63.2798C83.9458 63.2996 83.9694 63.3555 83.9492 63.4042C83.9338 63.4418 83.8981 63.464 83.8605 63.464Z" fill="#455A64"/>
<path d="M86.5178 59.4764C86.4494 59.4764 86.3824 59.4745 86.3164 59.4706C86.2638 59.4677 86.2238 59.4224 86.2267 59.3699C86.2296 59.3173 86.2778 59.2792 86.3274 59.2802C86.5434 59.2927 86.7747 59.2836 87.036 59.2523C87.09 59.246 87.1358 59.2836 87.142 59.3356C87.1483 59.3877 87.1107 59.4354 87.0586 59.4417C86.8649 59.4648 86.6861 59.4764 86.5178 59.4764Z" fill="#455A64"/>
<path d="M85.9749 59.4402C85.9687 59.4402 85.9629 59.4398 85.9566 59.4383C85.4924 59.3467 85.1044 59.0643 84.9184 58.6816C84.8952 58.6343 84.915 58.577 84.9622 58.5543C85.01 58.5312 85.0668 58.5509 85.0895 58.5982C85.25 58.9274 85.5874 59.1713 85.9932 59.2513C86.0453 59.2614 86.0786 59.3115 86.0684 59.3631C86.0593 59.4084 86.0197 59.4402 85.9749 59.4402Z" fill="#455A64"/>
<path d="M84.8545 58.442C84.8178 58.442 84.7827 58.4208 84.7667 58.3847C84.5286 57.8357 84.4337 57.0943 84.4992 56.2966C84.5036 56.2446 84.5441 56.2031 84.6019 56.2094C84.6544 56.2137 84.6935 56.2595 84.6891 56.3121C84.627 57.0678 84.719 57.7957 84.9417 58.3085C84.9629 58.3567 84.9403 58.4131 84.8921 58.4338C84.88 58.4396 84.867 58.442 84.8545 58.442Z" fill="#455A64"/>
<path d="M86.7833 51.6863C86.7635 51.6863 86.7438 51.6805 86.7269 51.668C86.3611 51.3995 85.6694 51.2713 85.2149 51.3889C85.1638 51.4029 85.1117 51.3711 85.0987 51.3205C85.0857 51.2694 85.1161 51.2173 85.1672 51.2043C85.6762 51.0722 86.4271 51.212 86.8392 51.5142C86.8816 51.5456 86.8908 51.6048 86.8595 51.6473C86.8416 51.6723 86.8127 51.6863 86.7833 51.6863Z" fill="#455A64"/>
<path d="M82.7655 52.8552C82.7433 52.8552 82.7207 52.8474 82.7029 52.8315C82.6633 52.7968 82.6595 52.7366 82.6937 52.6971C83.1868 52.1322 83.9373 51.6212 84.7012 51.3311C84.7514 51.3128 84.8053 51.3373 84.8241 51.3865C84.8429 51.4357 84.8179 51.4906 84.7687 51.5094C84.0327 51.789 83.3107 52.2801 82.8373 52.8224C82.8181 52.8441 82.792 52.8552 82.7655 52.8552Z" fill="#455A64"/>
<path d="M82.8277 63.6895C82.8137 63.6895 82.7993 63.6862 82.7858 63.6799C82.5004 63.5392 82.2435 63.3314 82.0218 63.062C81.9881 63.0215 81.9943 62.9612 82.0348 62.928C82.0753 62.8952 82.1355 62.9 82.1693 62.941C82.3732 63.1892 82.6089 63.3806 82.8701 63.5088C82.9173 63.5319 82.9371 63.5893 82.9135 63.6365C82.8966 63.6698 82.8629 63.6895 82.8277 63.6895Z" fill="#455A64"/>
<path d="M81.8494 62.7463C81.8215 62.7463 81.7935 62.7337 81.7747 62.7106C81.487 62.3496 81.2426 61.911 81.1042 61.508C81.0874 61.4579 81.1134 61.4039 81.1635 61.387C81.2127 61.3702 81.2676 61.3967 81.2845 61.4463C81.4161 61.8295 81.6489 62.2474 81.9236 62.592C81.9564 62.633 81.9497 62.6933 81.9087 62.726C81.8914 62.7395 81.8706 62.7463 81.8494 62.7463Z" fill="#455A64"/>
<path d="M53.195 66.1511L61.4859 61.3644C62.1386 60.9875 62.6683 59.9762 62.6683 59.1057V58.8705C62.6683 58 62.139 57.6 61.4859 57.9769L53.195 62.7636C52.5419 63.1405 52.0127 64.1518 52.0127 65.0223V65.2575C52.0132 66.128 52.5424 66.528 53.195 66.1511Z" fill="#37474F"/>
<path d="M61.9655 58.4642C61.9655 58.2188 61.9197 58.0154 61.8445 57.8516C61.7308 57.8684 61.6117 57.9041 61.4859 57.9769L53.195 62.7636C52.5424 63.1405 52.0132 64.1518 52.0132 65.0223V65.2575C52.0132 65.5033 52.059 65.7062 52.1342 65.8701C52.2479 65.8528 52.367 65.8176 52.4928 65.7448L60.7837 60.9581C61.4363 60.5811 61.9655 59.5699 61.9655 58.6994V58.4642Z" fill="#BA68C8"/>
<path d="M83.3672 84.5283C83.2491 84.5963 83.133 84.591 83.0578 84.498C82.9329 84.3423 82.9701 84.0015 83.1407 83.7364C83.4598 83.2409 83.6502 82.6307 83.6502 82.1044C83.6502 81.578 83.4598 81.1876 83.1407 81.0603C82.9701 80.9924 82.9329 80.6945 83.0578 80.3947C83.1826 80.0949 83.4222 79.9069 83.5928 79.9749C84.1085 80.1802 84.416 80.8107 84.416 81.6619C84.416 82.5131 84.1081 83.4988 83.5928 84.2999C83.5248 84.4054 83.4458 84.483 83.3672 84.5283Z" fill="#E0E0E0"/>
<path d="M84.4606 85.1058C84.3574 85.1655 84.2548 85.1694 84.1791 85.1043C84.0354 84.98 84.0446 84.6517 84.2003 84.3707C84.7387 83.3956 85.0476 82.2755 85.0476 81.2975C85.0476 80.32 84.7387 79.5565 84.2003 79.2027C84.0451 79.1005 84.0354 78.7829 84.1791 78.4932C84.3227 78.203 84.5652 78.0507 84.7204 78.1524C85.4149 78.6084 85.8135 79.5936 85.8135 80.855C85.8135 82.1164 85.4149 83.5614 84.7204 84.8199C84.6471 84.953 84.5536 85.0518 84.4606 85.1058Z" fill="#E0E0E0"/>
<path d="M85.5781 85.6957C85.4808 85.7521 85.3834 85.7589 85.3082 85.7035C85.1578 85.5916 85.1569 85.2687 85.3063 84.9824C86.0703 83.5147 86.491 81.9101 86.491 80.4641C86.491 79.0181 86.0703 77.8994 85.3063 77.3138C85.1573 77.1995 85.1583 76.8756 85.3082 76.5903C85.4581 76.3049 85.701 76.1661 85.85 76.2804C86.7571 76.9754 87.2569 78.3043 87.2569 80.0221C87.2569 81.7395 86.7571 83.6453 85.85 85.3882C85.7753 85.5319 85.6765 85.6389 85.5781 85.6957Z" fill="#E0E0E0"/>
<path d="M85.1477 88.1043C82.3088 89.7431 79.999 87.9973 79.999 84.2121C79.999 80.4265 82.3088 76.0133 85.1477 74.3745C87.9867 72.7357 90.2965 74.4815 90.2965 78.2667C90.2965 82.0523 87.9867 86.4655 85.1477 88.1043ZM85.1477 75.0864C82.6033 76.5556 80.5331 80.5109 80.5331 83.9037C80.5331 87.2965 82.6033 88.8615 85.1477 87.3924C87.6922 85.9232 89.7624 81.968 89.7624 78.5752C89.7624 75.1824 87.6922 73.6173 85.1477 75.0864Z" fill="#E0E0E0"/>
<path d="M164.75 107.15C166.072 107.766 171.414 109.482 171.914 107.259C172.061 106.604 171.791 105.935 171.521 105.32C170.031 101.925 168.215 98.4104 165.022 96.5268C161.709 94.5727 157.544 93.696 153.889 92.5787C149.756 91.3159 145.628 89.986 141.687 88.1988C141.243 87.9978 140.772 87.7852 140.29 87.8503C139.307 87.9828 138.843 89.1435 138.765 90.1316C138.539 92.9845 139.906 95.784 141.859 97.8749C142.911 99.0009 144.136 99.9639 145.479 100.72C147.179 101.677 148.929 102.081 150.749 102.637C152.723 103.24 154.605 104.123 156.615 104.682C157.269 104.864 164.791 106.81 164.75 107.15Z" fill="#F0997A"/>
<path d="M94.8383 87.8233L94.833 87.8286L93.9881 88.3183C93.8965 88.3665 93.8107 88.4258 93.7244 88.4904C93.6492 88.5444 93.5735 88.6032 93.4983 88.6682C93.4767 88.6841 93.4607 88.7005 93.4391 88.7222C93.3639 88.7868 93.2935 88.8567 93.2236 88.9266C93.1802 88.9695 93.1426 89.0129 93.105 89.0558C93.0082 89.1632 92.9113 89.2765 92.825 89.4004C92.7927 89.4433 92.7657 89.4867 92.7334 89.5296C92.6958 89.5778 92.6635 89.6318 92.6259 89.6857C92.6206 89.6963 92.6095 89.7127 92.5989 89.7286C92.5772 89.7662 92.556 89.8038 92.5343 89.8419C92.529 89.8525 92.5237 89.8636 92.5184 89.8742C92.4698 89.9547 92.4269 90.0357 92.384 90.1166C92.3411 90.2024 92.3035 90.2834 92.2654 90.3697C92.2384 90.4343 92.2114 90.4989 92.1849 90.5635C92.1579 90.6387 92.1309 90.7143 92.1039 90.7895C92.061 90.924 92.0229 91.0532 91.9964 91.1823C91.9805 91.2575 91.9641 91.3332 91.9535 91.4084C91.9429 91.4624 91.9371 91.5159 91.9318 91.5646C91.9265 91.6075 91.9212 91.6562 91.9212 91.699C91.9159 91.7742 91.9106 91.8441 91.9106 91.9198V100.774L91.9 128.392C91.9 128.409 92.5189 129.727 92.5242 129.743C92.5242 129.743 91.0064 128.866 90.5866 128.618C90.1831 128.376 89.8867 127.945 89.8867 127.224V90.7577C89.8867 90.6714 89.892 90.5909 89.8973 90.5047C89.9026 90.4184 89.9132 90.3326 89.9296 90.2463C89.9513 90.0954 89.9889 89.9446 90.0318 89.7889C90.0477 89.7243 90.0694 89.6597 90.0911 89.5951C90.134 89.4659 90.1827 89.3368 90.242 89.2076C90.3171 89.0355 90.4034 88.863 90.5003 88.6962C90.5379 88.6369 90.5702 88.5776 90.6078 88.5188C90.6348 88.4759 90.6618 88.4325 90.6941 88.3896C90.7317 88.3357 90.764 88.2875 90.8016 88.2388C90.9143 88.0879 91.0329 87.9428 91.1568 87.8083C91.2108 87.7544 91.2643 87.6956 91.3236 87.6469C91.3342 87.6305 91.3453 87.6199 91.3559 87.6093C91.4094 87.5606 91.4633 87.5124 91.5226 87.4642C91.5819 87.4155 91.6354 87.3726 91.7 87.3297C91.7858 87.2651 91.8721 87.2058 91.9637 87.1576L92.825 86.6626L94.8383 87.8233Z" fill="#BA68C8"/>
<path d="M143.287 60.5599C143.271 60.5705 141.828 60.6954 141.812 60.706L94.8385 87.8233L94.8332 87.8286L93.9883 88.3183C93.2672 88.7328 92.6372 89.5185 92.2603 90.3692L90.2417 89.2066C90.6128 88.3506 91.2428 87.5649 91.9639 87.1557L92.8252 86.6607L139.788 59.5381C140.31 59.2421 140.805 59.1506 141.16 59.3443C141.645 59.6027 143.287 60.5599 143.287 60.5599Z" fill="#BA68C8"/>
<path opacity="0.6" d="M143.287 60.5599C143.271 60.5705 141.828 60.6954 141.812 60.706L94.8385 87.8233L94.8332 87.8286L93.9883 88.3183C93.2672 88.7328 92.6372 89.5185 92.2603 90.3692L90.2417 89.2066C90.6128 88.3506 91.2428 87.5649 91.9639 87.1557L92.8252 86.6607L139.788 59.5381C140.31 59.2421 140.805 59.1506 141.16 59.3443C141.645 59.6027 143.287 60.5599 143.287 60.5599Z" fill="white"/>
<path d="M91.8999 128.393C91.8999 128.409 91.8999 128.433 91.9081 128.449C91.924 129.728 92.8519 130.24 93.9797 129.592L141.814 101.971C142.958 101.308 143.894 99.6998 143.894 98.3719V61.9042C143.894 60.5927 142.982 60.0567 141.862 60.6804C141.846 60.6886 141.83 60.6963 141.814 60.7045L93.9874 88.3173C92.8355 88.9811 91.9076 90.589 91.9076 91.9169V100.772L91.8999 128.393Z" fill="#BA68C8"/>
<path opacity="0.3" d="M91.8999 128.393C91.8999 128.409 91.8999 128.433 91.9081 128.449C91.924 129.728 92.8519 130.24 93.9797 129.592L141.814 101.971C142.958 101.308 143.894 99.6998 143.894 98.3719V61.9042C143.894 60.5927 142.982 60.0567 141.862 60.6804C141.846 60.6886 141.83 60.6963 141.814 60.7045L93.9874 88.3173C92.8355 88.9811 91.9076 90.589 91.9076 91.9169V100.772L91.8999 128.393Z" fill="white"/>
<path d="M95.2205 88.044L94.5693 88.421C94.3539 88.5448 94.1278 88.6687 93.9558 88.7873C93.5952 89.0456 93.2776 89.3903 93.0192 89.7725C92.7556 90.1547 92.5512 90.5798 92.4162 91.0156C92.3517 91.2363 92.3088 91.4624 92.2871 91.6832C92.2707 91.8875 92.2765 92.1517 92.2707 92.3989C92.2601 95.128 92.2601 97.8513 92.2437 100.575L91.9097 122.498V91.9203C91.9097 91.2527 92.141 90.521 92.5179 89.8694C92.5608 89.7889 92.6148 89.7079 92.663 89.6274C92.8139 89.3908 92.9913 89.1753 93.1744 88.9762C93.4275 88.7073 93.6964 88.4865 93.9871 88.3197L94.8431 87.8247L95.2205 88.044Z" fill="white"/>
<path d="M92.516 89.8684C92.14 90.5191 91.9082 91.2532 91.9082 91.9174C91.9077 91.2532 92.14 90.5191 92.516 89.8684Z" fill="#BA68C8"/>
<path d="M141.71 60.7653L131.548 66.8582L121.197 72.9623C114.291 77.026 107.353 81.0252 100.431 85.0566L95.2207 88.0441L94.8438 87.8233L110.512 78.7805L141.71 60.7653Z" fill="white"/>
<path d="M103.048 88.9637L115.312 81.8826C115.532 81.7559 115.71 81.8585 115.71 82.1121V97.7241C115.71 97.9776 115.531 98.2861 115.312 98.4128L103.048 105.481C102.828 105.608 102.649 105.504 102.649 105.251V89.6525C102.649 89.399 102.828 89.0905 103.048 88.9637Z" fill="#FAFAFA"/>
<path d="M114.587 95.3835C114.47 94.3515 114.058 93.6314 113.467 93.2906C112.878 92.9518 112.112 92.9879 111.284 93.4665L106.944 95.972C105.282 96.9312 103.874 99.3749 103.641 101.703L103.456 103.547L114.772 97.0131L114.587 95.3835Z" fill="#455A64"/>
<path d="M109.386 93.6839C108.536 94.1746 107.766 94.2214 107.209 93.8994C106.652 93.5774 106.307 92.8877 106.307 91.9058C106.307 89.9422 107.686 87.5543 109.387 86.5725C110.237 86.0813 111.007 86.0351 111.564 86.357C112.121 86.6785 112.466 87.3688 112.466 88.3506C112.465 90.3143 111.087 92.7021 109.386 93.6839Z" fill="#455A64"/>
<path d="M94.5737 95.0649L98.3632 92.8737V95.368L94.5737 97.5592V95.0649Z" fill="#FAFAFA"/>
<path d="M94.5737 102.548L98.3632 100.357V102.851L94.5737 105.042V102.548Z" fill="#FAFAFA"/>
<path d="M94.5737 112.529L98.3632 110.338V112.832L94.5737 115.024V112.529Z" fill="#FAFAFA"/>
<path d="M94.5737 121.256L98.3632 119.065V121.559L94.5737 123.751V121.256Z" fill="#FAFAFA"/>
<path d="M94.5737 98.8057L98.3632 96.615V97.8619L94.5737 100.053V98.8057Z" fill="#FAFAFA"/>
<path d="M94.5732 116.268L98.3622 114.076V115.324L94.5732 117.515V116.268Z" fill="#FAFAFA"/>
<path d="M94.5737 108.784L98.3632 106.592V107.84L94.5737 110.031V108.784Z" fill="#FAFAFA"/>
<path d="M94.5737 101.3L98.3632 99.1093V99.7321L94.5737 101.924V101.3Z" fill="#FAFAFA"/>
<path d="M94.5737 110.882L98.3632 108.691V109.314L94.5737 111.505V110.882Z" fill="#FAFAFA"/>
<path d="M94.5742 106.913L98.3637 104.723V105.345L94.5742 107.537V106.913Z" fill="#FAFAFA"/>
<path d="M94.5737 119.386L98.3632 117.195V117.818L94.5737 120.009V119.386Z" fill="#FAFAFA"/>
<path d="M94.5684 105.669L98.3578 103.479V104.101L94.5684 106.293V105.669Z" fill="#FAFAFA"/>
<path d="M94.5767 118.137L98.3661 115.946V116.569L94.5767 118.76V118.137Z" fill="#FAFAFA"/>
<path d="M140.676 68.6975V76.1324C140.676 76.6886 140.286 77.3649 139.804 77.643L131.998 82.209C131.516 82.4871 131.125 82.2615 131.125 81.7053L131.126 74.2704C131.126 73.7142 131.516 73.0375 131.998 72.7593C134.129 71.5293 137.673 69.4239 139.804 68.1934C140.286 67.9157 140.676 68.1413 140.676 68.6975Z" fill="#BA68C8"/>
<path opacity="0.8" d="M140.676 68.6975V76.1324C140.676 76.6886 140.286 77.3649 139.804 77.643L131.998 82.209C131.516 82.4871 131.125 82.2615 131.125 81.7053L131.126 74.2704C131.126 73.7142 131.516 73.0375 131.998 72.7593C134.129 71.5293 137.673 69.4239 139.804 68.1934C140.286 67.9157 140.676 68.1413 140.676 68.6975Z" fill="white"/>
<path d="M140.676 74.1007L137.601 75.8909V72.5502L140.676 70.76V70.3055L131.126 75.8634V76.3179L134.202 74.5278V77.8685L131.126 79.6587V80.1132L140.676 74.5553V74.1007ZM137.205 76.1203L134.596 77.6386V74.2979L137.206 72.7796L137.205 76.1203Z" fill="#BA68C8"/>
<path d="M112.432 104.088C112.38 104.088 112.311 104.111 112.24 104.152L103.449 109.242C103.156 109.412 102.899 109.835 102.899 110.149C102.899 110.339 102.981 110.339 103.008 110.339C103.06 110.339 103.129 110.316 103.2 110.275L111.989 105.185C112.283 105.015 112.54 104.591 112.54 104.278C112.54 104.088 112.459 104.088 112.432 104.088ZM118.218 101.557C118.271 101.557 118.339 101.534 118.411 101.493L139.876 89.1001C140.17 88.9309 140.427 88.5082 140.427 88.1944C140.427 88.0045 140.345 88.0045 140.318 88.0045C140.266 88.0045 140.197 88.0272 140.125 88.0682L118.66 100.46C118.367 100.63 118.109 101.053 118.109 101.367C118.109 101.557 118.192 101.557 118.218 101.557ZM112.432 107.016C112.38 107.016 112.311 107.039 112.24 107.08L103.45 112.169C103.156 112.34 102.899 112.763 102.899 113.076C102.899 113.266 102.981 113.266 103.008 113.266C103.06 113.266 103.129 113.243 103.2 113.202L111.99 108.112C112.283 107.942 112.54 107.519 112.54 107.205C112.54 107.016 112.459 107.016 112.432 107.016ZM140.318 90.9322C140.266 90.9322 140.197 90.9548 140.125 90.9958L118.66 103.388C118.367 103.558 118.109 103.981 118.109 104.295C118.109 104.485 118.192 104.485 118.218 104.485C118.271 104.485 118.339 104.462 118.411 104.421L139.876 92.0278C140.17 91.8586 140.427 91.4359 140.427 91.1221C140.427 90.9322 140.345 90.9322 140.318 90.9322ZM112.432 109.943C112.38 109.943 112.311 109.966 112.24 110.008L103.45 115.097C103.156 115.267 102.899 115.691 102.899 116.004C102.899 116.194 102.981 116.194 103.007 116.194C103.06 116.194 103.129 116.172 103.2 116.13L111.989 111.04C112.283 110.87 112.54 110.446 112.54 110.133C112.54 109.943 112.459 109.943 112.432 109.943ZM140.319 93.8594C140.266 93.8594 140.198 93.8825 140.125 93.9235L118.66 106.316C118.366 106.485 118.109 106.908 118.109 107.222C118.109 107.412 118.192 107.412 118.218 107.412C118.271 107.412 118.339 107.39 118.411 107.348L139.876 94.9559C140.17 94.7858 140.427 94.3626 140.427 94.0493C140.427 93.8594 140.346 93.8594 140.319 93.8594ZM112.432 112.87C112.38 112.87 112.311 112.894 112.24 112.935L103.449 118.024C103.156 118.194 102.899 118.618 102.899 118.932C102.899 119.121 102.981 119.121 103.008 119.121C103.06 119.121 103.129 119.098 103.2 119.057L111.99 113.967C112.283 113.798 112.54 113.374 112.54 113.06C112.54 112.87 112.459 112.87 112.432 112.87ZM140.318 96.7875C140.266 96.7875 140.197 96.8107 140.125 96.8512L118.66 109.244C118.366 109.413 118.109 109.836 118.109 110.15C118.109 110.34 118.192 110.34 118.218 110.34C118.271 110.34 118.339 110.317 118.411 110.276L139.876 97.8836C140.17 97.7139 140.427 97.2907 140.427 96.9774C140.427 96.7875 140.345 96.7875 140.318 96.7875Z" fill="#BA68C8"/>
<g opacity="0.1">
<path d="M112.432 104.088C112.38 104.088 112.311 104.111 112.24 104.152L103.449 109.242C103.156 109.412 102.899 109.835 102.899 110.149C102.899 110.339 102.981 110.339 103.008 110.339C103.06 110.339 103.129 110.316 103.2 110.275L111.989 105.185C112.283 105.015 112.54 104.591 112.54 104.278C112.54 104.088 112.459 104.088 112.432 104.088ZM118.218 101.557C118.271 101.557 118.339 101.534 118.411 101.493L139.876 89.1001C140.17 88.9309 140.427 88.5082 140.427 88.1944C140.427 88.0045 140.345 88.0045 140.318 88.0045C140.266 88.0045 140.197 88.0272 140.125 88.0682L118.66 100.46C118.367 100.63 118.109 101.053 118.109 101.367C118.109 101.557 118.192 101.557 118.218 101.557ZM112.432 107.016C112.38 107.016 112.311 107.039 112.24 107.08L103.45 112.169C103.156 112.34 102.899 112.763 102.899 113.076C102.899 113.266 102.981 113.266 103.008 113.266C103.06 113.266 103.129 113.243 103.2 113.202L111.99 108.112C112.283 107.942 112.54 107.519 112.54 107.205C112.54 107.016 112.459 107.016 112.432 107.016ZM140.318 90.9322C140.266 90.9322 140.197 90.9548 140.125 90.9958L118.66 103.388C118.367 103.558 118.109 103.981 118.109 104.295C118.109 104.485 118.192 104.485 118.218 104.485C118.271 104.485 118.339 104.462 118.411 104.421L139.876 92.0278C140.17 91.8586 140.427 91.4359 140.427 91.1221C140.427 90.9322 140.345 90.9322 140.318 90.9322ZM112.432 109.943C112.38 109.943 112.311 109.966 112.24 110.008L103.45 115.097C103.156 115.267 102.899 115.691 102.899 116.004C102.899 116.194 102.981 116.194 103.007 116.194C103.06 116.194 103.129 116.172 103.2 116.13L111.989 111.04C112.283 110.87 112.54 110.446 112.54 110.133C112.54 109.943 112.459 109.943 112.432 109.943ZM140.319 93.8594C140.266 93.8594 140.198 93.8825 140.125 93.9235L118.66 106.316C118.366 106.485 118.109 106.908 118.109 107.222C118.109 107.412 118.192 107.412 118.218 107.412C118.271 107.412 118.339 107.39 118.411 107.348L139.876 94.9559C140.17 94.7858 140.427 94.3626 140.427 94.0493C140.427 93.8594 140.346 93.8594 140.319 93.8594ZM112.432 112.87C112.38 112.87 112.311 112.894 112.24 112.935L103.449 118.024C103.156 118.194 102.899 118.618 102.899 118.932C102.899 119.121 102.981 119.121 103.008 119.121C103.06 119.121 103.129 119.098 103.2 119.057L111.99 113.967C112.283 113.798 112.54 113.374 112.54 113.06C112.54 112.87 112.459 112.87 112.432 112.87ZM140.318 96.7875C140.266 96.7875 140.197 96.8107 140.125 96.8512L118.66 109.244C118.366 109.413 118.109 109.836 118.109 110.15C118.109 110.34 118.192 110.34 118.218 110.34C118.271 110.34 118.339 110.317 118.411 110.276L139.876 97.8836C140.17 97.7139 140.427 97.2907 140.427 96.9774C140.427 96.7875 140.345 96.7875 140.318 96.7875Z" fill="black"/>
</g>
<path opacity="0.1" d="M94.5687 87.9819L91.9076 96.0269V100.772L91.9042 112.427L101.269 84.1133L94.5687 87.9819ZM107.167 80.708L91.9004 126.864L91.8999 128.392C91.8999 128.408 91.8999 128.432 91.9081 128.448C91.924 129.728 92.8519 130.24 93.9797 129.592L101.524 125.236L118.396 74.2241L107.167 80.708ZM141.862 60.6804C141.846 60.6886 141.83 60.6963 141.814 60.7045L137.492 63.1998L120.62 114.209L131.85 107.725L143.893 71.3119V61.9042C143.894 60.5927 142.982 60.0567 141.862 60.6804ZM141.481 102.164L143.894 94.8687V78.4792L134.78 106.033L141.481 102.164ZM124.584 70.6525L107.711 121.664L111.062 119.729L127.934 68.7183L124.584 70.6525Z" fill="white"/>
<path d="M202.286 129.609C201.561 129.115 200.842 128.702 200.136 128.363C193.552 125.2 183.897 122.73 181.079 117.876C175.89 108.94 172.087 105.068 170.24 102.159C168.918 100.079 168.886 99.0052 161.999 98.0349C155.106 97.0579 145.996 96.6338 143.678 96.6C141.36 96.56 139.053 96.3793 134.467 97.4729C129.887 98.5671 127.377 99.091 125.279 99.9427C123.18 100.794 122.026 104.373 120.989 106.521C119.953 108.668 119.512 110.524 121.058 111.223C122.598 111.923 125.774 112.172 128.926 108.94L131.426 108.551C131.426 108.551 125.796 111.884 124.802 113.407C123.816 114.925 123.133 118.06 124.007 119.871C124.88 121.682 126.262 124.4 126.262 124.4C126.262 124.4 124.739 127.187 126.713 129.81C128.681 132.427 129.966 133.944 129.966 133.944C129.966 133.944 128.172 134.764 126.642 136.22C125.145 137.642 126.338 140.105 129.806 140.556C132.536 140.911 137.157 139.13 140.523 138.766C143.888 138.408 148.832 137.305 151.127 138.42C151.862 138.779 153.283 140.134 154.61 141.186C155.938 142.239 157.166 142.981 158.649 144.483C161.61 147.485 163.093 150.631 168.604 152.515C174.121 154.394 178.341 153.61 182.334 156.392C185.062 158.289 197.092 166.004 197.768 166.465C206.067 172.136 213.5 167.39 214.406 155.825C215.313 144.254 210.57 135.3 202.286 129.609ZM131.293 121.18L131.022 120.475L134.929 117.673C134.929 117.673 138.105 117.773 140.675 118.123C138.284 118.225 137.019 118.587 135.86 119.156C134.399 119.878 131.293 121.18 131.293 121.18ZM136.935 130.58C134.208 131.45 133.119 132.147 133.119 132.147L132.911 130.006C132.911 130.006 135.874 128.798 136.5 128.748C137.131 128.705 142.93 128.87 145.101 128.75C140.875 129.331 138.943 129.937 136.935 130.58Z" fill="#FFBDA7"/>
<path d="M172.178 153.454C174.776 153.563 178.073 153.387 180.572 153.521C181.564 153.575 182.566 153.703 183.485 154.079C184.618 154.541 185.569 155.356 186.438 156.218C188.456 158.219 189.811 159.367 192.3 161.656C194.204 163.407 195.382 164.681 197.769 166.466C197.093 166.005 185.063 158.289 182.334 156.392C179.25 154.243 176.027 154.219 172.178 153.454Z" fill="#F0997A"/>
<path d="M199.652 127.163L191.368 123.75C191.368 123.75 193.607 130.88 192.264 141.818C190.921 152.756 184.973 159.473 184.973 159.473L192.313 164.444C192.313 164.444 198.42 159.278 200.212 146.782C202.003 134.286 199.652 127.163 199.652 127.163Z" fill="#F0F0F0"/>
<path d="M196.546 125.045C196.546 125.045 203.319 143.97 189.364 162.991L204.634 172.477C204.634 172.477 215.363 173.132 218.209 159.96C220.607 148.859 218.572 136.427 210.752 131.624L196.546 125.045Z" fill="#37474F"/>
<path d="M152.062 105.676C148.99 105.135 145.943 104.51 142.857 104.018C141.84 103.845 140.703 103.751 139.65 104.028C138.03 104.478 136.53 105.215 135.1 106.075C133 106.736 130.079 107.244 128.463 107.266C126.339 107.296 124.367 105.884 124.508 106.092C124.649 106.299 125.837 107.689 124.759 109.412C124.101 110.462 123.304 111.251 122.372 111.596C124.069 111.85 126.503 111.425 128.927 108.941L131.426 108.552C131.426 108.552 136.786 105.344 139.779 104.594C140.757 104.361 141.739 104.443 142.763 104.625C145.834 105.118 148.922 105.628 152.02 105.974C153.057 106.049 154.106 106.23 155.142 106.095C154.104 106.084 153.084 105.854 152.062 105.676ZM131.022 120.475L134.929 117.673C136.918 117.744 138.839 117.888 140.675 118.123C143.353 117.884 148.891 117.373 150.634 115.905C148.176 116.648 145.029 117.266 141.797 116.821C138.565 116.376 136.33 115.48 134.676 116.359C133.021 117.238 130.034 119.829 129.715 120.198C128.551 121.545 126.817 122.239 126.263 124.4C127.007 123.075 131.295 121.18 131.295 121.18L131.022 120.475ZM137.374 127.704C136.401 127.804 133.698 128.69 132.563 129.171C131.427 129.653 132.113 130.98 130.76 131.444C129.407 131.909 126.907 130.063 126.907 130.063L126.906 130.064C128.761 132.518 129.964 133.945 129.964 133.945L133.121 132.149C133.267 131.696 133.197 130.982 132.911 130.007C132.911 130.007 135.874 128.798 136.5 128.748C137.131 128.705 142.93 128.87 145.101 128.75C146.648 128.694 149.741 127.312 150.476 125.218C147.731 127.198 147.378 127.785 144.649 127.879C141.919 127.973 138.348 127.605 137.374 127.704Z" fill="#F0997A"/>
<path d="M138.608 106.833C138.649 106.796 138.625 106.641 138.559 106.682C137.566 107.3 136.899 108.267 136.474 109.346C135.955 110.665 135.977 112.032 136.049 113.425C136.05 113.445 136.07 113.431 136.07 113.417C136.088 112.142 136.321 110.816 136.746 109.611C137.12 108.55 137.764 107.58 138.608 106.833ZM138.419 108.34C138.17 108.679 137.957 109.044 137.711 109.386C137.595 109.548 137.475 109.708 137.35 109.865C137.22 110.029 137.122 110.212 137.026 110.398C137.006 110.436 137.016 110.565 137.085 110.515C137.251 110.394 137.405 110.264 137.53 110.099C137.656 109.933 137.779 109.765 137.898 109.594C138.139 109.246 138.382 108.891 138.559 108.505C138.592 108.432 138.496 108.234 138.419 108.34ZM136.314 107.714C135.893 107.979 135.732 108.471 135.623 108.932C135.552 109.231 135.505 109.534 135.471 109.839C135.433 110.191 135.45 110.554 135.451 110.908C135.451 110.968 135.512 110.951 135.517 110.9C135.578 110.344 135.714 109.794 135.822 109.245C135.915 108.772 136.044 108.276 136.421 107.946C136.502 107.874 136.428 107.643 136.314 107.714Z" fill="#F0997A"/>
<path d="M135.763 122.928C135.72 122.562 135.753 122.186 135.805 121.822C135.814 121.759 135.717 121.637 135.678 121.737C135.539 122.099 135.512 122.479 135.545 122.863C135.58 123.285 135.697 123.71 135.941 124.061C136 124.146 136.039 124.003 136.023 123.955C135.909 123.621 135.805 123.281 135.763 122.928ZM138.374 123.258C138.365 123.101 138.352 122.946 138.335 122.79C138.301 122.468 138.233 122.147 138.156 121.832C138.145 121.787 138.109 121.719 138.052 121.732C137.995 121.744 137.988 121.821 137.997 121.866C138.051 122.159 138.082 122.454 138.112 122.75C138.127 122.904 138.138 123.058 138.143 123.213C138.15 123.377 138.151 123.556 138.199 123.713C138.22 123.779 138.307 123.814 138.34 123.738C138.401 123.599 138.383 123.407 138.374 123.258ZM137.084 122.978C137.061 122.582 137.024 122.187 136.974 121.794C136.926 121.425 136.891 121.038 136.771 120.685C136.739 120.592 136.58 120.517 136.58 120.67C136.579 121.05 136.677 121.437 136.719 121.815C136.763 122.211 136.794 122.608 136.81 123.006C136.843 123.795 136.774 124.595 136.839 125.379C136.845 125.447 136.926 125.509 136.954 125.417C137.077 125.019 137.085 124.587 137.097 124.174C137.108 123.775 137.108 123.377 137.084 122.978Z" fill="#F0997A"/>
<path d="M138.357 134.062C138.307 133.475 138.291 132.792 137.941 132.291C137.859 132.174 137.782 132.305 137.797 132.395C137.843 132.677 137.939 132.949 137.975 133.235C138.01 133.51 138.024 133.786 138.041 134.062C138.082 134.72 138.09 135.419 138.277 136.055C138.299 136.13 138.394 136.148 138.411 136.06C138.474 135.752 138.453 135.415 138.432 135.103C138.409 134.755 138.386 134.408 138.357 134.062ZM137.216 134.738C137.163 134.647 137.108 134.556 137.058 134.463C136.963 134.287 136.89 134.101 136.845 133.904C136.839 133.874 136.814 133.836 136.778 133.845C136.743 133.854 136.728 133.904 136.733 133.935C136.765 134.162 136.825 134.394 136.927 134.599C137.027 134.798 137.166 135 137.353 135.126C137.405 135.16 137.416 135.041 137.399 135.015C137.34 134.921 137.272 134.834 137.216 134.738ZM139.42 134.061C139.396 133.687 139.328 133.312 139.248 132.947C139.233 132.878 139.175 132.79 139.095 132.793C139.013 132.797 139 132.89 139.01 132.953C139.064 133.307 139.086 133.662 139.098 134.02C139.105 134.194 139.105 134.368 139.1 134.543C139.097 134.644 139.11 134.735 139.119 134.835C139.127 134.94 139.126 135.027 139.171 135.125C139.191 135.171 139.263 135.229 139.312 135.184C139.386 135.116 139.385 135.028 139.402 134.934C139.421 134.834 139.438 134.745 139.439 134.644C139.44 134.45 139.432 134.255 139.42 134.061Z" fill="#F0997A"/>
<path d="M140.255 97.8272C139.275 99.239 138.808 100.961 138.835 102.671C138.836 102.727 138.901 102.767 138.913 102.692C139.171 101.059 139.718 99.5132 140.461 98.0393C140.521 97.9202 140.36 97.6763 140.255 97.8272ZM138.546 99.0891C138.382 99.3012 138.274 99.5778 138.187 99.8289C138.097 100.088 138.01 100.38 138.027 100.657C138.03 100.706 138.105 100.793 138.138 100.713C138.186 100.596 138.202 100.467 138.234 100.343C138.268 100.215 138.3 100.086 138.343 99.9596C138.384 99.8376 138.432 99.7181 138.485 99.6014C138.54 99.4805 138.608 99.3662 138.662 99.2457C138.683 99.2009 138.675 99.1407 138.645 99.1021C138.62 99.0708 138.575 99.051 138.546 99.0891ZM141.038 99.6646C140.983 99.6284 140.909 99.6468 140.896 99.7176C140.839 100.021 140.742 100.312 140.601 100.587C140.568 100.651 140.538 100.717 140.504 100.781C140.468 100.848 140.421 100.912 140.388 100.98C140.355 101.051 140.325 101.114 140.28 101.18C140.233 101.249 140.184 101.316 140.142 101.389C140.119 101.428 140.143 101.588 140.215 101.54C140.28 101.496 140.333 101.446 140.386 101.389C140.446 101.326 140.509 101.264 140.567 101.201C140.672 101.087 140.762 100.927 140.828 100.788C140.966 100.497 141.062 100.186 141.113 99.868C141.125 99.7938 141.104 99.7075 141.038 99.6646Z" fill="#F0997A"/>
<path d="M170.019 113.384C169.495 112.321 168.832 111.314 168.228 110.292C167.693 109.387 167.02 108.449 166.138 107.858C165.478 107.416 164.724 107.134 163.944 106.997C163.033 106.836 162.1 106.936 161.181 107.015C161.061 107.025 160.927 107.044 160.85 107.137C161.119 107.254 161.411 107.302 161.7 107.349C162.144 107.421 162.589 107.493 163.033 107.566C163.981 107.72 165.002 107.987 165.75 108.626C166.494 109.261 166.986 110.149 167.576 110.916C168.291 111.847 168.978 112.813 169.742 113.7C169.969 113.963 170.123 113.595 170.019 113.384ZM163.194 116.517C162.821 116.144 162.36 115.856 161.869 115.67C160.826 115.274 159.679 115.276 158.565 115.335C158.393 115.345 158.157 115.441 158.213 115.605C159.637 116.067 161.3 116.203 162.499 117.177C162.916 117.516 163.21 117.997 163.694 118.244C164.115 118.458 163.972 117.854 163.918 117.683C163.821 117.377 163.669 117.093 163.474 116.838C163.388 116.725 163.294 116.618 163.194 116.517ZM159.785 127.097C159.346 126.729 158.734 126.415 158.538 126.358C157.804 126.145 157.015 126.196 156.267 126.358C156.156 126.382 156.016 126.489 156.09 126.575C156.11 126.597 156.138 126.607 156.166 126.616C157.108 126.918 158.209 127.018 159.058 127.548C159.282 127.688 159.487 127.855 159.707 128.001C159.839 128.089 160.027 128.164 160.142 128.054C160.424 127.785 160.172 127.42 159.785 127.097Z" fill="#F0997A"/>
<path d="M121.415 105.588C122.701 106.466 122.816 108.171 122.575 109.004C122.359 109.748 122.046 110.13 121.645 110.64C120.708 111.836 119.594 110.719 119.925 109.089C120.46 107.642 120.713 107.235 121.415 105.588Z" fill="#F0997A"/>
<path opacity="0.5" d="M121.415 105.588C122.701 106.466 122.816 108.171 122.575 109.004C122.359 109.748 122.046 110.13 121.645 110.64C120.708 111.836 119.594 110.719 119.925 109.089C120.46 107.642 120.713 107.235 121.415 105.588Z" fill="white"/>
<path d="M122.672 108.347C122.137 107.834 121.602 107.038 121.221 106.038C121.282 105.898 121.346 105.751 121.415 105.588C122.419 106.273 122.708 107.462 122.672 108.347Z" fill="#F0997A"/>
<path d="M129.288 134.328C128.66 135.556 128.871 136.39 129.076 137.241C128.445 137.825 127.585 138.418 126.938 138.515C125.927 138.667 125.327 137.049 126.811 135.945C128.482 134.704 129.288 134.328 129.288 134.328Z" fill="#F0997A"/>
<path opacity="0.5" d="M129.288 134.328C128.66 135.556 128.871 136.39 129.076 137.241C128.445 137.825 127.585 138.418 126.938 138.515C125.927 138.667 125.327 137.049 126.811 135.945C128.482 134.704 129.288 134.328 129.288 134.328Z" fill="white"/>
<path d="M129.288 134.328C128.338 134.782 127.216 136.398 129.075 137.241C128.871 136.39 128.66 135.556 129.288 134.328Z" fill="#F0997A"/>
</svg>
