<svg width="737" height="474" viewBox="0 0 737 474" fill="none" xmlns="http://www.w3.org/2000/svg">
<path d="M540.394 221.538C561.085 221.538 577.859 205.051 577.859 184.714C577.859 164.376 561.085 147.889 540.394 147.889C519.702 147.889 502.928 164.376 502.928 184.714C502.928 205.051 519.702 221.538 540.394 221.538Z" fill="#E0E0E0"/>
<path d="M529.752 185.215V171.083C529.752 168.614 532.471 167.072 534.646 168.307L547.097 175.372L559.548 182.438C561.723 183.672 561.723 186.758 559.548 187.992L547.097 195.057L534.646 202.123C532.471 203.357 529.752 201.814 529.752 199.346V185.215Z" fill="white"/>
<path d="M493.954 43.3744C498.182 28.0305 488.954 12.2231 473.343 8.06757C457.732 3.91207 441.649 12.9821 437.421 28.326C433.193 43.6699 442.421 59.4773 458.032 63.6328C473.644 67.7883 489.726 58.7183 493.954 43.3744Z" fill="#F5F5F5"/>
<path d="M457.367 35.5834L458.251 24.5718C458.406 22.6487 460.621 21.611 462.239 22.7033L471.5 28.9617L480.761 35.22C482.378 36.3134 482.185 38.7179 480.413 39.5477L470.267 44.3009L460.123 49.0542C458.351 49.8839 456.329 48.5182 456.483 46.595L457.367 35.5834Z" fill="white"/>
<path d="M18.1551 465.173C16.7918 464.024 13.7521 460.385 16.096 456.15C16.9554 454.598 18.7812 453.831 20.4335 453.147C22.0859 452.463 23.8222 451.869 25.1899 450.725C27.7683 448.568 28.4805 444.987 30.1917 442.109C32.1571 438.808 35.825 436.333 39.6991 436.506C44.137 436.704 47.8376 440.267 49.5151 444.328C51.1925 448.39 51.2514 452.9 51.2863 457.287C51.3059 459.712 51.1958 462.446 49.3842 464.084C47.7144 465.595 45.1993 465.613 42.9351 465.544C34.8521 465.3 26.7681 465.057 18.6841 464.812" fill="#F5F5F5"/>
<path d="M64.5378 399.629H0.762207L12.2502 466.958C12.7519 469.899 14.9169 472.165 17.6948 472.953C17.7679 472.975 17.8442 472.993 17.9184 473.013C18.1082 473.061 18.2914 473.123 18.4866 473.158C18.9065 473.243 19.3417 473.286 19.7834 473.305C19.7867 473.326 19.7911 473.349 19.7932 473.369L20.1041 473.321C20.1052 473.321 20.1052 473.321 20.1063 473.321H48.5301C49.0646 473.321 49.587 473.266 50.092 473.167C53.449 472.657 56.1353 470.009 56.5443 466.586L62.0828 420.196L62.3325 418.351H62.3031L64.4964 399.979L64.5378 399.629ZM52.5067 442.577H45.9616L46.6215 423.036H54.2049L52.5067 442.577ZM54.8396 423.036H61.1055L58.7726 442.577H53.1404L54.8396 423.036ZM36.1423 464.239L35.7442 447.264H45.1698L44.5961 464.239H36.1423ZM25.9533 447.264H35.1117L35.5098 464.239H27.2959L25.9533 447.264ZM26.6601 464.239H18.9818C18.2521 459.656 17.3022 453.699 16.2748 447.264H25.3175L26.6601 464.239ZM25.5825 442.577L24.037 423.036H34.5434L35.0015 442.577H25.5825ZM35.6341 442.577L35.176 423.036H45.9878L45.3268 442.577H35.6341ZM35.0669 418.351L34.6427 400.254H46.7578L46.1459 418.351H35.0669ZM34.4333 418.351H23.6662L22.2353 400.254H34.009L34.4333 418.351ZM23.0325 418.351H11.6405C11.237 415.852 10.8552 413.486 10.5095 411.357C9.32067 404.041 8.87458 401.29 8.627 400.254H21.6016L23.0325 418.351ZM23.4034 423.036L24.9488 442.577H15.5276C15.2103 440.594 14.8896 438.589 14.569 436.581C13.8306 431.968 13.0911 427.358 12.3963 423.036H23.4034ZM14.8863 442.577H8.73171L5.39754 423.036H11.7539C12.7257 429.076 13.8022 435.796 14.8863 442.577ZM15.6356 447.264C16.5736 453.138 17.4974 458.93 18.3416 464.239H12.428L9.53117 447.264H15.6356ZM45.2298 464.239L45.8035 447.264H52.0999L50.6242 464.239H45.2298ZM46.7796 418.351L47.3915 400.254H56.1844L54.6117 418.351H46.7796ZM8.02277 400.254C8.27581 401.563 9.43955 408.683 10.9992 418.351H4.59808L1.51041 400.254H8.02277ZM56.1877 464.239H51.259L52.7347 447.264H58.2142L56.1877 464.239ZM61.665 418.351H55.2476L56.8203 400.254H63.8256L61.665 418.351Z" fill="#E0E0E0"/>
<path d="M154.069 36.2609H25.3843V149.419H154.069V36.2609Z" fill="#FAFAFA"/>
<path d="M154.069 149.419C154.069 149.419 154.047 148.693 154.036 147.319C154.028 145.931 154.017 143.9 154.002 141.256C153.985 135.943 153.96 128.177 153.927 118.286C153.891 98.5141 153.84 70.2626 153.776 36.2609L154.068 36.5471C117.008 36.5621 72.7791 36.5793 25.3951 36.5986H25.3831L25.7267 36.2609C25.7114 77.4289 25.6972 116.169 25.6852 149.419L25.382 149.121C63.7713 149.183 95.9023 149.235 118.456 149.271C129.74 149.305 138.625 149.331 144.707 149.349C147.737 149.364 150.066 149.376 151.657 149.385C152.436 149.392 153.03 149.398 153.449 149.402C153.854 149.407 154.069 149.419 154.069 149.419C154.069 149.419 153.878 149.43 153.485 149.436C153.074 149.441 152.49 149.446 151.726 149.453C150.149 149.462 147.84 149.473 144.835 149.489C138.768 149.507 129.907 149.534 118.653 149.567C96.0518 149.603 63.8531 149.655 25.3842 149.717L25.081 149.718V149.42C25.069 116.17 25.0548 77.4311 25.0396 36.262V35.9232H25.3842H25.3962C72.7802 35.9425 117.009 35.9597 154.069 35.9747H154.361L154.36 36.262C154.298 70.3387 154.246 98.6534 154.209 118.468C154.177 128.332 154.152 136.076 154.134 141.374C154.119 143.995 154.108 146.006 154.1 147.382C154.09 148.736 154.069 149.419 154.069 149.419Z" fill="#E0E0E0"/>
<path d="M74.7258 56.3663C74.7258 56.5528 67.9528 56.704 59.5993 56.704C51.2427 56.704 44.4707 56.5528 44.4707 56.3663C44.4707 56.1797 51.2427 56.0286 59.5993 56.0286C67.9528 56.0286 74.7258 56.1797 74.7258 56.3663Z" fill="#E0E0E0"/>
<path d="M129.252 64.8629C129.252 65.0494 110.644 65.2006 87.6952 65.2006C64.7378 65.2006 46.1343 65.0494 46.1343 64.8629C46.1343 64.6764 64.7389 64.5252 87.6952 64.5252C110.644 64.5252 129.252 64.6764 129.252 64.8629Z" fill="#E0E0E0"/>
<path d="M50.1141 79.2556H44.6924V84.5845H50.1141V79.2556Z" fill="#E0E0E0"/>
<path d="M63.4593 79.2556H58.0376V84.5845H63.4593V79.2556Z" fill="#E0E0E0"/>
<path d="M77.0511 79.0133H71.6294V84.3422H77.0511V79.0133Z" fill="#E0E0E0"/>
<path d="M90.1492 79.2556H84.7275V84.5845H90.1492V79.2556Z" fill="#E0E0E0"/>
<path d="M103.494 79.2556H98.0728V84.5845H103.494V79.2556Z" fill="#E0E0E0"/>
<path d="M116.84 79.2556H111.418V84.5845H116.84V79.2556Z" fill="#E0E0E0"/>
<path d="M130.185 79.2556H124.764V84.5845H130.185V79.2556Z" fill="#EBEBEB"/>
<path d="M50.1141 90.5834H44.6924V95.9123H50.1141V90.5834Z" fill="#EBEBEB"/>
<path d="M63.4593 90.5834H58.0376V95.9123H63.4593V90.5834Z" fill="#E0E0E0"/>
<path d="M76.805 90.5834H71.3833V95.9123H76.805V90.5834Z" fill="#EBEBEB"/>
<path d="M90.1492 90.5834H84.7275V95.9123H90.1492V90.5834Z" fill="#E0E0E0"/>
<path d="M103.494 90.5834H98.0728V95.9123H103.494V90.5834Z" fill="#E0E0E0"/>
<path d="M117.086 90.3422H111.665V95.6711H117.086V90.3422Z" fill="#E0E0E0"/>
<path d="M130.185 90.5834H124.764V95.9123H130.185V90.5834Z" fill="#E0E0E0"/>
<path d="M50.1141 101.912H44.6924V107.241H50.1141V101.912Z" fill="#E0E0E0"/>
<path d="M63.7059 101.67H58.2842V106.999H63.7059V101.67Z" fill="#E0E0E0"/>
<path d="M76.805 101.912H71.3833V107.241H76.805V101.912Z" fill="#E0E0E0"/>
<path d="M90.1492 101.912H84.7275V107.241H90.1492V101.912Z" fill="#EBEBEB"/>
<path d="M103.494 101.912H98.0728V107.241H103.494V101.912Z" fill="#E0E0E0"/>
<path d="M116.84 101.912H111.418V107.241H116.84V101.912Z" fill="#E0E0E0"/>
<path d="M130.185 101.912H124.764V107.241H130.185V101.912Z" fill="#E0E0E0"/>
<path d="M50.1141 113.24H44.6924V118.569H50.1141V113.24Z" fill="#E0E0E0"/>
<path d="M63.4593 113.24H58.0376V118.569H63.4593V113.24Z" fill="#E0E0E0"/>
<path d="M76.805 113.24H71.3833V118.569H76.805V113.24Z" fill="#E0E0E0"/>
<path d="M90.3953 112.999H84.9736V118.328H90.3953V112.999Z" fill="#E0E0E0"/>
<path d="M103.494 113.24H98.0728V118.569H103.494V113.24Z" fill="#E0E0E0"/>
<path d="M116.84 113.24H111.418V118.569H116.84V113.24Z" fill="#EBEBEB"/>
<path d="M130.185 113.24H124.764V118.569H130.185V113.24Z" fill="#E0E0E0"/>
<path d="M50.1141 124.569H44.6924V129.898H50.1141V124.569Z" fill="#E0E0E0"/>
<path d="M63.4593 124.569H58.0376V129.898H63.4593V124.569Z" fill="#EBEBEB"/>
<path d="M76.805 124.569H71.3833V129.898H76.805V124.569Z" fill="#E0E0E0"/>
<path d="M90.1492 124.569H84.7275V129.898H90.1492V124.569Z" fill="#E0E0E0"/>
<path d="M103.494 124.569H98.0728V129.898H103.494V124.569Z" fill="#E0E0E0"/>
<path d="M117.086 124.327H111.665V129.656H117.086V124.327Z" fill="#E0E0E0"/>
<path d="M130.185 124.569H124.764V129.898H130.185V124.569Z" fill="#E0E0E0"/>
<path d="M736.431 28.3099H637.878V168.713H736.431V28.3099Z" fill="#E0E0E0"/>
<path d="M731.494 28.3099H632.941V168.713H731.494V28.3099Z" fill="#F5F5F5"/>
<path d="M719.249 43.5162H645.185V153.506H719.249V43.5162Z" fill="white"/>
<path d="M719.249 153.507C719.249 153.507 719.239 153.32 719.235 152.968C719.231 152.605 719.226 152.087 719.22 151.409C719.214 150.027 719.204 148.003 719.191 145.376C719.176 140.104 719.153 132.423 719.124 122.719C719.095 103.324 719.052 75.8595 719.003 43.5173L719.249 43.7585C696.621 43.7649 671.547 43.7724 645.195 43.7799H645.186L645.454 43.5162C645.433 85.009 645.415 123.266 645.4 153.506L645.186 153.295C667.741 153.342 686.229 153.379 699.094 153.406C705.529 153.428 710.555 153.447 713.988 153.459C715.694 153.47 717.002 153.478 717.897 153.483C718.782 153.492 719.249 153.507 719.249 153.507C719.249 153.507 718.812 153.522 717.942 153.529C717.055 153.535 715.761 153.542 714.072 153.553C710.651 153.565 705.642 153.583 699.226 153.606C686.329 153.633 667.795 153.671 645.185 153.717H644.971V153.507C644.956 123.267 644.937 85.0101 644.917 43.5173V43.2536H645.185H645.194C671.546 43.2611 696.621 43.2686 719.248 43.275H719.494V43.5162C719.445 75.9238 719.403 103.443 719.373 122.876C719.345 132.557 719.322 140.22 719.307 145.478C719.293 148.084 719.284 150.092 719.277 151.463C719.271 152.13 719.266 152.639 719.263 152.996C719.259 153.339 719.249 153.507 719.249 153.507Z" fill="#E0E0E0"/>
<path d="M731.769 28.3099C731.827 28.3538 731.158 29.3133 730.012 30.8184C728.867 32.3234 727.243 34.3699 725.388 36.5836C723.533 38.7973 721.8 40.7569 720.517 42.1494C719.233 43.5419 718.403 44.3717 718.349 44.3245C718.292 44.2762 719.021 43.3597 720.229 41.9061C721.55 40.3302 723.176 38.392 724.973 36.248C726.77 34.104 728.394 32.1637 729.714 30.5879C730.935 29.1439 731.711 28.2649 731.769 28.3099Z" fill="#E0E0E0"/>
<path d="M719.626 153.152C723.305 158.901 727.647 164.239 732.544 169.031L719.626 153.152Z" fill="white"/>
<path d="M732.544 169.031C732.496 169.08 731.616 168.33 730.291 167.018C728.967 165.707 727.213 163.819 725.418 161.616C723.626 159.411 722.139 157.313 721.129 155.755C720.118 154.196 719.567 153.188 719.626 153.153C719.692 153.112 720.355 154.048 721.443 155.547C722.529 157.045 724.056 159.096 725.837 161.288C727.62 163.478 729.319 165.393 730.567 166.764C731.816 168.134 732.599 168.976 732.544 169.031Z" fill="#E0E0E0"/>
<path d="M632.927 168.601C637.229 163.383 641.532 158.166 645.836 152.947L632.927 168.601Z" fill="white"/>
<path d="M645.836 152.947C645.95 153.038 643.154 156.618 639.59 160.94C636.024 165.263 633.041 168.694 632.927 168.601C632.812 168.51 635.608 164.932 639.173 160.609C642.737 156.286 645.72 152.856 645.836 152.947Z" fill="#E0E0E0"/>
<path d="M632.941 28.3099C633.057 28.2198 635.863 31.5162 639.207 35.6713C642.552 39.8285 645.169 43.2707 645.053 43.3608C644.937 43.4508 642.132 40.1555 638.787 35.9983C635.442 31.8432 632.826 28.3999 632.941 28.3099Z" fill="#E0E0E0"/>
<path d="M696.174 65.8492H671.374V135.056H696.174V65.8492Z" fill="#E0E0E0"/>
<path d="M171.912 367.843C167.005 364.815 161.383 362.913 155.619 362.331C152.957 362.062 150.048 362.138 147.913 363.724C147.46 364.06 147.017 364.558 147.119 365.107C147.193 365.511 147.541 365.803 147.872 366.053C154.501 371.025 164.529 371.652 171.912 367.843Z" fill="#E0E0E0"/>
<path d="M171.493 367.391C167.804 364.562 164.095 361.714 160.97 358.291C157.845 354.868 155.306 350.805 154.373 346.298C154.09 344.932 154.002 343.37 154.894 342.286C163.282 348.724 169.871 357.052 171.493 367.391Z" fill="#E0E0E0"/>
<path d="M171.824 367.782C171.193 363.272 170.966 358.636 172.02 354.202C173.073 349.769 175.527 345.525 179.378 342.997C180.828 346.326 180.205 350.163 179.184 353.643C177.606 359.021 175.131 364.143 171.887 368.744" fill="#E0E0E0"/>
<path d="M180.047 382.264C175.055 382.86 170.708 385.447 166.981 388.763C163.254 392.081 160.605 396.55 159.508 401.373C164.404 401.076 168.557 397.683 171.571 393.877C174.583 390.072 176.671 385.897 179.98 382.338" fill="#E0E0E0"/>
<path d="M181.833 384.579C177.813 374.846 179.269 363.117 185.555 354.619C188.398 364.562 187.353 375.792 181.833 384.579Z" fill="#E0E0E0"/>
<path d="M192.698 397.294C188.168 397.018 183.562 398.079 179.628 400.305C175.694 402.53 172.448 405.912 170.416 409.901C170.14 410.444 169.896 411.133 170.266 411.618C170.587 412.041 171.208 412.079 171.744 412.045C176.135 411.765 180.026 409.169 183.238 406.212C186.449 403.256 189.247 399.839 192.796 397.283" fill="#E0E0E0"/>
<path d="M192.351 396.603C190.013 389.253 189.868 381.246 191.936 373.819C192.753 370.886 194.124 367.798 196.884 366.423C197.119 366.306 197.393 366.201 197.64 366.292C197.875 366.379 198.01 366.615 198.118 366.837C199.1 368.852 199.386 371.141 199.284 373.373C199.183 375.606 198.711 377.803 198.242 379.99C197.373 384.035 196.911 388.381 194.654 391.869C194.119 392.697 193.646 393.591 193.219 394.478C192.791 395.365 192.788 395.677 192.397 396.382" fill="#E0E0E0"/>
<path d="M221.11 400.814C218.98 392.848 221.24 383.19 226.348 376.66C226.724 376.178 227.223 375.664 227.837 375.719C228.777 375.805 229.021 377.037 228.979 377.964C228.61 386.105 225.847 394.127 221.11 400.814Z" fill="#E0E0E0"/>
<path d="M223.703 402.556C233.55 405.074 244.847 402.627 253.036 396.692C248.182 394.275 242.46 393.584 237.157 394.776C231.853 395.969 227.005 398.305 223.703 402.556Z" fill="#E0E0E0"/>
<path d="M225.89 397.252C231.406 388.414 241.977 382.647 252.512 382.121C251.298 386.332 247.778 389.606 243.805 391.584C239.832 393.562 235.399 394.423 231.026 395.258C229.325 395.581 226.992 395.938 225.89 397.252Z" fill="#E0E0E0"/>
<path d="M221.658 371.514C223.151 366.485 224.653 361.412 225.063 356.19C225.473 350.967 224.715 345.515 221.958 341.032C216.807 350.829 216.286 362.276 221.504 372.039" fill="#E0E0E0"/>
<path d="M239.001 362.898C245.025 352.137 257.315 343.541 269.751 342.336C264.954 354.078 251.872 363.151 239.001 362.898Z" fill="#E0E0E0"/>
<path d="M235.212 365.007C244.196 366.352 251.85 371.992 260.246 375.411C262.041 376.142 263.978 376.724 265.905 376.476C267.833 376.228 269.734 374.957 270.166 373.095C270.524 371.548 269.808 369.907 268.679 368.773C267.55 367.64 266.058 366.932 264.568 366.322C255.424 362.58 245.617 362.487 235.985 364.756" fill="#E0E0E0"/>
<path d="M230.013 371.201C232.047 371.773 232.742 372.809 234.352 374.156C239.817 378.731 246.371 382.04 253.337 383.741C254.062 383.918 255.013 383.989 255.373 383.344C255.687 382.782 255.29 382.101 254.882 381.599C251.963 378.01 247.8 375.555 243.42 373.952C239.039 372.348 235.244 370.415 230.014 370.83" fill="#E0E0E0"/>
<path d="M224.146 333.795C231.451 340.497 241.742 343.938 251.69 343.005C252.142 342.963 252.635 342.892 252.944 342.562C253.637 341.822 252.805 340.677 251.997 340.058C243.899 333.852 234.091 331.28 224.146 333.795Z" fill="#E0E0E0"/>
<path d="M231.101 331.292C240.758 324.177 254.001 322.028 265.471 325.718C261.142 329.911 255.137 332.166 249.093 332.786C243.049 333.404 236.996 332.745 231.101 331.292Z" fill="#E0E0E0"/>
<path d="M228.338 314.104C227.543 306.159 228.058 299.888 227.498 291.906C227.453 291.268 227.313 290.501 226.707 290.271C225.862 289.952 225.157 290.972 224.88 291.819C222.473 299.177 223.788 307.616 228.327 313.928" fill="#E0E0E0"/>
<path d="M227.755 314.981C233.233 311.651 237.343 307.302 241.144 302.191C243.789 298.634 246.018 294.374 245.417 290.008C241.703 289.935 238.174 291.948 235.759 294.721C233.343 297.494 231.908 300.962 230.836 304.457C229.764 307.954 229.014 311.546 227.755 314.981Z" fill="#E0E0E0"/>
<path d="M240.911 311.389C252.934 307.018 264.152 300.518 273.862 292.292C269.926 290.733 265.419 291.666 261.484 293.228C252.493 296.794 245.148 302.816 240.738 311.303" fill="#E0E0E0"/>
<path d="M231.455 319.328C237.537 319.982 243.716 320.407 249.752 319.416C255.684 318.441 261.29 316.13 266.833 313.837C267.292 313.647 267.791 313.419 267.993 312.971C268.211 312.484 267.979 311.891 267.577 311.534C267.176 311.177 266.642 311.007 266.12 310.863C260.094 309.207 253.591 309.982 247.661 311.947C241.732 313.913 236.87 316.247 231.455 319.328Z" fill="#E0E0E0"/>
<path d="M196.721 334.066C192.571 325.832 192.841 316.223 196.426 307.737C198.95 311.517 199.257 316.33 198.796 320.828C198.334 325.326 196.942 329.955 196.851 334.474" fill="#E0E0E0"/>
<path d="M180.142 325.848C169.78 325.653 159.416 329.993 152.38 337.471C157.552 338.27 162.878 336.959 167.582 334.701C172.286 332.444 176.465 329.276 180.609 326.132" fill="#E0E0E0"/>
<path d="M168.996 322.184C163.927 321.78 159.051 321.163 154.176 322.631C149.303 324.098 144.868 327.431 142.88 332.044C147.621 332.569 152.429 331.401 156.774 329.465C161.12 327.531 165.071 324.85 168.996 322.184Z" fill="#E0E0E0"/>
<path d="M185.5 322.351C180.939 319.414 176.257 316.424 170.948 315.207C165.638 313.99 159.485 314.89 155.783 318.823C160.082 321.302 165.296 321.595 170.279 321.591C175.263 321.587 181.371 321.532 186.07 323.166" fill="#E0E0E0"/>
<path d="M185.527 322.588C177.731 315.063 174.776 301.548 177.912 291.261C184.04 300.412 186.784 311.703 185.527 322.588Z" fill="#E0E0E0"/>
<path d="M206.962 301.27C208.433 297.91 209.467 294.385 210.786 290.965C212.105 287.545 213.745 284.18 216.237 281.465C218.73 278.749 222.176 276.728 225.892 276.547C223.566 286.9 216.569 296.15 207.153 301.324" fill="#E0E0E0"/>
<path d="M203.084 305.711C200.651 302.42 197.84 297.952 194.541 295.495C191.242 293.038 186.946 291.551 182.919 292.495C187.013 299.691 194.752 304.763 203.084 305.711Z" fill="#E0E0E0"/>
<path d="M203.859 301.543C202.265 297.56 200.658 293.536 200.014 289.302C199.369 285.069 199.761 280.547 201.964 276.855C206.244 284.806 207.621 293.34 204.079 301.633" fill="#E0E0E0"/>
<path d="M207.002 276.855C209.425 268.973 216.769 263.17 224.696 260.507C225.695 260.172 226.754 259.892 227.798 260.051C228.841 260.209 229.866 260.911 230.085 261.927C230.374 263.268 229.247 264.468 228.187 265.359C222.014 270.547 214.758 274.484 207.002 276.855Z" fill="#E0E0E0"/>
<path d="M207.09 270.409C207.399 265.327 207.72 260.172 209.402 255.357C211.084 250.542 214.325 246.026 219.04 243.918C219.842 249.051 217.539 254.157 214.76 258.573C211.981 262.99 208.632 267.159 206.962 272.086" fill="#E0E0E0"/>
<path d="M206.962 273.907C204.959 268.163 204.752 260.867 201.253 255.862C198.806 252.364 194.889 249.981 192.782 246.276C191.381 249.737 191.81 253.724 193.275 257.158C194.739 260.593 197.158 263.55 199.749 266.268C202.338 268.987 204.555 271.032 206.962 273.907Z" fill="#E0E0E0"/>
<path d="M207.002 443.067C206.846 443.067 206.712 404.748 206.701 357.49C206.69 310.216 206.808 271.906 206.963 271.906C207.119 271.906 207.253 310.216 207.264 357.49C207.276 404.748 207.158 443.067 207.002 443.067Z" fill="#E0E0E0"/>
<path d="M241.071 328.284C241.082 328.321 240.559 328.512 239.605 328.826C238.551 329.175 237.197 329.624 235.57 330.164C232.169 331.303 227.496 332.952 222.426 334.994C217.404 337.111 212.669 338.83 209.973 341.127C208.626 342.26 207.852 343.486 207.471 344.382C207.083 345.281 207.015 345.832 206.963 345.822C206.944 345.819 206.95 345.682 206.98 345.42C207.024 345.162 207.092 344.776 207.265 344.303C207.594 343.358 208.346 342.047 209.707 340.834C211.063 339.62 212.949 338.528 215.111 337.535C217.272 336.543 219.667 335.509 222.212 334.482C227.299 332.433 232.007 330.837 235.447 329.791C237.166 329.263 238.569 328.875 239.542 328.619C240.517 328.368 241.06 328.247 241.071 328.284Z" fill="#E0E0E0"/>
<path d="M252.238 301.324C252.251 301.338 252.11 301.486 251.827 301.755C251.495 302.061 251.081 302.443 250.576 302.909C249.415 303.947 247.833 305.359 245.906 307.079C241.874 310.608 236.404 315.395 230.362 320.683C224.294 325.991 219.05 331.064 215.416 334.884C213.597 336.791 212.164 338.371 211.186 339.474C210.729 339.986 210.356 340.406 210.056 340.742C209.794 341.029 209.649 341.175 209.634 341.162C209.618 341.151 209.734 340.982 209.967 340.671C210.203 340.364 210.547 339.905 211.017 339.336C211.945 338.188 213.335 336.565 215.122 334.618C218.691 330.721 223.905 325.588 229.985 320.27C236.075 314.973 241.615 310.216 245.641 306.787C247.617 305.12 249.238 303.753 250.43 302.748C250.963 302.313 251.401 301.957 251.751 301.671C252.058 301.429 252.225 301.309 252.238 301.324Z" fill="#E0E0E0"/>
<path d="M223.812 326.08C223.653 326.011 224.921 323.135 226.184 319.496C227.459 315.859 228.058 312.789 228.22 312.814C228.367 312.829 228.008 315.989 226.717 319.673C226.082 321.513 225.381 323.13 224.83 324.278C224.277 325.428 223.881 326.111 223.812 326.08Z" fill="#E0E0E0"/>
<path d="M207.038 349.274C207.006 349.297 206.674 348.915 206.103 348.208C205.468 347.408 204.665 346.396 203.708 345.189C201.696 342.632 198.914 339.104 195.796 335.243C192.676 331.38 189.811 327.917 187.735 325.41C186.757 324.219 185.935 323.221 185.288 322.432C184.716 321.724 184.414 321.32 184.443 321.295C184.473 321.27 184.832 321.626 185.454 322.292C186.078 322.957 186.963 323.935 188.04 325.159C190.197 327.603 193.114 331.031 196.238 334.898C199.359 338.764 202.095 342.335 204.026 344.953C204.993 346.262 205.762 347.331 206.28 348.079C206.798 348.827 207.069 349.252 207.038 349.274Z" fill="#E0E0E0"/>
<path d="M199.568 339.848C199.476 339.945 197.482 337.621 196.438 334.089C195.668 331.601 195.634 329.324 195.728 328.283L195.977 328.303C195.866 328.746 195.784 328.98 195.739 328.974C195.695 328.966 195.692 328.72 195.73 328.264L195.978 328.284C196.069 329.317 196.229 331.514 196.977 333.932C197.986 337.354 199.718 339.754 199.568 339.848Z" fill="#E0E0E0"/>
<path d="M189.924 327.924C189.852 328.001 189.211 327.207 187.739 326.676C186.28 326.121 184.084 325.999 181.673 326.203C179.261 326.376 177.105 326.8 175.564 327.172C174.022 327.547 173.08 327.843 173.05 327.765C173.025 327.699 173.922 327.273 175.457 326.794C176.99 326.321 179.174 325.827 181.631 325.651C184.068 325.444 186.379 325.628 187.889 326.314C189.417 326.98 189.974 327.911 189.924 327.924Z" fill="#E0E0E0"/>
<path d="M187.637 325.035C187.595 325.121 186.364 324.533 184.29 323.837C182.219 323.137 179.268 322.402 175.938 322.147C172.604 321.903 169.575 322.189 167.42 322.573C165.262 322.952 163.957 323.35 163.927 323.259C163.915 323.222 164.23 323.093 164.815 322.887C165.396 322.674 166.26 322.43 167.343 322.189C169.505 321.701 172.588 321.346 175.981 321.595C179.372 321.855 182.365 322.665 184.426 323.469C185.459 323.869 186.276 324.238 186.818 324.536C187.363 324.825 187.656 325.001 187.637 325.035Z" fill="#E0E0E0"/>
<path d="M206.963 312.814C206.812 312.852 205.719 309.12 204.522 304.48C203.324 299.838 202.476 296.045 202.626 296.008C202.777 295.97 203.87 299.702 205.067 304.343C206.266 308.984 207.114 312.777 206.963 312.814Z" fill="#E0E0E0"/>
<path d="M207.118 312.814C206.95 312.868 206.248 310.375 204.413 307.824C202.626 305.22 200.346 303.914 200.43 303.785C200.46 303.727 201.089 303.954 201.967 304.564C202.847 305.167 203.936 306.187 204.874 307.507C206.778 310.16 207.255 312.806 207.118 312.814Z" fill="#E0E0E0"/>
<path d="M207.002 422.64C206.941 422.648 206.826 421.719 206.387 420.092C205.953 418.464 205.135 416.156 203.781 413.457C201.087 408.047 196.187 401.188 189.958 394.316C186.872 390.851 183.878 387.582 181.337 384.452C178.792 381.326 176.7 378.348 175.173 375.713C173.64 373.08 172.643 370.821 172.061 369.227C171.775 368.428 171.565 367.805 171.45 367.373C171.327 366.944 171.272 366.717 171.29 366.711C171.34 366.695 171.624 367.588 172.266 369.15C172.908 370.711 173.954 372.928 175.518 375.516C177.077 378.106 179.188 381.04 181.743 384.132C184.294 387.23 187.293 390.482 190.384 393.953C196.628 400.842 201.518 407.788 204.141 413.288C205.46 416.032 206.229 418.384 206.6 420.04C206.781 420.87 206.903 421.516 206.945 421.962C207.002 422.404 207.021 422.638 207.002 422.64Z" fill="#E0E0E0"/>
<path d="M237.788 388.462C237.806 388.503 237.217 388.796 236.175 389.353C235.14 389.924 233.672 390.805 231.99 392.072C230.308 393.338 228.426 395 226.494 396.999C224.565 399.001 222.577 401.327 220.55 403.82C216.495 408.821 212.703 413.246 210.432 416.777C209.279 418.529 208.44 420.006 207.892 421.042C207.338 422.076 207.044 422.657 207.004 422.639C206.986 422.631 207.038 422.477 207.153 422.188C207.273 421.903 207.437 421.475 207.695 420.946C208.186 419.876 208.977 418.359 210.096 416.567C212.301 412.95 216.064 408.464 220.111 403.471C222.143 400.975 224.155 398.643 226.12 396.643C228.089 394.647 230.02 392.995 231.752 391.755C233.484 390.514 235 389.676 236.074 389.159C236.609 388.895 237.045 388.733 237.334 388.611C237.623 388.496 237.78 388.445 237.788 388.462Z" fill="#E0E0E0"/>
<path d="M238.391 399.55C238.398 399.63 237.089 399.787 234.981 400.037C232.88 400.304 229.956 400.649 226.892 401.603C223.841 402.579 221.304 404.068 219.65 405.338C217.98 406.606 217.194 407.654 217.117 407.593C217.089 407.574 217.253 407.288 217.622 406.821C217.986 406.352 218.584 405.725 219.398 405.034C221.025 403.657 223.587 402.079 226.719 401.075C229.857 400.1 232.821 399.816 234.94 399.647C237.067 399.495 238.385 399.478 238.391 399.55Z" fill="#E0E0E0"/>
<path d="M218.112 406.375C217.934 406.277 219.471 403.969 220.663 400.865C221.782 397.733 222.044 394.987 222.245 395.019C222.318 395.027 222.315 395.714 222.188 396.817C222.054 397.916 221.786 399.445 221.193 401.054C220.598 402.661 219.816 404.004 219.215 404.94C218.606 405.874 218.174 406.414 218.112 406.375Z" fill="#E0E0E0"/>
<path d="M247.759 358.695C247.765 358.713 247.578 358.811 247.213 358.98C246.79 359.169 246.26 359.406 245.611 359.696C244.909 359.992 244.057 360.367 243.097 360.865C242.134 361.353 241.01 361.856 239.838 362.548C239.244 362.88 238.623 363.226 237.978 363.588C237.333 363.952 236.695 364.385 236.015 364.803C234.643 365.621 233.27 366.628 231.803 367.656C228.934 369.797 225.916 372.33 223.011 375.256C220.134 378.211 217.661 381.263 215.582 384.155C214.586 385.631 213.609 387.015 212.825 388.39C212.423 389.072 212.004 389.713 211.655 390.36C211.311 391.006 210.979 391.628 210.662 392.223C210 393.397 209.526 394.518 209.062 395.481C208.588 396.44 208.236 397.29 207.959 397.99C207.687 398.638 207.464 399.167 207.286 399.589C207.126 399.952 207.033 400.141 207.015 400.134C206.996 400.128 207.053 399.927 207.179 399.551C207.331 399.118 207.522 398.577 207.755 397.912C208.002 397.198 208.326 396.333 208.773 395.356C209.211 394.376 209.662 393.238 210.305 392.046C210.614 391.441 210.937 390.811 211.273 390.155C211.613 389.5 212.025 388.848 212.421 388.157C213.193 386.762 214.163 385.359 215.154 383.864C217.224 380.935 219.707 377.848 222.607 374.87C225.534 371.921 228.587 369.378 231.495 367.245C232.98 366.22 234.374 365.221 235.766 364.414C236.455 364.001 237.103 363.576 237.757 363.218C238.413 362.866 239.043 362.527 239.647 362.203C240.837 361.529 241.98 361.048 242.961 360.584C243.938 360.111 244.807 359.763 245.525 359.497C246.192 359.245 246.737 359.039 247.172 358.875C247.549 358.74 247.751 358.678 247.759 358.695Z" fill="#E0E0E0"/>
<path d="M223.393 374.741C223.343 374.733 223.615 373.803 224.733 372.78C225.823 371.758 227.814 370.813 230.13 370.744C232.44 370.684 234.443 371.319 235.811 371.834C237.186 372.365 237.985 372.796 237.958 372.86C237.926 372.938 237.069 372.634 235.68 372.204C234.295 371.787 232.337 371.238 230.148 371.297C227.966 371.363 226.084 372.189 224.991 373.076C223.876 373.96 223.484 374.794 223.393 374.741Z" fill="#E0E0E0"/>
<path d="M219.752 378.434C219.597 378.349 220.971 376.369 221.284 373.532C221.644 370.7 220.771 368.463 220.941 368.416C221.003 368.391 221.309 368.911 221.574 369.844C221.841 370.771 222.017 372.122 221.844 373.597C221.666 375.071 221.178 376.345 220.702 377.188C220.226 378.035 219.806 378.472 219.752 378.434Z" fill="#E0E0E0"/>
<path d="M180.075 428.13C180.915 442.774 185.405 457.667 192.31 472.725H222.341C228.926 457.817 233.106 442.947 233.849 428.13H180.075Z" fill="#E0E0E0"/>
<path d="M228.983 451.827C228.983 451.98 219.095 452.104 206.901 452.104C194.703 452.104 184.817 451.979 184.817 451.827C184.817 451.674 194.703 451.55 206.901 451.55C219.095 451.549 228.983 451.674 228.983 451.827Z" fill="#FAFAFA"/>
<path d="M228.311 457.131C228.311 457.285 219.042 457.409 207.61 457.409C196.175 457.409 186.907 457.285 186.907 457.131C186.907 456.979 196.175 456.855 207.61 456.855C219.043 456.855 228.311 456.979 228.311 457.131Z" fill="#FAFAFA"/>
<path d="M192.796 437.745C192.952 437.745 193.077 440.79 193.077 444.544C193.077 448.299 192.951 451.343 192.796 451.343C192.64 451.343 192.515 448.299 192.515 444.544C192.515 440.79 192.64 437.745 192.796 437.745Z" fill="#FAFAFA"/>
<path d="M208.885 437.745C209.041 437.745 209.167 440.898 209.167 444.786C209.167 448.675 209.041 451.827 208.885 451.827C208.729 451.827 208.604 448.675 208.604 444.786C208.604 440.898 208.731 437.745 208.885 437.745Z" fill="#FAFAFA"/>
<path d="M223.991 437.626C224.147 437.626 224.272 440.841 224.272 444.808C224.272 448.774 224.146 451.989 223.991 451.989C223.835 451.989 223.709 448.774 223.709 444.808C223.708 440.841 223.835 437.626 223.991 437.626Z" fill="#FAFAFA"/>
<path d="M232.896 437.745C232.896 437.899 221.299 438.022 206.997 438.022C192.69 438.022 181.096 437.898 181.096 437.745C181.096 437.592 192.691 437.469 206.997 437.469C221.299 437.469 232.896 437.592 232.896 437.745Z" fill="#FAFAFA"/>
</svg>
