<svg width="420" height="356" viewBox="0 0 420 356" fill="none" xmlns="http://www.w3.org/2000/svg">
<path d="M401.753 56.9818L399.233 52.9017C377.998 18.5077 339.606 -2.22585 299.127 0.290129C293.923 0.613873 288.742 1.30639 283.63 2.38161C246.827 10.1247 214.804 37.48 201.529 72.514C193.722 93.1178 191.542 116.841 176.728 133.195C157.448 154.479 124.715 155.147 95.9365 154.266C67.1582 153.384 34.4044 154.136 15.2174 175.504C3.20154 188.887 -0.616892 207.918 0.35162 225.84C2.91687 273.29 36.5563 315.716 79.3366 336.805C122.118 357.893 172.487 359.782 219.308 350.505C284.899 337.509 347.275 301.82 384.768 246.698C422.263 191.576 431.752 116.477 401.753 56.9818Z" fill="#F5F5F5"/>
</svg>
