<svg width="121" height="425" viewBox="0 0 121 425" fill="none" xmlns="http://www.w3.org/2000/svg">
<path d="M74.2694 44.5191C75.8923 39.8076 77.4967 35.0608 78.271 30.1446C79.0454 25.2295 78.9571 20.0936 77.2524 15.41C76.9939 14.7003 74.7744 9.931 74.0098 9.99639C73.4634 10.0425 74.8125 14.4827 74.5301 14.9458C71.8416 19.3582 71.0595 24.6946 71.4151 29.8273C71.7728 34.9579 72.8002 39.5825 74.2694 44.5191Z" fill="#263238"/>
<path d="M74.0851 70.0155L75.0045 25.5479C75.5717 13.0848 68.6667 2.37232 55.9757 2.16006L54.8021 2.20723C42.988 2.68749 33.5254 12 33.0618 23.6129C32.631 34.4176 32.2951 46.3618 32.6114 52.1356C33.2647 64.0895 45.5129 65.4552 45.5129 65.4552C45.5402 65.4552 45.5489 66.5144 45.5423 70.0273L63.8852 80.1395L68.2697 79.7386L74.0851 70.0155Z" fill="#AE7461"/>
<path d="M45.5127 65.4563C45.5127 65.4563 53.2008 65.5871 61.1627 60.2089C61.1627 60.2089 57.7292 69.3552 45.5421 68.772L45.5127 65.4563Z" fill="#6F4439"/>
<path d="M36.7569 33.9309C36.7623 34.8346 37.5444 35.5743 38.5052 35.5861C39.4628 35.5979 40.2372 34.8764 40.2318 33.9738C40.2263 33.0701 39.4443 32.3293 38.4856 32.3176C37.5258 32.3058 36.7514 33.0283 36.7569 33.9309Z" fill="#263238"/>
<path d="M35.8713 28.7907C36.096 29.0051 37.3721 27.9931 39.2426 27.9224C41.1098 27.8248 42.5222 28.7146 42.7153 28.4809C42.8113 28.378 42.5746 27.9835 41.9595 27.5804C41.3531 27.1784 40.3322 26.8053 39.1674 26.8579C38.0025 26.9115 37.0405 27.3724 36.4952 27.827C35.939 28.2836 35.7612 28.6942 35.8713 28.7907Z" fill="#263238"/>
<path d="M52.524 33.9309C52.5294 34.8346 53.3125 35.5743 54.2723 35.5861C55.2299 35.5979 56.0043 34.8775 55.9989 33.9738C55.9934 33.0712 55.2103 32.3293 54.2527 32.3176C53.2918 32.3058 52.5185 33.0283 52.524 33.9309Z" fill="#263238"/>
<path d="M54.2199 28.4723C54.4456 28.6867 55.7229 27.6758 57.5923 27.604C59.4584 27.5064 60.8708 28.3962 61.0649 28.1625C61.1598 28.0585 60.9253 27.6661 60.308 27.262C59.7027 26.86 58.6818 26.4869 57.517 26.5384C56.3521 26.5931 55.3902 27.054 54.8448 27.5075C54.2886 27.9663 54.1097 28.3769 54.2199 28.4723Z" fill="#263238"/>
<path d="M48.1054 42.8671C48.1098 42.762 46.9394 42.612 45.046 42.4522C44.5661 42.4233 44.1103 42.3483 44.0165 42.0309C43.89 41.6965 44.0677 41.183 44.2772 40.6266C44.6785 39.4732 45.0984 38.2629 45.539 36.9958C47.2863 31.8277 48.5296 27.5868 48.318 27.5193C48.1053 27.4517 46.5173 31.5865 44.7701 36.7546C44.3513 38.0292 43.9499 39.2427 43.5682 40.4047C43.41 40.945 43.1243 41.5625 43.398 42.2571C43.542 42.6023 43.9031 42.8435 44.2117 42.9111C44.5215 42.9904 44.7908 42.985 45.0275 42.9893C46.9264 43.0108 48.1021 42.9722 48.1054 42.8671Z" fill="#263238"/>
<path d="M53.3722 22.7478C53.6459 23.2066 55.4401 22.6395 57.6465 22.5034C59.8508 22.3233 61.7093 22.6277 61.9121 22.1357C62.0005 21.9009 61.61 21.4936 60.816 21.1452C60.0296 20.7968 58.831 20.547 57.508 20.6403C56.1861 20.7367 55.0365 21.1537 54.3101 21.6115C53.5772 22.0692 53.25 22.5281 53.3722 22.7478Z" fill="#263238"/>
<path d="M35.5584 23.39C35.9587 23.7973 37.4704 23.3246 39.3016 23.257C41.1306 23.1359 42.6914 23.45 43.0371 23.004C43.1876 22.7886 42.9324 22.3758 42.2442 21.9985C41.5658 21.6222 40.4403 21.3285 39.1816 21.3928C37.9241 21.4582 36.8432 21.8656 36.2172 22.3094C35.5824 22.7543 35.3817 23.1906 35.5584 23.39Z" fill="#263238"/>
<path d="M74.3838 34.4455C74.5877 34.349 82.6423 31.6754 82.7208 39.8623C82.7983 48.0502 74.4197 46.438 74.4023 46.2032C74.3859 45.9684 74.3838 34.4455 74.3838 34.4455Z" fill="#AE7461"/>
<path d="M76.9175 43.0783C76.9535 43.0515 77.0636 43.1769 77.3101 43.2852C77.55 43.3902 77.9623 43.461 78.3953 43.297C79.2722 42.9711 79.9997 41.5914 80.027 40.1153C80.0412 39.3702 79.8754 38.6617 79.6016 38.0774C79.3409 37.4803 78.9428 37.0655 78.5 36.9926C78.0583 36.8961 77.7475 37.1598 77.6471 37.3913C77.5381 37.6207 77.5926 37.7837 77.5479 37.7987C77.525 37.8191 77.3679 37.6626 77.4322 37.3249C77.465 37.1619 77.561 36.9679 77.7551 36.8092C77.9536 36.6474 78.2469 36.5638 78.5556 36.5938C79.198 36.6313 79.7826 37.207 80.0836 37.8491C80.4206 38.4934 80.6246 39.2898 80.6083 40.1271C80.5701 41.7769 79.7259 43.3291 78.5251 43.6818C77.9405 43.8373 77.4497 43.6679 77.1956 43.4771C76.9338 43.2755 76.888 43.0933 76.9175 43.0783Z" fill="#6F4439"/>
<path d="M38.4443 10.0468C37.0952 9.31674 41.1394 5.0223 44.4517 3.54294C49.4579 1.30782 57.1034 -0.0718453 61.7213 1.21241C67.2804 2.75931 71.9006 5.47469 74.6938 10.4456C77.487 15.4164 78.5395 21.2095 78.3802 26.8868C78.3322 28.6192 78.15 30.4244 77.2088 31.8898C76.0462 33.7004 73.8147 34.8421 73.9139 37.3388C73.9499 38.2511 73.686 39.173 73.0501 39.8387C71.5264 41.4339 69.6614 39.9373 68.8031 38.4355C66.9707 35.2291 66.7635 31.401 66.601 27.7273C66.4854 25.1159 66.3763 22.4487 67.1234 19.9402C67.5302 18.5756 68.1836 17.2849 68.513 15.8999C68.8423 14.5149 68.7987 12.9433 67.9207 11.8123C67.7778 11.629 67.5423 11.3964 67.2434 11.1402C64.8832 9.10876 61.5807 8.50308 58.6239 9.5322C53.934 11.1659 45.9242 13.6058 43.8312 12.0428C40.8198 9.79377 40.0989 8.3262 40.0989 8.3262L38.4443 10.0468Z" fill="#263238"/>
<path d="M53.9785 44.0056C53.6917 43.9884 53.6798 45.8676 52.0361 47.1959C50.3958 48.5273 48.3573 48.3075 48.3409 48.5702C48.3137 48.6881 48.7936 48.9368 49.6541 48.9647C50.4983 48.9968 51.7318 48.7363 52.7385 47.9237C53.7408 47.109 54.1749 46.0199 54.2447 45.248C54.321 44.4623 54.1094 43.9949 53.9785 44.0056Z" fill="#263238"/>
<path d="M47.5493 375.665L47.9387 397.351C47.9387 397.351 25.6433 405.023 25.3193 409.038L68.1247 409.805L68.9286 375.992L47.5493 375.665Z" fill="#263238"/>
<path d="M61.2086 395.765C62.0331 396.003 62.5883 396.928 62.3811 397.747C62.1739 398.566 61.2206 399.13 60.3917 398.906C59.5639 398.683 58.8615 397.592 59.1614 396.801C59.4602 396.01 60.6164 395.408 61.3668 395.821" fill="#E0E0E0"/>
<path d="M68.1244 409.805L68.0699 406.394L27.0488 406.934C27.0488 406.934 25.1281 407.715 25.319 409.039L68.1244 409.805Z" fill="#455A64"/>
<path d="M47.2481 397.125C47.2513 397.33 48.2951 397.442 49.3105 398.12C50.3445 398.773 50.8581 399.673 51.0523 399.594C51.2453 399.558 50.9563 398.324 49.7118 397.523C48.475 396.713 47.2066 396.935 47.2481 397.125Z" fill="white"/>
<path d="M42.7252 398.869C42.674 399.067 43.5727 399.433 44.2664 400.314C44.9862 401.176 45.1476 402.118 45.357 402.113C45.5523 402.149 45.7191 400.948 44.8357 399.868C43.961 398.781 42.7329 398.673 42.7252 398.869Z" fill="white"/>
<path d="M40.0771 404.104C40.2657 404.152 40.5755 403.13 40.0607 401.996C39.5524 400.857 38.5752 400.395 38.4836 400.565C38.3625 400.732 38.9853 401.346 39.3943 402.284C39.8262 403.214 39.8698 404.081 40.0771 404.104Z" fill="white"/>
<path d="M47.7173 392.172C47.8013 392.361 48.7654 392.095 49.9455 392.194C51.1278 392.271 52.0396 392.677 52.1519 392.503C52.2752 392.356 51.3918 391.58 50.0001 391.482C48.6106 391.373 47.618 392.009 47.7173 392.172Z" fill="white"/>
<path d="M99.7745 374.338L102.093 400.479L97.8615 421.674C97.5561 423.202 98.6315 424.664 100.203 424.859C101.083 424.969 101.956 424.659 102.556 424.016C106.371 419.927 120.331 404.817 120.052 402.913C119.729 400.709 119.47 375.18 119.47 375.18L99.7745 374.338Z" fill="#263238"/>
<path d="M100.202 424.859L119.937 401.146L120.009 402.255C120.071 403.215 119.79 404.164 119.205 404.935C117.641 406.996 113.195 412.592 102.634 424.011C102.02 424.676 101.104 424.995 100.202 424.859Z" fill="#455A64"/>
<g opacity="0.6">
<path d="M113.917 393.043C113.279 393.539 113.127 394.545 113.603 395.192C114.081 395.838 115.12 396 115.767 395.515C116.414 395.031 116.635 393.829 116.087 393.239C115.538 392.648 114.307 392.523 113.797 393.146" fill="white"/>
</g>
<path d="M105.544 413.034C105.398 413.117 104.708 411.782 103.075 411.144C101.462 410.458 100.015 410.92 99.9699 410.76C99.9426 410.697 100.267 410.473 100.884 410.347C101.496 410.218 102.403 410.247 103.299 410.611C104.193 410.978 104.855 411.588 105.195 412.105C105.542 412.625 105.61 413.008 105.544 413.034Z" fill="white"/>
<path d="M103.875 416.661C103.757 416.782 102.846 415.984 101.442 415.684C100.045 415.352 98.8726 415.679 98.8192 415.518C98.733 415.389 99.9796 414.752 101.574 415.121C103.172 415.474 104.01 416.581 103.875 416.661Z" fill="white"/>
<path d="M108.784 408.317C108.667 408.449 107.273 407.216 105.132 406.56C103.002 405.871 101.138 406.078 101.121 405.904C101.068 405.767 103.024 405.278 105.31 406.011C107.605 406.721 108.907 408.235 108.784 408.317Z" fill="white"/>
<path d="M108.754 400.313C108.693 400.475 107.182 399.962 105.263 400.016C103.342 400.042 101.855 400.617 101.787 400.457C101.705 400.334 103.186 399.473 105.251 399.439C107.313 399.388 108.83 400.185 108.754 400.313Z" fill="white"/>
<path d="M108.272 392.622C108.199 392.779 106.662 391.999 104.646 392.217C102.624 392.392 101.272 393.452 101.17 393.311C101.123 393.26 101.392 392.913 101.983 392.525C102.57 392.137 103.501 391.751 104.588 391.643C105.675 391.54 106.665 391.739 107.318 392.007C107.974 392.274 108.308 392.562 108.272 392.622Z" fill="white"/>
<path d="M104.597 390.751C104.563 390.754 104.48 390.406 104.495 389.763C104.513 389.125 104.639 388.18 105.127 387.118C105.383 386.614 105.642 385.969 106.364 385.578C106.721 385.381 107.278 385.413 107.616 385.74C107.952 386.057 108.078 386.481 108.114 386.895C108.195 388.559 106.848 390.258 104.962 390.617C103.065 390.944 101.266 389.981 100.415 388.594C100.225 388.232 100.081 387.784 100.259 387.329C100.434 386.87 100.964 386.658 101.349 386.698C102.148 386.765 102.676 387.181 103.162 387.484C104.128 388.152 104.746 388.879 105.114 389.404C105.483 389.932 105.612 390.267 105.583 390.283C105.493 390.358 104.826 389.039 102.933 387.823C102.458 387.545 101.908 387.191 101.336 387.175C101.056 387.166 100.824 387.29 100.74 387.515C100.652 387.733 100.729 388.058 100.892 388.341C101.607 389.475 103.255 390.351 104.854 390.05C106.446 389.764 107.629 388.269 107.576 386.929C107.559 386.606 107.451 386.288 107.263 386.108C107.079 385.931 106.813 385.895 106.574 386.009C106.069 386.247 105.757 386.818 105.503 387.294C104.504 389.288 104.717 390.771 104.597 390.751Z" fill="white"/>
<path d="M26.7433 194.585C26.7433 194.585 23.4975 206.938 24.6754 221.988C25.1313 227.811 45.1243 388.914 45.1243 388.914H72.1194L64.5316 237.499L66.7424 237.971C66.7424 237.971 81.4784 302.549 82.6803 313.005C83.7612 322.402 96.1883 390.679 96.1883 390.679L120.87 390.957L112.988 300.648L103.814 213.994L100.363 188.77L26.7433 194.585Z" fill="#263238"/>
<path d="M68.7864 222.053C68.8016 222.087 68.4057 222.315 67.6597 222.677C66.9115 223.023 65.811 223.553 64.3168 223.827C63.5708 223.961 62.7223 224 61.8301 223.844C60.9445 223.69 59.9966 223.319 59.2299 222.617C58.4632 221.914 57.968 220.93 57.6528 219.908C57.3343 218.877 57.1522 217.805 56.9297 216.716C56.0681 212.346 55.4857 208.355 55.1465 205.46C54.9764 204.011 54.8629 202.837 54.8018 202.024C54.7418 201.21 54.7287 200.759 54.768 200.754C54.8072 200.75 54.8945 201.194 55.0232 201.998C55.165 202.92 55.3406 204.059 55.5478 205.406C55.9896 208.282 56.6342 212.251 57.4925 216.608C57.9277 218.762 58.2244 220.956 59.5942 222.241C60.9619 223.501 62.8651 223.634 64.2546 223.433C65.6899 223.221 66.8025 222.758 67.5725 222.475C68.3403 222.177 68.77 222.015 68.7864 222.053Z" fill="#455A64"/>
<path d="M60.662 201.517C60.6532 201.492 60.8364 201.378 61.2171 201.355C61.5923 201.327 62.1638 201.439 62.7277 201.832C63.2675 202.222 63.8412 202.924 63.8652 203.881C63.9099 204.851 63.1399 205.805 62.1365 206.159C61.1429 206.541 59.9246 206.32 59.3084 205.561C58.6856 204.825 58.6486 203.925 58.7936 203.282C58.955 202.623 59.3106 202.168 59.6116 201.947C59.9137 201.718 60.1275 201.686 60.1373 201.71C60.2115 201.783 59.3782 202.155 59.1895 203.356C59.1066 203.923 59.2015 204.675 59.7022 205.218C60.1842 205.775 61.1091 205.939 61.9336 205.632C62.7593 205.33 63.3472 204.608 63.3374 203.877C63.3515 203.144 62.9185 202.517 62.4779 202.143C61.5323 201.361 60.6543 201.62 60.662 201.517Z" fill="#455A64"/>
<path d="M39.149 75.1429C33.9967 75.4549 24.6704 78.5036 20.7222 85.7514C17.4219 91.8104 16.522 117.701 16.3442 118.319L26.2737 120.849L38.9537 139.284L90.8837 127.896L94.135 135.944L96.1298 78.315C96.1298 78.315 44.3024 74.831 39.149 75.1429Z" fill="#FF725E"/>
<path d="M99.466 162.271L103.44 107.203L102.518 81.0828L78.2351 70.5601L75.8215 61.4299L50.6794 73.1125L45.4137 67.3934L43.2083 73.8393L37.6994 75.6092L24.8622 97.1521L25.0487 133.2C25.0487 133.2 23.6985 177.232 24.7761 192.546C24.9091 194.447 26.1798 196.095 28.0143 196.709C30.561 197.562 34.9237 198.543 41.7687 198.706C67.0961 199.306 101.591 197.733 101.591 197.733L101.944 196.643C102.93 193.606 103.222 190.393 102.8 187.232L99.466 162.271Z" fill="#FF725E"/>
<path d="M47.3582 85.3194C47.7115 83.9376 47.9918 82.8409 48.1979 82.0326C48.2917 81.6928 48.3692 81.413 48.4335 81.1825C48.4902 80.9917 48.5251 80.8952 48.536 80.8985C48.5469 80.9006 48.535 81.0024 48.5001 81.1986C48.4543 81.4345 48.3975 81.7185 48.3288 82.0648C48.1521 82.8806 47.9133 83.9858 47.6112 85.3805C46.9797 88.2577 46.0352 92.4139 44.9848 97.5723C43.952 102.731 42.7893 108.9 42.0117 115.807C41.2667 122.714 41.0105 130.372 40.9112 138.402C40.7433 154.462 41.1763 169.006 41.4533 179.53C41.5994 184.746 41.7183 188.988 41.8022 191.996C41.8317 193.422 41.8547 194.553 41.871 195.387C41.8721 195.74 41.8721 196.03 41.8721 196.27C41.8688 196.47 41.8611 196.572 41.8502 196.572C41.8382 196.573 41.823 196.471 41.8044 196.274C41.7859 196.034 41.7641 195.746 41.7368 195.394C41.6888 194.562 41.6245 193.433 41.5427 192.009C41.4075 189.004 41.2166 184.763 40.9821 179.551C40.584 169.029 40.0757 154.483 40.2448 138.399C40.344 130.357 40.6189 122.686 41.402 115.74C42.2168 108.802 43.4306 102.632 44.5246 97.4759" fill="#263238"/>
<path d="M75.8203 61.4299C75.8203 61.4299 73.0086 62.2296 65.7895 66.0159C58.7165 69.725 50.6782 73.1125 50.6782 73.1125L51.289 84.271L78.0453 71.0682" fill="#FF725E"/>
<path d="M45.4125 67.3934L50.6793 73.1125L47.8643 85.0739L43.1733 74.2628" fill="#FF725E"/>
<g opacity="0.3">
<path d="M50.5811 74.3475C50.3477 74.519 48.8862 88.1516 48.8862 88.1516L75.7057 72.2249L51.2911 84.2721L50.5811 74.3475Z" fill="black"/>
</g>
<path d="M50.9313 73.0161C50.9771 73.0471 50.4154 73.893 49.5658 75.2898C48.7161 76.6866 47.5928 78.6473 46.5206 80.8942C46.4334 81.0786 46.3472 81.2619 46.2665 81.4334L46.0996 81.7872L45.9295 81.4355C44.8977 79.3001 44.1517 77.3137 43.6903 75.8633C43.458 75.1376 43.2922 74.5469 43.1897 74.1363C43.0872 73.7257 43.0457 73.4963 43.0686 73.4899C43.1199 73.4749 43.4068 74.3603 43.9314 75.7829C44.4538 77.2054 45.2336 79.1618 46.2643 81.278L45.9273 81.2812C46.008 81.1086 46.0953 80.9242 46.1825 80.7377C47.2612 78.4747 48.4304 76.5204 49.3411 75.1525C49.7959 74.4675 50.1842 73.9273 50.4634 73.5606C50.7437 73.1951 50.9106 73.0021 50.9313 73.0161Z" fill="#263238"/>
<path d="M78.234 70.5601C78.2394 70.5719 78.1129 70.6458 77.8664 70.7766C77.5829 70.9224 77.2229 71.1068 76.7812 71.3341C75.7931 71.8368 74.4384 72.5272 72.7839 73.3698C69.4116 75.0936 64.7937 77.5495 59.6763 80.237C56.5602 81.8686 53.6078 83.3812 51.0393 84.644L50.8026 84.7608L50.7993 84.5025C50.7666 81.2286 50.7394 78.4704 50.7197 76.4754C50.7219 75.5384 50.723 74.7816 50.7241 74.2124C50.7307 73.6892 50.7437 73.4094 50.7612 73.4084C50.7786 73.4084 50.8015 73.6871 50.8277 74.2102C50.8495 74.7784 50.879 75.5342 50.915 76.4711C50.9684 78.465 51.0414 81.2233 51.1298 84.495L50.8909 84.3535C53.4442 83.0682 56.3857 81.5438 59.5018 79.9122C64.617 77.2258 69.2589 74.8041 72.6651 73.1372C74.3665 72.301 75.7538 71.646 76.7179 71.2043C77.1727 71.0017 77.5425 70.8377 77.8348 70.708C78.0911 70.6008 78.2285 70.5483 78.234 70.5601Z" fill="#263238"/>
<path d="M47.3343 75.0518C46.6319 71.5142 46.9831 67.4577 46.9831 67.4577C46.9831 67.4577 48.7391 62.5383 48.4763 61.6754C48.2123 60.8124 47.7739 59.8637 46.0179 60.7266C44.262 61.5896 42.0664 63.1429 41.8036 65.9912C41.5396 68.8385 41.1012 69.874 41.1012 69.874L39.4325 67.372L39.7837 64.7831C39.7837 64.7831 42.2616 64.1699 42.3467 62.8674C42.3544 62.7409 39.8425 61.1168 39.8425 61.1168C39.8425 61.1168 35.3937 61.3323 34.9542 62.9714C34.5146 64.6105 33.3738 68.1492 33.3738 68.1492C33.3738 68.1492 29.6863 68.7538 29.2467 71.6878C29.2467 71.6878 27.1396 74.4493 27.2279 76.1752C27.2279 76.1752 26.086 78.1595 26.1743 79.7997C26.2616 81.4388 31.091 88.3424 31.091 88.3424L32.5645 99.1653L46.1259 94.6565L45.2261 84.8038C45.2261 84.8038 48.0367 78.5894 47.3343 75.0518Z" fill="#AE7461"/>
<path d="M47.3343 74.9864C47.3484 74.9832 47.3932 75.2094 47.4663 75.6532C47.5023 76.0991 47.5382 76.768 47.4324 77.6278C47.2448 79.3494 46.6275 81.8279 45.3711 84.8005L45.3842 84.7244C45.6514 87.4827 45.9742 90.8134 46.3374 94.5718L46.3548 94.7466L46.1803 94.7916C42.0936 95.8507 37.4899 97.0438 32.4936 98.3388L32.2144 98.4106L32.1751 98.1287C31.7465 95.0221 31.2916 91.7289 30.8205 88.3113L30.8663 88.4271C29.6251 86.6305 28.3784 84.7619 27.2202 82.7648C26.9311 82.2653 26.6552 81.7518 26.3956 81.2222C26.1633 80.7034 25.8656 80.102 25.8906 79.4416C25.9528 78.1906 26.4065 77.0575 26.9813 75.9705L26.9454 76.1206C26.9301 75.4441 27.1438 74.7891 27.4045 74.176C27.8397 73.1919 28.3981 72.3032 29.0209 71.4531L28.9675 71.5796C29.1223 70.5365 29.7484 69.6017 30.5707 68.995C31.4029 68.3904 32.3332 68.012 33.3279 67.8115L33.1076 67.9991C33.6584 66.2121 34.2016 64.454 34.7338 62.7291C34.9421 62.1899 35.4024 61.8876 35.8201 61.6657C36.252 61.447 36.7003 61.3109 37.1453 61.1897C38.0418 60.9657 38.9296 60.8446 39.8294 60.7877L39.9167 60.7824L39.9897 60.8306C40.4532 61.1383 40.9124 61.4427 41.3694 61.7461L42.0445 62.2156L42.3805 62.4686L42.4721 62.548C42.496 62.5748 42.4841 62.5501 42.5386 62.6187C42.5921 62.6766 42.616 62.8267 42.6062 62.8288L42.5626 63.0722C42.3652 63.7154 41.845 64.0788 41.3738 64.3543C40.8808 64.6244 40.3802 64.8163 39.8468 64.9589L40.0366 64.7499C39.9145 65.631 39.7956 66.4908 39.6789 67.3377L39.6407 67.1726C40.2089 68.0302 40.7608 68.8631 41.3018 69.68L40.8808 69.7186C41.2058 68.7806 41.3585 67.7311 41.4861 66.7491C41.5744 65.7779 41.701 64.7016 42.1863 63.8258C43.1352 62.0334 44.8028 60.9603 46.4137 60.2893C46.8304 60.1424 47.3386 60.0438 47.7967 60.2732C48.2504 60.5101 48.4456 60.9582 48.5754 61.3334C48.6387 61.4985 48.7063 61.7751 48.6736 61.9702C48.6682 62.1813 48.6256 62.3679 48.5951 62.5608C48.5209 62.9392 48.4326 63.3027 48.3355 63.6553C47.9472 65.064 47.5153 66.3171 47.1128 67.4384L47.1205 67.4052C46.9307 69.8569 47.0191 71.7661 47.1227 73.0439C47.1794 73.6839 47.2393 74.1685 47.2841 74.4933C47.3288 74.817 47.3463 74.9842 47.3343 74.9864C47.3223 74.9885 47.2808 74.8256 47.211 74.504C47.1423 74.1813 47.0594 73.6978 46.9787 73.0568C46.8293 71.7747 46.6951 69.8633 46.8467 67.3816L46.8478 67.3666L46.8544 67.3484C47.2339 66.2281 47.6473 64.9685 48.0116 63.5728C48.1032 63.2244 48.185 62.8653 48.2515 62.5008C48.2777 62.3207 48.3169 62.131 48.3169 61.9552C48.3398 61.7643 48.3006 61.6518 48.2319 61.4492C48.1086 61.0954 47.9276 60.7481 47.6233 60.6012C47.3234 60.4479 46.9198 60.5079 46.5424 60.6484C45.034 61.2916 43.4209 62.3614 42.5746 64.0177C42.1307 64.8506 42.0282 65.7725 41.9398 66.8017C41.81 67.8158 41.6846 68.832 41.3214 69.8997L41.1709 70.3414L40.9004 69.9383C40.3551 69.1247 39.7978 68.295 39.2252 67.4406L39.175 67.3655L39.187 67.2755C39.2993 66.4286 39.4138 65.5678 39.5316 64.6855L39.5535 64.5215L39.7214 64.4765C40.1948 64.3479 40.6812 64.1592 41.1153 63.9169C41.5429 63.6736 41.9464 63.3423 42.0565 62.9435L42.0838 62.7945L42.0849 62.7892L42.086 62.787C42.0325 62.7827 42.5604 62.8149 42.3303 62.801L42.3172 62.7999C42.2834 62.7967 42.2496 62.801 42.218 62.8117C42.17 62.8213 42.0652 62.9082 42.111 62.9178C42.147 62.9575 42.1056 62.9178 42.1056 62.9178L42.0445 62.8663L41.7326 62.6337L41.0673 62.1749C40.6136 61.8758 40.1555 61.5746 39.6941 61.2701L39.8534 61.313C39.0016 61.3688 38.1236 61.492 37.2805 61.7064C36.4766 61.923 35.5202 62.2575 35.2486 62.9103C34.7218 64.6309 34.1852 66.3836 33.6387 68.1663L33.5919 68.3196L33.4185 68.355C32.5405 68.5319 31.6439 68.8964 30.9121 69.4356C30.1802 69.9823 29.6622 70.7681 29.5258 71.6621L29.5149 71.7296L29.4713 71.7886C28.8802 72.5947 28.3294 73.4749 27.9237 74.3968C27.6761 74.9692 27.4961 75.5728 27.5092 76.0948L27.5114 76.1742L27.4732 76.246C26.9366 77.2494 26.5014 78.3696 26.4524 79.4577C26.4305 79.9776 26.6694 80.4632 26.9028 80.9907C27.1526 81.5009 27.4219 82.0037 27.7055 82.4979C28.8453 84.4704 30.0876 86.341 31.3146 88.1259L31.3516 88.1806L31.3604 88.2427C31.8195 91.6613 32.2624 94.9567 32.6801 98.0644L32.3627 97.8554C37.3667 96.5915 41.978 95.4262 46.0712 94.3917L45.9142 94.6115C45.5914 90.8498 45.3057 87.5148 45.069 84.7544L45.0656 84.7148L45.082 84.6773C46.3646 81.7561 47.0289 79.3022 47.2645 77.6106C47.5306 75.9072 47.2786 74.9907 47.3343 74.9864Z" fill="#6F4439"/>
<path d="M44.012 74.6616C43.8735 74.7312 43.0304 73.5628 42.1306 72.0512C41.2297 70.5387 40.6092 69.249 40.7433 69.1697C40.8775 69.0904 41.7194 70.2589 42.6247 71.7811C43.5289 73.3012 44.1505 74.5908 44.012 74.6616Z" fill="#6F4439"/>
<g opacity="0.3">
<path d="M55.1553 152.653C65.0193 152.558 74.8189 149.118 82.5113 143.049C90.2038 136.98 95.7411 128.321 97.9683 118.875L55.1553 152.653Z" fill="black"/>
</g>
<path d="M46.5305 94.143L59.0263 127.502L85.4956 88.5729C85.4956 88.5729 98.1724 74.5962 104.132 82.8409C110.091 91.0846 107.059 106.692 103.283 114.096C99.7681 120.99 67.2542 161.793 61.2948 162.443C55.3354 163.094 46.3516 160.841 42.3783 153.464C38.405 146.088 24.8818 101.114 24.8818 101.114L46.5305 94.143Z" fill="#FF725E"/>
<path d="M100.676 81.2029C100.676 81.3819 97.7909 81.0936 94.521 82.2428C91.2349 83.348 89.1626 85.3408 89.0492 85.2015C88.9281 85.1382 90.9044 82.8763 94.3346 81.7175C97.7505 80.5222 100.73 81.0786 100.676 81.2029Z" fill="#263238"/>
<path d="M103.782 113.317C100.383 120.211 68.9544 161.013 63.1935 161.664C57.4326 162.315 48.7487 160.061 44.9085 152.685C41.0682 145.308 27.7959 99.5373 27.7959 99.5373L48.9221 93.3626L61.0013 126.721L86.5872 87.7925" fill="#FF725E"/>
<path d="M86.5873 87.7935C86.5873 87.7935 86.451 88.0422 86.1566 88.5085C85.849 88.9909 85.4094 89.6781 84.8412 90.5667C83.6632 92.3849 81.9498 95.0284 79.7587 98.4084C75.3229 105.198 68.9578 114.943 61.1868 126.84L60.9425 127.214L60.7898 126.795C57.219 116.973 53.1159 105.686 48.6682 93.4515L48.9975 93.6155C42.2278 95.5976 35.1613 97.6677 27.8746 99.801L28.0644 99.4611C29.7451 105.116 31.5065 111.044 33.2996 117.078C35.7361 125.138 38.1694 132.99 40.6616 140.526C41.9376 144.279 43.1537 147.999 44.6578 151.483C46.0953 154.991 48.9005 157.732 52.1539 159.356C55.4063 160.996 59.0459 161.698 62.4945 161.471L63.1402 161.422L63.7008 161.264C64.0651 161.068 64.4414 160.9 64.7817 160.641C65.1339 160.413 65.4731 160.162 65.7982 159.892C66.1319 159.636 66.4547 159.367 66.7667 159.084C68.0351 157.984 69.2119 156.814 70.3495 155.648C74.8768 150.956 78.788 146.297 82.3251 142.029C89.3631 133.459 94.7782 126.302 98.4145 121.287C100.23 118.778 101.595 116.798 102.481 115.431C102.929 114.75 103.246 114.217 103.458 113.858C103.663 113.496 103.782 113.316 103.782 113.316C103.782 113.316 103.698 113.513 103.509 113.885C103.314 114.255 103.011 114.798 102.578 115.49C101.723 116.879 100.385 118.881 98.5956 121.412C95.0117 126.471 89.6423 133.668 82.6381 142.278C79.1163 146.567 75.2215 151.242 70.6898 155.968C69.5511 157.143 68.3722 158.324 67.0895 159.442C66.7754 159.728 66.4471 160.003 66.1057 160.267C65.7763 160.543 65.4273 160.802 65.0586 161.043C64.7118 161.307 64.2963 161.502 63.896 161.713C63.6659 161.781 63.4292 161.855 63.198 161.908L62.5327 161.962C58.9826 162.202 55.2667 161.493 51.9151 159.815C48.5689 158.158 45.6437 155.304 44.1637 151.703C42.6313 148.166 41.4174 144.46 40.1337 140.698C37.6317 133.155 35.1941 125.301 32.7564 117.239C30.935 111.21 29.1736 105.281 27.5256 99.6134L27.4492 99.3507L27.7154 99.2735C35.0043 97.1478 42.074 95.0863 48.8448 93.1106L49.0891 93.0399L49.1742 93.2757C53.5903 105.521 57.665 116.819 61.2097 126.649L60.8127 126.604C68.6525 114.751 75.0732 105.041 79.5471 98.2766C81.7819 94.9244 83.5291 92.3023 84.7311 90.4992C85.3222 89.6245 85.7792 88.9491 86.0998 88.4742C86.4129 88.0186 86.5873 87.7935 86.5873 87.7935Z" fill="#263238"/>
<g opacity="0.3">
<path d="M82.3296 155.799C81.7908 155.211 80.9096 155.099 80.1079 155.029C66.3056 153.818 52.4127 153.61 38.5797 154.407L24.5265 164.966C24.3203 165.406 24.5995 165.947 25.0162 166.206C25.4317 166.465 25.9443 166.515 26.4351 166.557C30.0867 166.87 33.7382 167.184 37.3909 167.497C40.7687 167.786 44.1563 168.077 47.545 167.964C49.6576 167.894 51.7658 167.667 53.8796 167.675C57.3871 167.688 60.8544 168.343 64.3413 168.71C67.1094 169.002 69.9287 169.111 72.6609 168.584C75.393 168.056 78.051 166.846 79.9258 164.823C81.6491 162.963 82.6274 160.492 82.8291 157.984C82.888 157.219 82.852 156.37 82.3296 155.799Z" fill="black"/>
</g>
<path d="M82.5322 154.415C82.0916 154.199 76.3176 151.892 76.3176 151.892L68.8945 150.441L76.0264 150.16L82.2562 151.866C82.2562 151.866 84.7419 152.143 84.1878 150.086C83.6348 148.03 76.0373 145.758 76.0373 145.758L66.3478 145.103C66.3478 145.103 73.8352 144.026 74.6063 141.754C75.3774 139.481 74.0555 138.183 74.0555 138.183C74.0555 138.183 68.7702 140.239 66.2377 140.672C63.7051 141.105 60.6218 142.079 56.5481 143.703C52.4745 145.326 50.0892 146.625 50.0892 146.625L45.9785 160.694C45.9785 160.694 52.805 164.914 60.5127 164.698C68.2205 164.481 75.047 166.929 76.0373 166.247C77.0287 165.564 77.1389 164.374 76.0373 163.833C74.9368 163.291 70.2687 162.643 70.2687 162.643L66.2387 161.02C66.2387 161.02 80.0018 162.211 81.1023 161.669C82.2039 161.128 83.3044 160.37 82.8637 159.18C82.4231 157.99 81.3227 157.99 81.3227 157.99C81.3227 157.99 84.2958 158.099 84.1857 156.908C84.0744 155.714 82.9729 154.632 82.5322 154.415Z" fill="#AE7461"/>
<path d="M66.5908 155.854C66.5919 155.915 67.4775 155.943 68.903 156.029C70.3285 156.113 72.2928 156.277 74.4447 156.596C76.5966 156.917 78.5227 157.333 79.9089 157.668C81.2963 158.001 82.1503 158.234 82.1699 158.175C82.1863 158.126 81.3628 157.796 79.9864 157.39C78.611 156.982 76.6773 156.517 74.5069 156.193C72.3364 155.871 70.3504 155.751 68.9139 155.74C67.4764 155.728 66.5897 155.802 66.5908 155.854Z" fill="#6F4439"/>
<path d="M25.8895 141.36L24.1085 104.135L20.1112 87.1664L6.04047 125.279L1.28844 142.352C-2.21478 158.518 11.351 164.658 17.1152 164.449L47.2535 165.522L50.0882 146.623L25.8895 141.36Z" fill="#FF725E"/>
<path d="M25.4086 140.772C24.8392 128.213 24.271 115.655 23.7017 103.096L25.4086 140.772Z" fill="#FF725E"/>
<path d="M23.7026 103.097C23.8596 103.091 24.3689 111.519 24.8401 121.922C25.3113 132.328 25.5665 140.765 25.4095 140.773C25.2524 140.779 24.7441 132.352 24.2719 121.946C23.8007 111.544 23.5455 103.104 23.7026 103.097Z" fill="#263238"/>
<path d="M15.5717 164.344C15.5728 164.329 15.7801 164.32 16.1792 164.32C16.6253 164.326 17.2078 164.333 17.9363 164.342C19.5243 164.383 21.7471 164.439 24.5163 164.509C30.1899 164.696 38.093 164.955 47.2644 165.256L46.9862 165.486C47.5588 161.343 48.1816 156.842 48.8283 152.171C49.1152 150.116 49.3987 148.094 49.667 146.171L49.8831 146.478C44.4788 145.266 39.3788 144.158 34.7664 143.201C32.4596 142.726 30.2739 142.289 28.2311 141.921C26.1872 141.545 24.2916 141.27 22.5433 141.314C19.0466 141.327 16.3068 142.263 14.7145 143.317C13.0905 144.353 12.5321 145.305 12.4721 145.245C12.4579 145.235 12.6139 145.023 12.9291 144.625C13.2672 144.249 13.7853 143.693 14.6011 143.151C16.1913 142.022 18.9812 141.007 22.5378 140.945C24.3124 140.876 26.2614 141.134 28.3096 141.491C30.3645 141.841 32.5567 142.26 34.8689 142.72C39.4933 143.647 44.5998 144.734 50.0106 145.938L50.2615 145.994L50.2266 146.244C49.9593 148.168 49.6791 150.189 49.3933 152.245C48.7378 156.915 48.1063 161.415 47.525 165.556L47.4912 165.797L47.2458 165.787C38.0777 165.405 30.1769 165.076 24.5054 164.84C21.7395 164.705 19.5189 164.596 17.9319 164.519C17.2045 164.474 16.6243 164.437 16.1782 164.41C15.7779 164.383 15.5706 164.359 15.5717 164.344Z" fill="#263238"/>
<path d="M61.0659 126.36C63.1447 130.308 64.3728 134.687 64.6465 139.125L61.0659 126.36Z" fill="#FF725E"/>
<path d="M64.6465 139.125C64.4731 139.137 64.2605 136.155 63.2592 132.634C62.282 129.105 60.91 126.438 61.0659 126.361C61.1837 126.286 62.8077 128.884 63.8068 132.486C64.8276 136.08 64.7872 139.13 64.6465 139.125Z" fill="#263238"/>
<g opacity="0.3">
<path d="M25.0998 140.791C22.7778 140.094 20.4274 139.416 18.0072 139.236C15.5871 139.056 13.061 139.407 10.9877 140.647C10.3126 141.052 9.67017 141.572 9.34516 142.279C9.02014 142.988 9.09101 143.914 9.68106 144.432C10.2122 144.898 11.0237 144.927 11.701 144.709C12.3772 144.492 12.9607 144.065 13.5584 143.685C16.7464 141.663 20.7088 140.851 24.4531 141.455" fill="black"/>
</g>
</svg>
