<svg width="170" height="412" viewBox="0 0 170 412" fill="none" xmlns="http://www.w3.org/2000/svg">
<path d="M52.474 8.26931C50.9885 5.02865 46.6029 3.94379 43.1313 4.93646C40.0131 5.82836 37.3268 8.08386 35.9439 10.9718C34.4671 14.056 34.4835 17.5968 34.4038 21.0047C34.1388 32.3732 32.4995 43.6668 31.8691 55.0214C31.2387 66.3749 31.6564 77.9804 35.3713 88.7486L56.1256 87.2275L63.8486 83.7767L52.474 8.26931Z" fill="#263238"/>
<path d="M94.4409 13.0226C93.1081 11.1187 91.4906 9.44101 89.4085 8.36687C86.1355 6.67739 83.2648 4.2997 79.9645 2.66168C71.827 -1.37547 61.434 -0.279888 54.0971 5.03616C46.7602 10.3522 42.6462 19.5371 43.1806 28.4808C43.7162 37.4245 48.7299 45.9169 56.1149 51.1686L91.8102 42.6205C94.0417 36.6752 95.0178 30.9753 95.7246 23.7758C95.9722 21.2341 95.585 14.6574 94.4409 13.0226Z" fill="#263238"/>
<path d="M51.7876 25.3184C52.2053 19.5199 56.0237 14.7646 61.7541 13.327L79.6159 8.84818C87.3357 8.0281 92.4901 17.362 92.9962 24.9775C93.5579 33.4377 93.9037 42.3664 92.8981 48.6826C90.876 61.3826 80.9793 63.0196 80.9793 63.0196C80.9782 63.0003 80.9771 69.0592 80.9705 72.7673L81.156 88.9084L55.7292 70.9352L51.7428 25.4717C51.7374 25.2551 51.7668 25.6078 51.7876 25.3184Z" fill="#FFBF9D"/>
<path d="M90.1105 34.8002C90.1432 35.66 89.4299 36.3964 88.517 36.4468C87.6063 36.4972 86.8396 35.8422 86.8058 34.9825C86.773 34.1227 87.4863 33.3852 88.3971 33.3359C89.311 33.2855 90.0778 33.9405 90.1105 34.8002Z" fill="#263238"/>
<path d="M90.7878 30.2035C90.5827 30.4168 89.3263 29.5067 87.543 29.5142C85.762 29.497 84.4564 30.4018 84.2623 30.1874C84.1674 30.0931 84.3757 29.7093 84.944 29.2998C85.5035 28.8924 86.4589 28.4958 87.5692 28.4979C88.6795 28.5011 89.6142 28.901 90.1519 29.3116C90.7016 29.7254 90.8881 30.1092 90.7878 30.2035Z" fill="#263238"/>
<path d="M74.2926 35.1894C74.3253 36.0491 73.612 36.7856 72.6992 36.8349C71.7884 36.8853 71.0217 36.2303 70.9879 35.3705C70.9552 34.5108 71.6685 33.7733 72.5803 33.7239C73.4932 33.6736 74.2599 34.3285 74.2926 35.1894Z" fill="#263238"/>
<path d="M74.2084 30.5315C74.0023 30.7449 72.7447 29.8347 70.9626 29.8433C69.1826 29.8262 67.876 30.7309 67.6819 30.5165C67.587 30.4222 67.7931 30.0384 68.3635 29.63C68.923 29.2226 69.8785 28.826 70.9888 28.8271C72.0991 28.8313 73.0338 29.2312 73.5726 29.6407C74.1212 30.0534 74.3088 30.4372 74.2084 30.5315Z" fill="#263238"/>
<path d="M79.7012 43.7128C79.6936 43.6131 80.8006 43.4234 82.5958 43.1929C83.0507 43.1457 83.4815 43.0557 83.5578 42.7502C83.6647 42.4264 83.4727 41.9451 83.2513 41.4252C82.8205 40.3435 82.3701 39.2094 81.8978 38.0216C80.0175 33.1751 78.6553 29.1894 78.8549 29.1176C79.0545 29.0447 80.7406 32.9135 82.6198 37.76C83.0725 38.9553 83.5055 40.0938 83.9166 41.184C84.0901 41.6921 84.3878 42.2678 84.1566 42.9399C84.0344 43.2744 83.7018 43.5177 83.4095 43.596C83.1183 43.6839 82.862 43.6893 82.6362 43.7032C80.829 43.8018 79.7078 43.8125 79.7012 43.7128Z" fill="#263238"/>
<path d="M63.8472 58.5022C63.8472 58.5022 68.0506 67.2229 80.9761 66.0062L80.9804 63.0196C80.9804 63.0196 72.4678 63.5695 63.8472 58.5022Z" fill="#FF9A6C"/>
<path d="M73.5696 23.6214C73.3951 24.0985 71.614 23.8765 69.5243 24.1285C67.4281 24.3397 65.743 24.9453 65.4649 24.5187C65.3405 24.315 65.6339 23.8658 66.3145 23.4027C66.9896 22.9407 68.0672 22.5012 69.3226 22.3607C70.5779 22.2235 71.7275 22.4165 72.4899 22.7199C73.2566 23.0211 73.6438 23.3941 73.5696 23.6214Z" fill="#263238"/>
<path d="M88.9128 23.8669C88.5998 24.2657 87.3717 23.8551 85.895 23.839C84.4193 23.7715 83.1683 24.1124 82.8793 23.6965C82.7528 23.4949 82.9491 23.0961 83.4944 22.7177C84.0321 22.3415 84.9319 22.0327 85.9462 22.0606C86.9605 22.0906 87.8407 22.4486 88.3555 22.856C88.879 23.2634 89.0514 23.6729 88.9128 23.8669Z" fill="#263238"/>
<path d="M53.5569 34.5172C53.4205 34.1527 46.6835 31.7633 46.594 38.802C46.5079 45.6403 53.5274 44.2939 53.5416 44.0977C53.5547 43.9015 53.5569 34.5172 53.5569 34.5172Z" fill="#FFBF9D"/>
<path d="M51.4192 41.4874C51.3887 41.4659 51.2971 41.5699 51.091 41.66C50.8903 41.7479 50.5467 41.8068 50.1846 41.6707C49.4517 41.3984 48.8442 40.246 48.8224 39.0132C48.8104 38.3904 48.9489 37.7997 49.1779 37.3109C49.395 36.8124 49.7276 36.4661 50.0984 36.405C50.4671 36.3246 50.7278 36.5455 50.8106 36.7384C50.9023 36.9303 50.8565 37.0665 50.8935 37.0782C50.9132 37.0954 51.044 36.9646 50.9906 36.6827C50.9633 36.5465 50.8837 36.3847 50.7212 36.2517C50.5554 36.1167 50.3111 36.047 50.0526 36.0716C49.5149 36.1027 49.0285 36.5841 48.7766 37.1201C48.4952 37.6582 48.325 38.3228 48.3381 39.0218C48.3697 40.4004 49.0754 41.6964 50.0777 41.9912C50.5663 42.122 50.9753 41.9805 51.188 41.8208C51.4051 41.6525 51.4432 41.5003 51.4192 41.4874Z" fill="#FF9A6C"/>
<path d="M50.6283 42.6966C49.951 42.5722 49.217 43.0364 49.049 43.6925C48.8811 44.3496 49.3053 45.099 49.9619 45.3037C50.6185 45.5095 51.406 45.1397 51.6557 44.5083C51.9055 43.8769 51.5783 43.0815 50.9533 42.7974" fill="white"/>
<path d="M50.9533 42.7974C50.913 42.8381 51.407 43.0343 51.5794 43.7161C51.6601 44.042 51.6165 44.474 51.3078 44.7891C51.0155 45.1043 50.4876 45.3015 50.011 45.1547C49.5365 45.0035 49.2203 44.5426 49.1679 44.1191C49.1025 43.6861 49.3206 43.3087 49.578 43.0889C50.1201 42.6312 50.6381 42.7513 50.6294 42.6955C50.6338 42.6784 50.5225 42.6248 50.3033 42.6205C50.0873 42.6151 49.7558 42.6805 49.4351 42.9185C49.1188 43.1436 48.8134 43.6046 48.8778 44.1513C48.9291 44.6766 49.2933 45.248 49.915 45.4516C50.5421 45.6382 51.1758 45.3798 51.5259 44.98C51.9 44.5704 51.9218 44.0194 51.7964 43.6571C51.6753 43.2798 51.443 43.0396 51.2642 42.9206C51.082 42.8006 50.9599 42.7813 50.9533 42.7974Z" fill="#263238"/>
<path d="M82.9755 7.88017C82.5414 7.11369 81.5314 6.90787 80.6447 6.81354C68.2886 5.49819 55.4078 10.9557 47.8975 20.6884L49.8814 32.5115C49.0394 33.9823 52.9909 36.9399 54.7043 36.8349C56.4177 36.7298 57.7549 35.2548 58.3646 33.6779C59.5578 30.5926 58.8761 26.6412 61.329 24.3868C62.712 23.1165 64.7079 22.8013 66.5566 22.4015C70.0805 21.6404 73.5238 20.3497 76.4577 18.2861C79.3916 16.2214 81.7965 13.3452 82.9319 9.97915C83.1631 9.29414 83.3321 8.50943 82.9755 7.88017Z" fill="#263238"/>
<path d="M46.1144 38.2467C46.0838 38.2607 45.8253 37.8286 45.4382 37.0075C45.0488 36.1863 44.5624 34.961 44.1239 33.3948C43.235 30.285 42.7039 25.6882 43.7782 20.8074C44.8503 15.9245 47.265 11.9527 49.3809 9.48174C50.4378 8.23394 51.3965 7.31523 52.0945 6.72456C52.7925 6.13282 53.2092 5.84444 53.231 5.87017C53.3084 5.95164 51.7029 7.20267 49.6939 9.7283C47.6871 12.2282 45.3825 16.1474 44.3333 20.9253C43.283 25.7011 43.7356 30.2056 44.5133 33.2973C45.2822 36.4136 46.2191 38.2038 46.1144 38.2467Z" fill="#455A64"/>
<path d="M78.8363 3.06154C78.8592 3.00044 79.3326 3.08405 79.9979 3.46461C80.661 3.83981 81.479 4.55805 82.0691 5.56573C82.6548 6.57555 82.8707 7.63362 82.8642 8.38509C82.8609 9.14192 82.694 9.58573 82.6297 9.57287C82.4606 9.56858 82.6995 7.71723 81.5772 5.8423C80.4996 3.94272 78.7535 3.20733 78.8363 3.06154Z" fill="#455A64"/>
<path d="M78.2868 46.9749L78.1789 46.7562C76.9966 46.3778 75.8154 45.9983 74.6331 45.6199C74.3081 45.5159 73.9623 45.4098 73.6264 45.4816C73.2632 45.5588 72.9829 45.8322 72.7866 46.1281C72.118 47.1411 72.2882 48.5669 73.1694 49.4277C74.0507 50.2885 75.558 50.5136 76.6912 49.9658C77.8255 49.418 78.4962 48.1488 78.2868 46.9749Z" fill="#FF9A6C"/>
<path d="M54.5054 352.865L58.5986 387.575L74.0741 385.26L75.1168 351.051L54.5054 352.865Z" fill="#FFBF9D"/>
<path d="M74.1275 378.379C74.1275 378.379 63.74 387.038 57.953 380.676L56.8034 384.061L52.2564 407.903C51.9619 409.447 52.7876 411.059 54.2774 411.519C55.4248 411.873 56.6365 411.531 57.4196 410.662C61.6132 406.006 76.9578 388.804 76.6415 386.654L76.166 380.922C76.0678 379.733 75.2607 378.727 74.1275 378.379Z" fill="#455A64"/>
<g opacity="0.6">
<path d="M54.8271 411.636L76.5074 384.658L76.5925 385.911C76.8074 387.261 76.2566 387.843 75.6774 388.762C73.9629 391.486 69.1171 397.656 57.5102 410.656C56.8351 411.413 55.8251 411.783 54.8271 411.636Z" fill="white"/>
</g>
<g opacity="0.6">
<path d="M72.7979 381.189C72.0955 381.755 71.9308 382.894 72.4619 383.621C72.992 384.347 74.1405 384.522 74.8527 383.968C75.5638 383.415 75.8037 382.053 75.1962 381.392C74.5876 380.729 73.2276 380.6 72.6681 381.308" fill="white"/>
</g>
<path d="M60.6721 398.222C60.5118 398.317 59.7429 396.815 57.9378 396.108C56.1535 395.347 54.5578 395.882 54.5077 395.702C54.4771 395.631 54.8338 395.374 55.5154 395.227C56.1906 395.076 57.1918 395.102 58.1832 395.505C59.1725 395.911 59.9054 396.595 60.2838 397.176C60.6678 397.759 60.743 398.193 60.6721 398.222Z" fill="#263238"/>
<path d="M58.846 402.335C58.7151 402.474 57.7063 401.581 56.1554 401.253C54.6121 400.89 53.3185 401.27 53.2585 401.089C53.1637 400.944 54.5368 400.214 56.2982 400.617C58.0629 401.001 58.9933 402.245 58.846 402.335Z" fill="#263238"/>
<path d="M64.2262 392.862C64.0975 393.012 62.5521 391.632 60.1864 390.908C57.8306 390.148 55.7747 390.399 55.755 390.201C55.6972 390.047 57.8535 389.478 60.3816 390.286C62.9174 391.068 64.3626 392.769 64.2262 392.862Z" fill="#263238"/>
<path d="M64.2376 385.71C64.171 385.893 62.5001 385.328 60.381 385.404C58.2607 385.451 56.6203 386.114 56.5451 385.935C56.4546 385.796 58.0862 384.81 60.3646 384.754C62.6419 384.676 64.3204 385.566 64.2376 385.71Z" fill="#263238"/>
<path d="M59.1725 385.432C59.1354 385.429 59.1136 385.025 59.2576 384.313C59.4026 383.607 59.7276 382.577 60.4671 381.489C60.8456 380.977 61.2546 380.308 62.1151 380.01C62.5437 379.859 63.1414 380.001 63.4446 380.43C63.7467 380.847 63.8002 381.344 63.7576 381.812C63.5166 383.68 61.717 385.314 59.5957 385.353C57.47 385.353 55.7042 383.937 55.0552 382.229C54.92 381.791 54.8524 381.263 55.1359 380.79C55.4162 380.312 56.0335 380.178 56.4447 380.296C57.2998 380.522 57.7917 381.087 58.2607 381.518C59.1779 382.447 59.7058 383.374 60.0014 384.029C60.2981 384.688 60.3722 385.085 60.3373 385.098C60.2261 385.163 59.7604 383.568 57.9444 381.852C57.483 381.452 56.9552 380.952 56.3357 380.825C56.0335 380.76 55.7576 380.854 55.6213 381.089C55.4828 381.316 55.5024 381.692 55.6235 382.038C56.1775 383.438 57.7939 384.729 59.5913 384.7C61.3789 384.686 62.9593 383.246 63.1676 381.744C63.2123 381.382 63.1578 381.007 62.9898 380.77C62.824 380.537 62.5416 380.447 62.2602 380.528C61.6647 380.696 61.212 381.273 60.8423 381.754C59.3612 383.786 59.299 385.476 59.1725 385.432Z" fill="#263238"/>
<path d="M115.821 380.215C115.465 379.679 112.221 368.064 112.221 368.064L132.256 362.704L135.096 379.444L115.821 380.215Z" fill="#FFBF9D"/>
<path d="M134.921 376.15L134.942 377.487C134.942 377.487 156.991 386.317 157.274 390.614L113.701 390.926L114.193 375.945C120.692 378.998 127.474 379.298 134.921 376.15Z" fill="#455A64"/>
<g opacity="0.6">
<path d="M118.637 380.701C117.795 380.946 117.22 381.929 117.421 382.808C117.623 383.687 118.586 384.3 119.431 384.072C120.277 383.843 121.004 382.685 120.709 381.835C120.413 380.984 119.244 380.327 118.476 380.759" fill="white"/>
</g>
<g opacity="0.6">
<path d="M113.701 390.926L113.82 387.323L155.539 388.344C155.539 388.344 157.485 389.201 157.275 390.614L113.701 390.926Z" fill="white"/>
</g>
<path d="M135.095 377.612C135.089 377.832 134.026 377.939 132.984 378.653C131.924 379.339 131.391 380.294 131.194 380.209C130.998 380.169 131.307 378.852 132.583 378.011C133.851 377.156 135.139 377.41 135.095 377.612Z" fill="#263238"/>
<path d="M139.679 379.532C139.729 379.744 138.81 380.125 138.093 381.059C137.35 381.973 137.175 382.978 136.963 382.971C136.763 383.006 136.608 381.721 137.519 380.576C138.421 379.424 139.672 379.322 139.679 379.532Z" fill="#263238"/>
<path d="M142.311 385.163C142.118 385.211 141.815 384.116 142.353 382.908C142.883 381.696 143.883 381.214 143.975 381.396C144.096 381.576 143.454 382.227 143.027 383.225C142.577 384.213 142.523 385.141 142.311 385.163Z" fill="#263238"/>
<path d="M102.244 170.31C102.244 170.31 113.304 219.034 122.651 275.22C130.338 321.429 133.741 371.46 133.741 371.46L111.102 372.763C111.102 372.763 97.3086 315.457 86.5666 274.258C76.6601 236.264 68.6034 216.331 68.6034 216.331L64.0684 166.192L102.244 170.31Z" fill="#263238"/>
<path d="M39.7847 160.612C39.7847 160.612 19.927 186.996 21.5979 214.535C22.5969 231.011 54.5066 371.459 54.5066 371.459H77.9657L70.2231 221.22L77.0321 170.309L39.7847 160.612Z" fill="#263238"/>
<path d="M100.728 89.6105C100.751 89.6095 100.786 89.8903 100.834 90.4274C100.88 91.0309 100.939 91.8114 101.012 92.7794C101.171 94.8226 101.28 97.7856 101.352 101.449C101.491 108.776 101.143 118.901 100.397 130.046C99.6539 141.197 99.0115 151.285 98.8686 158.599C98.7857 162.255 98.7574 165.215 98.7846 167.261C98.7835 168.231 98.7835 169.014 98.7824 169.617C98.7748 170.156 98.7595 170.44 98.7377 170.44C98.7148 170.441 98.6865 170.16 98.6516 169.621C98.621 169.018 98.5818 168.235 98.5316 167.266C98.4269 165.22 98.3854 162.255 98.4094 158.592C98.4345 151.262 99.006 141.152 99.7488 130.007C100.494 118.864 100.913 108.766 100.893 101.452C100.88 97.7953 100.841 94.8344 100.759 92.7912C100.736 91.821 100.717 91.0384 100.703 90.4349C100.699 89.8957 100.706 89.6116 100.728 89.6105Z" fill="#263238"/>
<path d="M167.256 91.0459L155.147 95.4186L141.924 113.014L145.535 119.167L149.107 115.869C149.107 115.869 162.726 113.378 163.698 111.47C164.671 109.562 163.563 107.932 163.563 107.932C163.563 107.932 164.139 105.842 163.672 104.22C163.205 102.598 161.96 102.371 161.96 102.371C161.96 102.371 163.456 101.766 162.818 99.8931C162.18 98.0204 160.851 97.6677 160.851 97.6677C160.851 97.6677 168.975 93.8685 169.695 92.7922C169.947 92.4159 169.848 92.044 169.613 91.7202C169.077 90.9837 168.102 90.7404 167.256 91.0459Z" fill="#FFBF9D"/>
<path d="M139.845 109.343L142.292 105.971L147.573 96.5581L159.341 93.4408C159.341 93.4408 161.322 94.352 158.584 97.8027C155.846 101.254 152.012 100.553 152.012 100.553C152.012 100.553 152.848 108.061 150.769 111.413C148.691 114.765 143.08 115.057 143.08 115.057L139.845 109.343Z" fill="#FFBF9D"/>
<path d="M150.906 111.942C150.929 111.957 151.127 111.704 151.421 111.198C151.717 110.694 152.081 109.92 152.39 108.905C153.017 106.907 153.278 103.791 152.063 100.707L151.876 101.044C152.009 101.023 152.153 100.999 152.297 100.977C153.897 100.72 155.454 100.383 156.743 99.7013C158.045 99.0484 158.972 97.9796 159.425 96.9634C159.898 95.9407 159.93 94.9802 159.798 94.3723C159.668 93.757 159.46 93.4729 159.443 93.4837C159.401 93.5019 159.546 93.8117 159.612 94.4013C159.681 94.9845 159.599 95.8699 159.119 96.8069C158.648 97.7459 157.786 98.6936 156.543 99.2928C155.316 99.9157 153.812 100.233 152.221 100.487C152.077 100.511 151.934 100.533 151.802 100.555L151.501 100.604L151.616 100.893C152.783 103.843 152.595 106.841 152.067 108.811C151.548 110.815 150.822 111.896 150.906 111.942Z" fill="#FF9A6C"/>
<path d="M161.638 102.747C161.622 102.712 161.207 102.899 160.434 103.172C159.664 103.456 158.534 103.816 157.153 104.343C156.467 104.614 155.707 104.925 154.957 105.414C154.589 105.659 154.179 105.98 153.979 106.501C153.774 107.022 153.908 107.638 154.208 108.083C154.504 108.54 154.931 108.902 155.444 109.125C155.965 109.366 156.586 109.324 157.099 109.218C157.363 109.171 157.618 109.121 157.875 109.087C158.161 109.047 158.43 108.977 158.699 108.9C159.234 108.745 159.759 108.553 160.287 108.352C160.768 108.167 161.243 107.984 161.69 107.812L161.537 107.345C160.504 107.711 159.665 108.307 158.852 108.846C158.451 109.117 158.056 109.382 157.67 109.643C157.293 109.898 156.878 110.089 156.503 110.405C156.131 110.707 155.833 111.185 155.84 111.698C155.838 111.952 155.925 112.219 156.086 112.414C156.247 112.608 156.451 112.729 156.646 112.814C157.429 113.113 158.183 113.153 158.859 113.109C160.212 112.99 161.222 112.576 161.906 112.311C162.589 112.029 162.95 111.845 162.94 111.817C162.928 111.785 162.543 111.912 161.847 112.14C161.152 112.351 160.134 112.707 158.841 112.775C158.205 112.799 157.477 112.729 156.799 112.452C156.468 112.308 156.234 112.053 156.249 111.7C156.253 111.344 156.457 111.001 156.776 110.748C157.085 110.489 157.506 110.296 157.907 110.034C158.298 109.776 158.699 109.512 159.107 109.244C159.914 108.716 160.756 108.138 161.683 107.814L161.529 107.347C161.08 107.519 160.602 107.703 160.119 107.887C159.597 108.085 159.08 108.275 158.569 108.425C158.314 108.499 158.057 108.566 157.812 108.601C157.537 108.639 157.272 108.693 157.016 108.74C156.503 108.843 156.04 108.873 155.619 108.687C155.195 108.511 154.821 108.199 154.578 107.83C154.328 107.463 154.238 107.025 154.376 106.654C154.508 106.279 154.835 105.993 155.177 105.757C155.876 105.281 156.608 104.957 157.279 104.669C158.629 104.105 159.75 103.693 160.503 103.352C161.259 103.021 161.652 102.775 161.638 102.747Z" fill="#FF9A6C"/>
<path d="M160.725 97.7631C160.709 97.7073 159.718 97.9378 158.225 98.6239C157.48 98.968 156.616 99.4343 155.707 100.038C155.253 100.34 154.788 100.678 154.324 101.05C153.88 101.421 153.291 101.858 153.193 102.675C153.159 103.076 153.356 103.469 153.62 103.706C153.883 103.956 154.219 104.09 154.531 104.148C155.162 104.256 155.734 104.187 156.276 104.124C157.354 103.975 158.299 103.745 159.086 103.525C160.661 103.089 161.576 102.619 161.546 102.556C161.52 102.495 160.582 102.84 159.004 103.185C158.217 103.359 157.273 103.552 156.225 103.671C155.706 103.721 155.142 103.769 154.622 103.672C154.117 103.589 153.637 103.195 153.675 102.707C153.715 102.216 154.179 101.78 154.616 101.43C155.067 101.062 155.515 100.724 155.952 100.417C156.829 99.8063 157.659 99.3175 158.373 98.9391C159.803 98.1844 160.75 97.8381 160.725 97.7631Z" fill="#FF9A6C"/>
<path d="M117.447 119.111L105.303 80.8383C104.19 77.3329 101.474 74.6111 98.0334 73.5541L90.6157 71.9032L98.8219 134.032L100.66 138.694C104.998 148.201 114.497 146.593 122.87 142.394C123.171 142.243 123.464 142.086 123.748 141.925L148.251 122.522L140.146 108.169L117.447 119.111Z" fill="#455A64"/>
<path d="M114.74 130.036C114.89 130.041 114.94 127.489 115.768 124.497C116.572 121.496 117.818 119.288 117.687 119.213C117.595 119.139 116.13 121.284 115.303 124.363C114.456 127.435 114.624 130.051 114.74 130.036Z" fill="#263238"/>
<path d="M41.2466 91.7502L49.4538 167.027L94.9106 170.31L98.5328 167.266L97.273 110.424L80.9458 69.9404C79.0033 73.5616 75.283 74.788 70.796 74.4503C67.7389 74.2198 64.8312 73.0567 62.3433 71.2954L54.8319 65.9804L41.2466 91.7502Z" fill="white"/>
<path d="M54.9331 62.1084L47.6518 69.9415L23.2754 78.0211L38.4989 150.376L26.9052 178.38C25.6847 181.327 24.6704 184.353 23.8687 187.435L16.7271 214.903C16.7271 214.903 41.3216 221.484 47.6507 217.894C53.9788 214.303 61.7138 179.369 64.0576 171.076C66.4015 162.783 69.9167 138.132 68.2763 125.002C66.636 111.871 63.8231 92.5189 62.4162 85.8382C61.0125 79.1564 54.9331 62.1084 54.9331 62.1084Z" fill="#455A64"/>
<path d="M23.2767 78.0211C23.2767 78.0211 16.8854 86.237 15.0738 94.1312C12.0123 107.466 0.184048 143.859 0.887528 152.384C1.59101 160.907 47.4186 176.374 47.4186 176.374L49.2935 152.645L27.9742 141.601L33.8246 119.242" fill="#455A64"/>
<path d="M33.8245 119.241C33.8332 119.243 33.8081 119.375 33.7503 119.632C33.6838 119.912 33.5943 120.289 33.4787 120.771C33.2213 121.801 32.8527 123.276 32.3782 125.176C31.3879 129.042 29.9559 134.632 28.1596 141.648L28.0636 141.435C34.0328 144.509 41.277 148.237 49.4112 152.424L49.5584 152.5L49.5453 152.663C48.9858 159.87 48.3642 167.887 47.7032 176.394L47.6749 176.76L47.3247 176.639C38.3464 173.533 28.6733 169.91 18.9303 165.465C15.7281 163.983 12.5881 162.455 9.60513 160.739C6.6636 158.989 3.66754 157.249 1.54074 154.56C1.25826 154.239 1.08484 153.831 0.881978 153.448C0.760914 153.267 0.755463 153.025 0.688932 152.816C0.637671 152.598 0.574409 152.378 0.596223 152.175C0.614764 151.348 0.560231 150.512 0.686748 149.713C0.826353 148.093 1.12302 146.523 1.38587 144.962C2.00646 141.862 2.68376 138.845 3.4265 135.922C6.38003 124.226 9.5146 113.829 11.9751 105.054C13.2261 100.668 14.271 96.6943 15.1523 93.1728C16.1426 89.6598 17.603 86.8544 18.8496 84.6257C20.1093 82.3949 21.2425 80.7537 22.0213 79.6527C22.4128 79.1028 22.7248 78.6933 22.9374 78.421C23.1512 78.1487 23.2766 78.0211 23.2766 78.0211C23.2766 78.0211 23.185 78.1734 22.9876 78.4564C22.7782 78.7619 22.4903 79.1821 22.1216 79.7203C21.3767 80.8405 20.2784 82.4978 19.0558 84.7361C17.8451 86.9723 16.424 89.781 15.4773 93.2585C14.632 96.7683 13.609 100.776 12.3852 105.164C9.97704 113.957 6.88392 124.367 3.9642 136.051C3.23018 138.97 2.56051 141.98 1.94974 145.065C1.69234 146.614 1.40005 148.176 1.26589 149.764C1.14047 150.559 1.20045 151.345 1.17973 152.139C1.21899 152.898 1.52547 153.592 2.01954 154.226C4.00674 156.746 6.99408 158.514 9.90616 160.234C12.8662 161.935 15.9943 163.456 19.1855 164.934C28.8947 169.363 38.5612 172.995 47.5112 176.109L47.1339 176.354C47.8177 167.848 48.4623 159.834 49.0415 152.628L49.1756 152.867C41.0632 148.638 33.8387 144.872 27.8858 141.769L27.7516 141.699L27.7898 141.556C29.6592 134.559 31.148 128.984 32.1776 125.128C32.6945 123.238 33.0959 121.771 33.3751 120.748C33.5115 120.271 33.6172 119.898 33.6969 119.621C33.7721 119.366 33.8158 119.238 33.8245 119.241Z" fill="#263238"/>
<path d="M80.9795 64.7283L84.5602 70.1827L99.4946 73.8929C99.4946 73.8929 103.424 93.2285 103.424 98.5274C103.424 103.826 101.202 162.561 101.202 165.326C101.202 168.091 111.983 205.641 111.046 207.944C110.108 210.248 98.8577 211.86 98.8577 211.86C98.8577 211.86 94.639 179.378 94.639 168.32C94.639 157.262 94.17 130.079 91.8262 116.717C89.4823 103.356 81.0438 70.1816 81.0438 70.1816L80.9795 64.7283Z" fill="#455A64"/>
<path d="M94.8908 174.495C94.881 174.495 94.8733 174.401 94.869 174.219C94.8679 174.003 94.8668 173.737 94.8657 173.412C94.8766 172.654 94.8919 171.619 94.9104 170.31C94.9737 167.564 95.0642 163.68 95.1743 158.904C95.4034 149.273 95.7993 135.968 96.0425 121.276C96.06 119.44 96.0861 117.624 96.0698 115.839C96.0796 114.069 95.88 112.317 95.7448 110.585C95.4623 107.13 95.182 103.801 94.8548 100.636C94.5276 97.4715 94.1589 94.4699 93.6758 91.687C93.2002 88.9062 92.3746 86.4074 91.4901 84.1691C89.7025 79.6988 87.8571 76.2405 86.5788 73.8639C85.9429 72.7158 85.439 71.8067 85.0704 71.1421C84.9123 70.857 84.7825 70.6243 84.6767 70.4346C84.5905 70.2738 84.5491 70.1891 84.5578 70.1837C84.5665 70.1784 84.6254 70.2524 84.729 70.4035C84.849 70.5857 84.9951 70.8087 85.174 71.0821C85.5557 71.6845 86.1076 72.5797 86.7828 73.7546C88.1265 76.1022 90.0329 79.538 91.8838 84.0179C92.7978 86.2552 93.6616 88.7947 94.1644 91.6023C94.6726 94.4013 95.0598 97.4104 95.4023 100.58C95.7458 103.75 96.0381 107.084 96.3283 110.539C96.4657 112.262 96.6707 114.02 96.6642 115.834C96.6827 117.629 96.6576 119.445 96.6402 121.285C96.3959 135.987 95.9334 149.288 95.5953 158.916C95.4056 163.692 95.2507 167.574 95.1416 170.318C95.0751 171.625 95.0227 172.661 94.9846 173.417C94.9617 173.742 94.9431 174.006 94.9279 174.222C94.9148 174.403 94.9017 174.496 94.8908 174.495Z" fill="#263238"/>
<path d="M67.1086 152.383C67.0878 152.385 67.0398 152.088 66.9766 151.519C66.9155 150.95 66.8413 150.11 66.7694 149.026C66.633 146.86 66.4989 143.716 66.5643 139.833C66.5949 137.891 66.6777 135.763 66.8272 133.484C66.921 131.242 66.5 128.84 65.9481 126.353C64.7244 121.391 62.7797 116.082 60.5558 110.596C58.3003 105.115 55.9641 99.9693 53.7991 95.305C52.7467 92.9638 51.6015 90.7876 50.9132 88.5718C50.2185 86.3774 49.768 84.2923 49.3841 82.3863C48.6327 78.57 48.2237 75.4526 47.9575 73.299C47.8288 72.2216 47.7416 71.3833 47.6925 70.813C47.6434 70.2438 47.6303 69.9436 47.6511 69.9415C47.6718 69.9393 47.7241 70.2352 47.8125 70.7991C47.9074 71.4187 48.0317 72.2398 48.1888 73.2679C48.5258 75.4087 48.998 78.5132 49.7997 82.3038C50.2076 84.1959 50.6809 86.267 51.3866 88.4227C52.0737 90.5721 53.232 92.7386 54.3009 95.0777C56.4942 99.7324 58.8511 104.881 61.1121 110.375C63.3414 115.878 65.2795 121.211 66.4858 126.229C67.0278 128.749 67.4423 131.186 67.3223 133.516C67.1522 135.787 67.0453 137.904 66.9875 139.84C66.8686 143.711 66.9373 146.848 67.0028 149.013C67.042 150.052 67.0737 150.882 67.0976 151.508C67.1216 152.08 67.1293 152.38 67.1086 152.383Z" fill="#263238"/>
<path d="M134.338 150.569L121.542 167.569C121.01 168.276 120.113 168.621 119.234 168.458L63.8833 158.177C62.5014 157.921 61.6627 156.529 62.0979 155.215L68.0693 137.146C68.4314 136.052 69.5624 135.389 70.7141 135.599L132.89 146.95C134.584 147.258 135.363 149.206 134.338 150.569Z" fill="#263238"/>
<path d="M15.0737 143.087C15.0278 143.04 15.6473 142.355 16.9332 141.61C18.2039 140.865 20.202 140.125 22.5011 140.095C24.8013 140.064 26.819 140.75 28.1104 141.461C29.417 142.172 30.0551 142.84 30.0103 142.888C29.9503 142.965 29.2272 142.424 27.9206 141.833C26.6249 141.24 24.6912 140.655 22.5098 140.685C20.3296 140.714 18.4133 141.351 17.1339 141.978C15.8437 142.603 15.1347 143.163 15.0737 143.087Z" fill="#263238"/>
<g opacity="0.3">
<path d="M28.1694 175.332L50.0373 183.236L52.3157 174.317L62.6727 176.373L64.0698 171.219L47.8145 168.979L47.6531 176.373L30.6627 170.071L28.1694 175.332Z" fill="black"/>
</g>
<path d="M49.144 154.543C49.144 154.543 53.5186 150.911 54.8722 150.092C56.2268 149.273 60.8098 146.303 62.8929 146.611C64.9761 146.917 64.9761 146.917 64.9761 146.917L63.1012 152.344C63.1012 152.344 79.8713 149.887 82.1639 152.549C84.4554 155.21 79.6641 155.723 77.1643 156.029C74.6645 156.337 66.6317 157.668 66.6317 157.668C66.6317 157.668 87.5802 155.415 89.0384 157.668C90.4966 159.92 87.0054 160.432 87.0054 160.432L73.1299 165.859L71.5386 166.473L69.9452 168.52C69.9452 168.52 64.2475 172.411 62.4763 171.899C60.7061 171.387 47.8145 168.979 47.8145 168.979L49.144 154.543Z" fill="#FFBF9D"/>
<path d="M63.7107 163.849C63.691 163.775 64.9246 163.375 66.9598 162.875C68.9939 162.375 71.8361 161.797 75.0078 161.359C78.1805 160.924 81.0752 160.713 83.1714 160.644C85.2677 160.576 86.5656 160.627 86.5667 160.703C86.5689 160.79 85.2775 160.886 83.1965 161.06C81.1155 161.234 78.2449 161.511 75.0907 161.943C71.9376 162.378 69.1018 162.888 67.0514 163.282C65.002 163.675 63.7336 163.932 63.7107 163.849Z" fill="#FF9A6C"/>
<path d="M65.6162 167.813C65.5747 167.655 66.9184 167.176 68.6177 166.742C70.3169 166.308 71.7283 166.084 71.7697 166.241C71.8112 166.399 70.4675 166.878 68.7682 167.312C67.0689 167.746 65.6576 167.97 65.6162 167.813Z" fill="#FF9A6C"/>
<path d="M103.045 90.4649C103.066 90.4638 103.098 90.7233 103.143 91.2196C103.186 91.777 103.239 92.4985 103.307 93.3936C103.454 95.2814 103.555 98.0193 103.622 101.404C103.749 108.174 103.428 117.529 102.74 127.827C102.053 138.13 101.46 147.45 101.328 154.209C101.252 157.587 101.226 160.323 101.251 162.213C101.25 163.109 101.25 163.832 101.249 164.39C101.241 164.889 101.228 165.15 101.207 165.151C101.186 165.152 101.159 164.892 101.128 164.394C101.099 163.836 101.062 163.114 101.016 162.218C100.919 160.327 100.881 157.588 100.904 154.204C100.927 147.432 101.455 138.091 102.141 127.792C102.829 117.496 103.216 108.167 103.198 101.408C103.186 98.0289 103.149 95.2943 103.073 93.4054C103.051 92.5092 103.035 91.7867 103.022 91.2282C103.017 90.7276 103.024 90.466 103.045 90.4649Z" fill="#263238"/>
<path d="M35.4964 116.886C35.455 116.885 35.4222 116.345 35.3982 115.371C35.3841 114.397 35.323 112.989 35.1997 111.254C34.9609 107.786 34.325 103.008 32.9377 97.8832C31.5373 92.759 29.6613 88.307 28.1082 85.1842C27.3338 83.6213 26.6718 82.3702 26.1897 81.5201C25.7164 80.6647 25.4699 80.1801 25.5059 80.1587C25.5408 80.1373 25.8538 80.5811 26.3915 81.4044C26.9368 82.2223 27.6589 83.4487 28.4867 84.9966C30.1478 88.0894 32.1044 92.5607 33.5168 97.7309C34.9173 102.902 35.4909 107.736 35.6229 111.231C35.6916 112.979 35.6884 114.395 35.6316 115.372C35.5837 116.349 35.5378 116.888 35.4964 116.886Z" fill="#263238"/>
<path d="M77.4339 49.7589C77.4971 49.7986 76.8122 50.4054 75.475 50.3571C74.8326 50.3303 74.007 50.1781 73.3101 49.5735C72.612 48.9764 72.2674 47.9623 72.3045 46.9782C72.3121 46.7187 72.3274 46.5108 72.3852 46.2256C72.4637 45.9641 72.5575 45.7572 72.7036 45.532C72.7429 45.4752 72.7822 45.4206 72.852 45.3562C72.9327 45.2823 73.0287 45.2394 73.1094 45.2179C73.2839 45.1719 73.4388 45.1922 73.5653 45.219C73.8205 45.2823 73.9928 45.3552 74.1957 45.4184C74.9122 45.6693 75.5994 45.9094 76.2625 46.1409C77.4339 46.5676 78.1461 46.8688 78.1221 46.9417C78.0981 47.0146 77.3423 46.8474 76.1392 46.5161C75.4641 46.321 74.765 46.1184 74.0353 45.9073C73.8434 45.8526 73.6198 45.7743 73.4551 45.74C73.3711 45.7229 73.3013 45.7239 73.2632 45.7368L73.237 45.7475L73.2337 45.7486L73.2326 45.7497C73.2424 45.7668 73.1432 45.5996 73.1868 45.6736L73.2217 45.7304C73.2512 45.7636 73.2304 45.7379 73.2326 45.7518C73.2206 45.7625 73.1934 45.7968 73.1705 45.8322C73.0756 45.9791 72.984 46.1892 72.9349 46.365C72.9043 46.5258 72.8771 46.782 72.8749 46.99C72.8465 47.8679 73.1246 48.6955 73.67 49.1972C74.2044 49.7021 74.9242 49.8951 75.5067 49.9637C76.7086 50.1073 77.3968 49.6807 77.4339 49.7589Z" fill="#263238"/>
</svg>
