<svg width="301" height="424" viewBox="0 0 301 424" fill="none" xmlns="http://www.w3.org/2000/svg">
<path d="M286.717 423.771H13.8418C6.45689 423.771 0.470215 417.886 0.470215 410.628V14.2924C0.470215 7.03393 6.45689 1.14972 13.8418 1.14972H286.717C294.102 1.14972 300.089 7.03393 300.089 14.2935V410.627C300.089 417.886 294.103 423.771 286.717 423.771Z" fill="#263238"/>
<path d="M286.717 423.771C286.717 423.771 287.03 423.745 287.649 423.71C287.96 423.705 288.342 423.65 288.798 423.573C289.258 423.522 289.778 423.39 290.368 423.232C291.535 422.89 292.971 422.33 294.443 421.288C295.9 420.249 297.426 418.744 298.523 416.66C299.082 415.625 299.486 414.441 299.768 413.164C300.028 411.878 300.023 410.497 300.015 409.046C300.011 406.144 300.006 402.971 300.001 399.534C299.993 392.659 299.984 384.727 299.974 375.799C299.951 340.076 299.918 288.394 299.878 224.533C299.867 192.6 299.854 157.624 299.841 120.076C299.835 101.302 299.831 81.8853 299.825 61.8839C299.823 51.8832 299.821 41.7367 299.819 31.4519C299.818 26.3096 299.817 21.1329 299.816 15.9219C299.799 14.6119 299.867 13.3223 299.605 12.067C299.363 10.8138 298.993 9.56706 298.369 8.4361C297.186 6.14202 295.266 4.23386 292.967 2.98069C291.802 2.37823 290.556 1.93978 289.266 1.67178C287.967 1.42094 286.651 1.41879 285.29 1.42522C282.588 1.42522 279.879 1.4263 277.162 1.4263C271.728 1.42737 266.26 1.42844 260.761 1.42844C249.763 1.42951 238.639 1.43165 227.397 1.43272C204.913 1.43487 181.956 1.43808 158.584 1.44023C111.841 1.44237 63.4463 1.44452 13.8787 1.44666C10.8445 1.45631 7.83863 2.50365 5.50679 4.40109C3.1793 6.30068 1.56838 9.00212 1.00669 11.9094C0.692576 13.3566 0.795103 14.8585 0.772199 16.3775V20.9078C0.772199 23.9254 0.772199 26.9388 0.772199 29.9469C0.772199 41.979 0.771101 53.9318 0.771101 65.7978C0.77001 89.5297 0.767831 112.913 0.76674 135.889C0.761287 181.843 0.754753 226.168 0.749299 268.393C0.739483 310.618 0.729666 350.742 0.720941 388.293C0.71985 392.987 0.717671 397.641 0.716581 402.252C0.71549 404.558 0.715475 406.855 0.714384 409.14C0.718747 410.288 0.686032 411.417 0.870355 412.518C1.00451 413.63 1.3677 414.696 1.78215 415.728C3.56975 419.821 7.5845 422.854 12.0115 423.397C13.1065 423.561 14.2234 423.536 15.3544 423.538C16.4789 423.538 17.6012 423.539 18.7213 423.539C20.9604 423.54 23.1876 423.54 25.4049 423.541C43.1381 423.548 60.1568 423.554 76.4012 423.561C141.374 423.6 193.952 423.632 230.292 423.655C248.457 423.68 262.562 423.698 272.132 423.711C276.912 423.724 280.557 423.733 283.013 423.74C285.461 423.75 286.717 423.771 286.717 423.771C286.717 423.771 285.46 423.791 283.009 423.801C280.553 423.807 276.908 423.817 272.129 423.83C262.56 423.843 248.454 423.861 230.289 423.885C193.949 423.908 141.371 423.94 76.3979 423.98C60.1546 423.986 43.1359 423.993 25.4016 423.999C23.1854 424 20.9572 424 18.718 424.001C17.599 424.001 16.4767 424.002 15.3511 424.002C14.2354 424.001 13.0847 424.027 11.9428 423.859C7.35438 423.298 3.1902 420.16 1.33497 415.915C0.903069 414.846 0.527893 413.74 0.387197 412.588C0.19524 411.441 0.229048 410.274 0.224686 409.141C0.223595 406.856 0.223596 404.559 0.222505 402.254C0.221415 397.641 0.220326 392.987 0.218145 388.294C0.20942 350.743 0.199594 310.618 0.190868 268.394C0.185415 226.169 0.178881 181.844 0.173427 135.89C0.172337 112.914 0.170141 89.5308 0.16905 65.7988C0.16905 53.9329 0.167969 41.9801 0.167969 29.9479C0.167969 26.9399 0.167969 23.9265 0.167969 20.9088V16.3786C0.190873 14.8842 0.0839863 13.3309 0.412277 11.8011C0.999056 8.7577 2.68522 5.93191 5.11959 3.94549C7.55723 1.96122 10.7071 0.863495 13.8766 0.854919C63.4441 0.857063 111.839 0.859208 158.582 0.861352C181.953 0.863496 204.911 0.866712 227.395 0.868856C238.637 0.869928 249.761 0.87207 260.759 0.873142C266.258 0.874214 271.725 0.874217 277.16 0.875289C279.878 0.875289 282.587 0.87636 285.288 0.87636C286.625 0.871 288.02 0.872069 289.371 1.13471C290.717 1.41343 292.018 1.87225 293.231 2.50151C295.628 3.80828 297.628 5.79683 298.86 8.18847C299.508 9.36874 299.896 10.668 300.147 11.9737C300.419 13.289 300.348 14.6333 300.364 15.9219C300.363 21.1329 300.362 26.3096 300.361 31.4519C300.359 41.7367 300.357 51.8832 300.354 61.8839C300.349 81.8842 300.345 101.302 300.339 120.076C300.326 157.624 300.314 192.601 300.302 224.533C300.262 288.394 300.229 340.076 300.206 375.799C300.195 384.727 300.186 392.659 300.179 399.534C300.173 402.971 300.169 406.144 300.165 409.046C300.167 410.492 300.169 411.892 299.9 413.19C299.611 414.479 299.197 415.672 298.63 416.715C297.513 418.813 295.969 420.322 294.495 421.361C293.007 422.402 291.559 422.955 290.385 423.289C289.79 423.444 289.267 423.571 288.804 423.619C288.346 423.69 287.962 423.742 287.651 423.741C287.031 423.765 286.717 423.771 286.717 423.771Z" fill="#263238"/>
<path d="M180.978 23.4827H119.787C117.43 23.4827 115.519 21.6046 115.519 19.288C115.519 16.9714 117.43 15.0932 119.787 15.0932H180.978C183.335 15.0932 185.245 16.9714 185.245 19.288C185.245 21.6056 183.335 23.4827 180.978 23.4827Z" fill="#455A64"/>
<path d="M290.383 31.3008H9.65918V384.241H290.383V31.3008Z" fill="white"/>
<path d="M284.733 40.9402H14.3477V376.097H284.733V40.9402Z" fill="#FAFAFA"/>
<path d="M284.733 40.9402H14.3477V61.4508H284.733V40.9402Z" fill="#E0E0E0"/>
<path d="M25.8532 53.7796C27.888 53.7796 29.5375 52.1583 29.5375 50.1584C29.5375 48.1584 27.888 46.5371 25.8532 46.5371C23.8185 46.5371 22.1689 48.1584 22.1689 50.1584C22.1689 52.1583 23.8185 53.7796 25.8532 53.7796Z" fill="#FAFAFA"/>
<path d="M39.9359 50.1584C39.9359 52.1576 38.2868 53.7796 36.2516 53.7796C34.2176 53.7796 32.5674 52.1587 32.5674 50.1584C32.5674 48.1591 34.2165 46.5382 36.2516 46.5382C38.2868 46.5382 39.9359 48.1591 39.9359 50.1584Z" fill="#FAFAFA"/>
<path d="M46.6521 53.7796C48.6868 53.7796 50.3363 52.1583 50.3363 50.1584C50.3363 48.1584 48.6868 46.5371 46.6521 46.5371C44.6173 46.5371 42.9678 48.1584 42.9678 50.1584C42.9678 52.1583 44.6173 53.7796 46.6521 53.7796Z" fill="#FAFAFA"/>
<path d="M193.016 114.603H107.748C96.2843 114.603 86.9907 105.468 86.9907 94.2004V91.9974C86.9907 80.7296 96.2843 71.5951 107.748 71.5951H193.016C204.48 71.5951 213.773 80.7296 213.773 91.9974V94.2004C213.773 105.468 204.481 114.603 193.016 114.603Z" fill="#E0E0E0"/>
<path d="M94.6919 137.289H44.8724C42.1468 137.289 39.936 135.118 39.936 132.438V131.913C39.936 129.234 42.1457 127.061 44.8724 127.061H94.6919C97.4185 127.061 99.6282 129.233 99.6282 131.913V132.438C99.6282 135.118 97.4174 137.289 94.6919 137.289Z" fill="#E0E0E0"/>
<path d="M227.454 245.285H177.635C174.909 245.285 172.698 243.113 172.698 240.433V239.909C172.698 237.23 174.908 235.057 177.635 235.057H227.454C230.181 235.057 232.39 237.229 232.39 239.909V240.433C232.39 243.113 230.18 245.285 227.454 245.285Z" fill="#E0E0E0"/>
<path d="M173.933 137.289H124.114C121.387 137.289 119.177 135.118 119.177 132.438V131.913C119.177 129.234 121.387 127.061 124.114 127.061H173.933C176.659 127.061 178.869 129.233 178.869 131.913V132.438C178.868 135.118 176.659 137.289 173.933 137.289Z" fill="#E0E0E0"/>
<path d="M249.33 137.289H199.51C196.785 137.289 194.574 135.118 194.574 132.438V131.913C194.574 129.234 196.783 127.061 199.51 127.061H249.33C252.056 127.061 254.266 129.233 254.266 131.913V132.438C254.266 135.118 252.055 137.289 249.33 137.289Z" fill="#E0E0E0"/>
<path d="M284.733 147.036H14.3477V211.413H284.733V147.036Z" fill="#E0E0E0"/>
<path d="M74.9886 180.445H33.6087C30.8831 180.445 28.6724 178.273 28.6724 175.593V175.069C28.6724 172.39 30.8821 170.217 33.6087 170.217H74.9886C77.7153 170.217 79.925 172.389 79.925 175.069V175.593C79.9239 178.272 77.7142 180.445 74.9886 180.445Z" fill="white"/>
<path d="M107.995 191.672H31.2474C29.8252 191.672 28.6724 190.539 28.6724 189.141V188.868C28.6724 187.47 29.8252 186.337 31.2474 186.337H107.995C109.418 186.337 110.571 187.47 110.571 188.868V189.141C110.572 190.539 109.419 191.672 107.995 191.672Z" fill="white"/>
<path d="M252.272 259.829H175.524C174.102 259.829 172.949 258.696 172.949 257.298V257.024C172.949 255.626 174.102 254.493 175.524 254.493H252.272C253.695 254.493 254.847 255.626 254.847 257.024V257.298C254.848 258.695 253.695 259.829 252.272 259.829Z" fill="#E0E0E0"/>
<path d="M213.881 273.106H175.274C173.852 273.106 172.699 271.973 172.699 270.575V270.302C172.699 268.904 173.852 267.771 175.274 267.771H213.881C215.303 267.771 216.456 268.904 216.456 270.302V270.575C216.456 271.973 215.303 273.106 213.881 273.106Z" fill="#E0E0E0"/>
<path d="M104.706 319.728H54.8866C52.161 319.728 49.9502 317.556 49.9502 314.876V314.352C49.9502 311.673 52.1599 309.5 54.8866 309.5H104.706C107.433 309.5 109.642 311.672 109.642 314.352V314.876C109.642 317.556 107.433 319.728 104.706 319.728Z" fill="#E0E0E0"/>
<path d="M129.525 334.271H52.7772C51.355 334.271 50.2021 333.137 50.2021 331.74V331.466C50.2021 330.068 51.355 328.935 52.7772 328.935H129.525C130.947 328.935 132.1 330.068 132.1 331.466V331.74C132.1 333.137 130.947 334.271 129.525 334.271Z" fill="#E0E0E0"/>
<path d="M91.133 347.549H52.5267C51.1045 347.549 49.9517 346.416 49.9517 345.018V344.745C49.9517 343.347 51.1045 342.214 52.5267 342.214H91.133C92.5553 342.214 93.7081 343.347 93.7081 344.745V345.018C93.7081 346.415 92.5553 347.549 91.133 347.549Z" fill="#E0E0E0"/>
<path d="M284.733 146.717H135.285V211.093H284.733V146.717Z" fill="#EBEBEB"/>
<path d="M149.023 226.64H38.9751V281.526H149.023V226.64Z" fill="#EBEBEB"/>
<path d="M264.515 303.226H163.282V358.113H264.515V303.226Z" fill="#EBEBEB"/>
<path d="M228.169 228.408H84.5635C70.1515 228.408 58.4683 216.925 58.4683 202.76V199.991C58.4683 185.825 70.1515 174.342 84.5635 174.342H228.169C242.582 174.342 254.265 185.825 254.265 199.991V202.76C254.266 216.925 242.582 228.408 228.169 228.408Z" fill="#FF725E"/>
<path d="M79.9751 201.375V190.45C79.9751 187.863 82.8239 186.247 85.1034 187.539L94.7297 193.002L104.356 198.465C106.635 199.759 106.635 202.992 104.356 204.286L94.7297 209.749L85.1034 215.212C82.8239 216.506 79.9751 214.888 79.9751 212.302V201.375Z" fill="white"/>
<path d="M284.733 376.096C284.73 373.903 284.629 240.031 284.478 40.9402L284.733 41.19C204.182 41.1986 111.947 41.2082 14.377 41.2189H14.3475L14.6311 40.9402C14.6137 165.069 14.5962 280.395 14.5831 376.096L14.3475 375.864C177.421 376.005 282.769 376.095 284.733 376.096C282.77 376.098 177.421 376.188 14.3475 376.327H14.112V376.096C14.0978 280.395 14.0814 165.069 14.064 40.9402V40.6615H14.3475H14.377C111.947 40.6722 204.182 40.6819 284.733 40.6904H284.988V40.9402C284.836 240.031 284.734 373.906 284.733 376.096Z" fill="#263238"/>
</svg>
