<svg width="6" height="6" viewBox="0 0 6 6" fill="none" xmlns="http://www.w3.org/2000/svg">
<path d="M4.72597 3.84843C4.72597 4.61555 4.10425 5.23727 3.33713 5.23727C2.57046 5.23727 1.94873 4.61555 1.94873 3.84843C1.94873 3.08175 2.57046 2.45958 3.33713 2.45958C4.10425 2.45958 4.72597 3.08131 4.72597 3.84843Z" fill="#261C14"/>
<path d="M3.45609 3.41091C3.45609 3.6794 3.23844 3.89749 2.9695 3.89749C2.70101 3.89749 2.48291 3.67985 2.48291 3.41091C2.48291 3.14197 2.70056 2.92432 2.9695 2.92432C3.23844 2.92477 3.45609 3.14242 3.45609 3.41091Z" fill="white"/>
<path d="M5.94914 0.653284C5.94914 0.877622 5.76717 1.05959 5.54284 1.05959H1.1319C0.907559 1.05959 0.725586 0.877622 0.725586 0.653284C0.725586 0.428946 0.907559 0.24698 1.1319 0.24698H5.54284C5.76717 0.246534 5.94914 0.4285 5.94914 0.653284Z" fill="#36271C"/>
</svg>
