<svg width="25" height="21" viewBox="0 0 25 21" fill="none" xmlns="http://www.w3.org/2000/svg">
<path d="M23.691 16.5972C21.7608 20.2861 17.2053 21.7115 13.5164 19.7812L3.57867 14.3592C-0.110198 12.4289 -0.182449 8.5817 1.74784 4.89284C3.67813 1.20397 6.8804 -0.92969 10.5693 1.0006L20.507 6.42261C24.1959 8.35335 25.6213 12.9084 23.691 16.5972Z" fill="#EBBDA7"/>
<path d="M19.1522 8.40377L15.4379 6.4601C15.4379 6.4601 13.2061 8.17631 12.0006 10.4799C10.7955 12.783 10.6572 15.5955 10.6572 15.5955L14.3715 17.5392C16.8941 18.8593 20.0094 17.8844 21.3296 15.3618C22.6497 12.8388 21.6748 9.72393 19.1522 8.40377Z" fill="#F0CEBE"/>
</svg>
