<svg width="28" height="23" viewBox="0 0 28 23" fill="none" xmlns="http://www.w3.org/2000/svg">
<path d="M26.6463 18.3593C24.5158 22.4304 19.4884 24.0034 15.4174 21.8733L3.83964 15.5611C-0.23145 13.4306 -0.311284 9.18463 1.81926 5.11354C3.9498 1.04245 7.4839 -1.31242 11.555 0.818122L23.1327 7.13035C27.2038 9.2609 28.7768 14.2882 26.6463 18.3593Z" fill="#EBBDA7"/>
<path d="M21.6371 9.31664L17.5379 7.17138C17.5379 7.17138 15.0747 9.06554 13.7447 11.6077C12.4147 14.1495 12.2622 17.2532 12.2622 17.2532L16.3614 19.3985C19.1453 20.8556 22.5835 19.7794 24.0402 16.9954C25.4973 14.2115 24.4211 10.7737 21.6371 9.31664Z" fill="#F0CEBE"/>
</svg>
