<svg width="27" height="22" viewBox="0 0 27 22" fill="none" xmlns="http://www.w3.org/2000/svg">
<path d="M25.187 17.6252C23.1461 21.5251 18.3302 23.0321 14.4303 20.9912L3.58674 15.0772C-0.313082 13.0363 -0.389792 8.96882 1.6511 5.06899C3.692 1.16917 7.07758 -1.0867 10.9774 0.954193L21.821 6.86816C25.7208 8.9095 27.2279 13.7254 25.187 17.6252Z" fill="#EBBDA7"/>
<path d="M20.3884 8.963L16.4618 6.90828C16.4618 6.90828 14.102 8.72306 12.8278 11.1582C11.5536 13.5934 11.4077 16.5664 11.4077 16.5664L15.3343 18.6211C18.0014 20.0167 21.2946 18.986 22.6902 16.3193C24.0862 13.6518 23.0555 10.3585 20.3884 8.963Z" fill="#F0CEBE"/>
</svg>
