<svg width="6" height="6" viewBox="0 0 6 6" fill="none" xmlns="http://www.w3.org/2000/svg">
<path d="M4.0521 3.84842C4.0521 4.61554 3.43037 5.23727 2.66325 5.23727C1.89613 5.23727 1.27441 4.61554 1.27441 3.84842C1.27441 3.08175 1.89613 2.45958 2.66325 2.45958C3.43037 2.45958 4.0521 3.0813 4.0521 3.84842Z" fill="#261C14"/>
<path d="M2.29518 3.89748C2.56392 3.89748 2.78177 3.67964 2.78177 3.4109C2.78177 3.14217 2.56392 2.92432 2.29518 2.92432C2.02645 2.92432 1.80859 3.14217 1.80859 3.4109C1.80859 3.67964 2.02645 3.89748 2.29518 3.89748Z" fill="white"/>
<path d="M5.27482 0.65328C5.27482 0.877618 5.09285 1.05959 4.86851 1.05959H0.457574C0.233235 1.05959 0.0512695 0.877618 0.0512695 0.65328C0.0512695 0.428942 0.233235 0.246976 0.457574 0.246976H4.86851C5.09285 0.24653 5.27482 0.428496 5.27482 0.65328Z" fill="#36271C"/>
</svg>
