<svg width="65" height="61" viewBox="0 0 65 61" fill="none" xmlns="http://www.w3.org/2000/svg">
<path d="M0.713379 47.9194L5.54722 39.8301C3.80215 34.7799 3.4106 29.2077 4.70958 23.6258C8.44293 7.5747 24.7081 -2.46137 41.0386 1.20916C57.3692 4.87969 67.58 20.8653 63.8455 36.9164C60.1111 52.9664 43.846 63.0035 27.5165 59.333C20.6977 57.8011 14.952 54.1156 10.8369 49.1801L10.8446 49.1951L0.713379 47.9194Z" fill="white"/>
<path d="M0.713379 47.9194C0.713379 47.9194 0.953333 47.9376 1.39614 47.9869C1.85968 48.0384 2.50862 48.1124 3.35171 48.2067C5.07714 48.4072 7.59331 48.6988 10.8599 49.0782L10.7344 49.2455C10.7344 49.2455 10.7301 49.2358 10.7279 49.2305C10.6995 49.1704 10.7268 49.0997 10.7868 49.0729C10.837 49.0504 10.8969 49.0654 10.9318 49.1061C13.4371 52.0616 17.3362 55.5145 22.9379 57.725C25.7147 58.8506 28.9115 59.5731 32.3449 59.7822C35.7739 59.9955 39.4637 59.6428 43.125 58.5226C46.7821 57.4098 50.4009 55.5338 53.5922 52.8935C56.7835 50.2607 59.5374 46.8581 61.4493 42.8949C65.3158 35.0125 65.4423 24.717 60.6935 16.244C58.3268 11.9677 54.9751 8.30365 50.9855 5.74372C47.0275 3.14304 42.5481 1.54576 38.0753 0.961525C33.5948 0.385861 29.1416 0.876829 25.1345 2.13643C21.1187 3.3971 17.5467 5.43605 14.6216 7.91237C8.74178 12.895 5.55594 19.4578 4.56889 25.267C3.52403 31.1244 4.43801 36.1907 5.66174 39.7937C5.67264 39.8258 5.66719 39.8623 5.65192 39.8891C4.07045 42.4737 2.85109 44.4665 2.01346 45.8365C1.60227 46.5022 1.2849 47.0168 1.05804 47.3845C0.837725 47.734 0.713379 47.9194 0.713379 47.9194C0.713379 47.9194 0.799543 47.7522 0.998045 47.4081C1.21072 47.0414 1.50739 46.528 1.8913 45.8622C2.71039 44.4601 3.90141 42.419 5.44688 39.7722L5.43707 39.8676C4.1599 36.2518 3.1892 31.1405 4.20679 25.2059C5.16766 19.3217 8.36223 12.6463 14.3151 7.56504C17.2763 5.04048 20.8994 2.95651 24.9796 1.66475C29.0511 0.374067 33.5806 -0.135133 38.1418 0.442675C42.6942 1.02906 47.2576 2.64885 51.2898 5.29455C55.3547 7.89951 58.7707 11.6301 61.181 15.9845C66.0181 24.6141 65.8785 35.1047 61.9303 43.1179C59.978 47.1497 57.1674 50.6048 53.9161 53.2741C50.6648 55.9508 46.9806 57.8461 43.2625 58.9621C39.5411 60.0866 35.7936 60.4297 32.3165 60.197C28.8362 59.9676 25.6024 59.2183 22.7983 58.0616C17.141 55.7879 13.232 52.2642 10.7431 49.2562L10.9471 49.1318C10.9493 49.1372 10.9537 49.1468 10.9537 49.1468C10.982 49.2058 10.9558 49.2766 10.8948 49.3034C10.874 49.313 10.849 49.3162 10.8271 49.313C7.53224 48.866 4.99425 48.5208 3.25245 48.285C2.42682 48.1692 1.79096 48.0802 1.33833 48.017C0.914059 47.9569 0.713379 47.9194 0.713379 47.9194Z" fill="#263238"/>
</svg>
