<svg width="62" height="62" viewBox="0 0 62 62" fill="none" xmlns="http://www.w3.org/2000/svg">
<path d="M40.2806 52.6021C52.1809 47.481 57.6766 33.6824 52.5556 21.782C47.4345 9.88163 33.6359 4.38592 21.7355 9.50699C9.83514 14.6281 4.33944 28.4267 9.46051 40.327C14.5816 52.2274 28.3802 57.7231 40.2806 52.6021Z" fill="#A09C97"/>
<path d="M22.852 31.703C22.459 30.055 21.229 28.8954 20.1037 29.1135C18.9789 29.3316 18.3853 30.844 18.7778 32.4919C19.1707 34.1399 20.4007 35.2991 21.526 35.0814C22.6513 34.8633 23.2449 33.3509 22.852 31.703Z" fill="#E0B19B"/>
<path d="M39.1476 31.703C39.5405 30.055 40.7706 28.8954 41.8959 29.1135C43.0207 29.3316 43.6143 30.844 43.2218 32.4919C42.8289 34.1399 41.5988 35.2991 40.4736 35.0814C39.3483 34.8633 38.7547 33.3509 39.1476 31.703Z" fill="#E0B19B"/>
<path d="M37.6794 48.7513H24.3208L24.7548 35.6648H37.245L37.6794 48.7513Z" fill="#E0B19B"/>
<path d="M44.329 23.0564C44.329 30.0568 38.3147 37.5772 30.896 37.5772C23.4772 37.5772 17.4629 30.0568 17.4629 23.0564C17.4629 16.056 23.4772 11.7605 30.896 11.7605C38.3152 11.7605 44.329 16.056 44.329 23.0564Z" fill="#36271C"/>
<path d="M42.199 25.141C42.199 33.573 37.1851 43.9983 31.0004 43.9983C24.8157 43.9983 19.8018 33.573 19.8018 25.141C19.8018 16.7089 24.8157 13.4629 31.0004 13.4629C37.1851 13.4629 42.199 16.7089 42.199 25.141Z" fill="#EBBDA7"/>
<path d="M31.8843 12.318C19.4182 12.318 18.3286 25.141 18.3286 25.141C31.1003 26.2395 36.8644 18.8635 36.8644 18.8635L37.1717 13.7189C37.1717 13.7189 35.3774 12.318 31.8843 12.318Z" fill="#36271C"/>
<path d="M36.5267 13.3965L36.2832 17.9287C36.2832 17.9287 37.4709 23.8886 43.0303 26.0365C43.0303 26.0365 43.545 15.4717 36.5267 13.3965Z" fill="#36271C"/>
<path d="M30.9999 54.5136C37.2676 54.5136 42.9608 52.0553 47.1683 48.0507L37.6244 44.4697C36.6793 45.8082 34.0742 46.7715 30.9999 46.7715C27.9257 46.7715 25.3206 45.8082 24.3755 44.4697L14.8315 48.0507C19.0391 52.0557 24.7323 54.5136 30.9999 54.5136Z" fill="#F01631"/>
<path d="M31 2.06672V6.48568" stroke="#80EB60" stroke-miterlimit="10" stroke-linecap="round" stroke-linejoin="round"/>
<path d="M31 55.6273V60.0467" stroke="#80EB60" stroke-miterlimit="10" stroke-linecap="round" stroke-linejoin="round"/>
<path d="M27.9697 2.22549L28.4318 6.62037" stroke="#80EB60" stroke-miterlimit="10" stroke-linecap="round" stroke-linejoin="round"/>
<path d="M33.5684 55.4926L34.0304 59.8879" stroke="#80EB60" stroke-miterlimit="10" stroke-linecap="round" stroke-linejoin="round"/>
<path d="M24.9727 2.70004L25.8919 7.02267" stroke="#80EB60" stroke-miterlimit="10" stroke-linecap="round" stroke-linejoin="round"/>
<path d="M36.1089 55.0903L37.0276 59.4134" stroke="#80EB60" stroke-miterlimit="10" stroke-linecap="round" stroke-linejoin="round"/>
<path d="M22.042 3.48544L23.4076 7.68855" stroke="#80EB60" stroke-miterlimit="10" stroke-linecap="round" stroke-linejoin="round"/>
<path d="M38.5933 54.4249L39.9589 58.6275" stroke="#80EB60" stroke-miterlimit="10" stroke-linecap="round" stroke-linejoin="round"/>
<path d="M19.209 4.57278L21.0064 8.60998" stroke="#80EB60" stroke-miterlimit="10" stroke-linecap="round" stroke-linejoin="round"/>
<path d="M40.9937 53.503L42.7915 57.5402" stroke="#80EB60" stroke-miterlimit="10" stroke-linecap="round" stroke-linejoin="round"/>
<path d="M16.5049 5.95048L18.7144 9.77761" stroke="#80EB60" stroke-miterlimit="10" stroke-linecap="round" stroke-linejoin="round"/>
<path d="M43.2852 52.3354L45.4951 56.1629" stroke="#80EB60" stroke-miterlimit="10" stroke-linecap="round" stroke-linejoin="round"/>
<path d="M13.9604 7.60336L16.5579 11.1785" stroke="#80EB60" stroke-miterlimit="10" stroke-linecap="round" stroke-linejoin="round"/>
<path d="M45.4429 50.9349L48.0404 54.5101" stroke="#80EB60" stroke-miterlimit="10" stroke-linecap="round" stroke-linejoin="round"/>
<path d="M11.6016 9.51268L14.5585 12.797" stroke="#80EB60" stroke-miterlimit="10" stroke-linecap="round" stroke-linejoin="round"/>
<path d="M47.4409 49.3164L50.3979 52.6003" stroke="#80EB60" stroke-miterlimit="10" stroke-linecap="round" stroke-linejoin="round"/>
<path d="M9.45605 11.6584L12.7404 14.6158" stroke="#80EB60" stroke-miterlimit="10" stroke-linecap="round" stroke-linejoin="round"/>
<path d="M49.2593 47.4976L52.5436 50.4546" stroke="#80EB60" stroke-miterlimit="10" stroke-linecap="round" stroke-linejoin="round"/>
<path d="M7.54688 14.0168L11.122 16.6143" stroke="#80EB60" stroke-miterlimit="10" stroke-linecap="round" stroke-linejoin="round"/>
<path d="M50.8779 45.4991L54.4535 48.0966" stroke="#80EB60" stroke-miterlimit="10" stroke-linecap="round" stroke-linejoin="round"/>
<path d="M5.89404 16.5617L9.72117 18.7712" stroke="#80EB60" stroke-miterlimit="10" stroke-linecap="round" stroke-linejoin="round"/>
<path d="M52.2788 43.3422L56.1059 45.5517" stroke="#80EB60" stroke-miterlimit="10" stroke-linecap="round" stroke-linejoin="round"/>
<path d="M4.51611 19.2654L8.55331 21.0627" stroke="#80EB60" stroke-miterlimit="10" stroke-linecap="round" stroke-linejoin="round"/>
<path d="M53.4463 41.0507L57.4835 42.8481" stroke="#80EB60" stroke-miterlimit="10" stroke-linecap="round" stroke-linejoin="round"/>
<path d="M3.42871 22.0984L7.63181 23.464" stroke="#80EB60" stroke-miterlimit="10" stroke-linecap="round" stroke-linejoin="round"/>
<path d="M54.3682 38.6494L58.5708 40.0151" stroke="#80EB60" stroke-miterlimit="10" stroke-linecap="round" stroke-linejoin="round"/>
<path d="M2.64355 25.0295L6.96619 25.9482" stroke="#80EB60" stroke-miterlimit="10" stroke-linecap="round" stroke-linejoin="round"/>
<path d="M55.0337 36.1652L59.3563 37.084" stroke="#80EB60" stroke-miterlimit="10" stroke-linecap="round" stroke-linejoin="round"/>
<path d="M2.16895 28.0261L6.56383 28.4882" stroke="#80EB60" stroke-miterlimit="10" stroke-linecap="round" stroke-linejoin="round"/>
<path d="M55.436 33.6248L59.8314 34.0868" stroke="#80EB60" stroke-miterlimit="10" stroke-linecap="round" stroke-linejoin="round"/>
<path d="M2.01025 31.0567H6.42922" stroke="#80EB60" stroke-miterlimit="10" stroke-linecap="round" stroke-linejoin="round"/>
<path d="M55.5708 31.0567H59.9902" stroke="#80EB60" stroke-miterlimit="10" stroke-linecap="round" stroke-linejoin="round"/>
<path d="M2.16895 34.0868L6.56383 33.6248" stroke="#80EB60" stroke-miterlimit="10" stroke-linecap="round" stroke-linejoin="round"/>
<path d="M55.436 28.4882L59.8314 28.0261" stroke="#80EB60" stroke-miterlimit="10" stroke-linecap="round" stroke-linejoin="round"/>
<path d="M2.64355 37.084L6.96619 36.1652" stroke="#80EB60" stroke-miterlimit="10" stroke-linecap="round" stroke-linejoin="round"/>
<path d="M55.0337 25.9482L59.3563 25.0295" stroke="#80EB60" stroke-miterlimit="10" stroke-linecap="round" stroke-linejoin="round"/>
<path d="M3.42871 40.0151L7.63181 38.6494" stroke="#80EB60" stroke-miterlimit="10" stroke-linecap="round" stroke-linejoin="round"/>
<path d="M54.3682 23.464L58.5708 22.0984" stroke="#80EB60" stroke-miterlimit="10" stroke-linecap="round" stroke-linejoin="round"/>
<path d="M4.51611 42.8481L8.55331 41.0507" stroke="#80EB60" stroke-miterlimit="10" stroke-linecap="round" stroke-linejoin="round"/>
<path d="M53.4463 21.0627L57.4835 19.2654" stroke="#80EB60" stroke-miterlimit="10" stroke-linecap="round" stroke-linejoin="round"/>
<path d="M5.89404 45.5517L9.72117 43.3422" stroke="#80EB60" stroke-miterlimit="10" stroke-linecap="round" stroke-linejoin="round"/>
<path d="M52.2788 18.7712L56.1059 16.5617" stroke="#80EB60" stroke-miterlimit="10" stroke-linecap="round" stroke-linejoin="round"/>
<path d="M7.54688 48.0966L11.122 45.4991" stroke="#80EB60" stroke-miterlimit="10" stroke-linecap="round" stroke-linejoin="round"/>
<path d="M50.8779 16.6143L54.4535 14.0168" stroke="#80EB60" stroke-miterlimit="10" stroke-linecap="round" stroke-linejoin="round"/>
<path d="M9.45605 50.4546L12.7404 47.4976" stroke="#80EB60" stroke-miterlimit="10" stroke-linecap="round" stroke-linejoin="round"/>
<path d="M49.2593 14.6158L52.5436 11.6584" stroke="#80EB60" stroke-miterlimit="10" stroke-linecap="round" stroke-linejoin="round"/>
<path d="M11.6016 52.6003L14.5585 49.3164" stroke="#80EB60" stroke-miterlimit="10" stroke-linecap="round" stroke-linejoin="round"/>
<path d="M47.4409 12.797L50.3979 9.51268" stroke="#80EB60" stroke-miterlimit="10" stroke-linecap="round" stroke-linejoin="round"/>
<path d="M13.9604 54.5101L16.5579 50.9349" stroke="#80EB60" stroke-miterlimit="10" stroke-linecap="round" stroke-linejoin="round"/>
<path d="M45.4429 11.1785L48.0404 7.60336" stroke="#80EB60" stroke-miterlimit="10" stroke-linecap="round" stroke-linejoin="round"/>
<path d="M16.5049 56.1629L18.7144 52.3354" stroke="#80EB60" stroke-miterlimit="10" stroke-linecap="round" stroke-linejoin="round"/>
<path d="M43.2852 9.77761L45.4951 5.95048" stroke="#80EB60" stroke-miterlimit="10" stroke-linecap="round" stroke-linejoin="round"/>
<path d="M19.209 57.5402L21.0064 53.503" stroke="#80EB60" stroke-miterlimit="10" stroke-linecap="round" stroke-linejoin="round"/>
<path d="M40.9937 8.60998L42.7915 4.57278" stroke="#80EB60" stroke-miterlimit="10" stroke-linecap="round" stroke-linejoin="round"/>
<path d="M22.042 58.6275L23.4076 54.4249" stroke="#80EB60" stroke-miterlimit="10" stroke-linecap="round" stroke-linejoin="round"/>
<path d="M38.5933 7.68855L39.9589 3.48544" stroke="#80EB60" stroke-miterlimit="10" stroke-linecap="round" stroke-linejoin="round"/>
<path d="M24.9727 59.4134L25.8919 55.0903" stroke="#80EB60" stroke-miterlimit="10" stroke-linecap="round" stroke-linejoin="round"/>
<path d="M36.1089 7.02267L37.0276 2.70004" stroke="#80EB60" stroke-miterlimit="10" stroke-linecap="round" stroke-linejoin="round"/>
<path d="M27.9697 59.8879L28.4318 55.4926" stroke="#80EB60" stroke-miterlimit="10" stroke-linecap="round" stroke-linejoin="round"/>
<path d="M33.5684 6.62037L34.0304 2.22549" stroke="#80EB60" stroke-miterlimit="10" stroke-linecap="round" stroke-linejoin="round"/>
</svg>
