<svg width="76" height="149" viewBox="0 0 76 149" fill="none" xmlns="http://www.w3.org/2000/svg">
<path d="M75.3029 136.764C75.3029 143.091 70.0084 148.268 63.5369 148.268H12.4637C5.99266 148.268 0.697754 143.091 0.697754 136.764V11.9695C0.697754 5.64213 5.99222 0.464966 12.4637 0.464966H63.5369C70.0079 0.464966 75.3029 5.64213 75.3029 11.9695V136.764Z" fill="#B3B3B3"/>
<g opacity="0.4">
<path d="M12.4638 2.21819C6.94279 2.21819 2.45068 6.59256 2.45068 11.9695V136.764C2.45068 142.141 6.94279 146.515 12.4638 146.515H63.5371C69.0581 146.515 73.5498 142.141 73.5498 136.764V11.9695C73.5498 6.59256 69.0581 2.21819 63.5371 2.21819H12.4638Z" fill="#1A1A1A"/>
</g>
<path d="M12.4636 3.533C7.66772 3.533 3.76611 7.31775 3.76611 11.9695V136.763C3.76611 141.416 7.66772 145.2 12.4636 145.2H63.5368C68.3331 145.2 72.2351 141.416 72.2351 136.763V11.9695C72.2351 7.31775 68.3335 3.533 63.5368 3.533H12.4636Z" fill="black"/>
<path d="M63.5366 6.16261H55.8921V6.24244C55.8921 8.17095 54.3142 9.7489 52.3857 9.7489H23.6147C21.6862 9.7489 20.1082 8.17095 20.1082 6.24244V6.16261H12.4633C9.11745 6.16261 6.39551 8.7677 6.39551 11.9695V136.764C6.39551 139.966 9.1179 142.571 12.4633 142.571H63.5366C66.8829 142.571 69.6049 139.966 69.6049 136.764V11.9695C69.6053 8.7677 66.8829 6.16261 63.5366 6.16261Z" fill="#171717"/>
<path opacity="0.6" d="M47.081 7.12196C47.081 7.47653 46.7934 7.7642 46.4388 7.7642H29.5622C29.2076 7.7642 28.9199 7.47653 28.9199 7.12196C28.9199 6.76739 29.2076 6.47972 29.5622 6.47972H46.4388C46.7934 6.47972 47.081 6.76739 47.081 7.12196Z" fill="#363636"/>
<path opacity="0.6" d="M52.7429 7.12196C52.7429 7.96936 52.056 8.6562 51.2091 8.6562C50.3617 8.6562 49.6753 7.96936 49.6753 7.12196C49.6753 6.275 50.3621 5.58817 51.2091 5.58817C52.056 5.58817 52.7429 6.275 52.7429 7.12196Z" fill="#363636"/>
<path d="M51.2089 8.04473C51.7185 8.04473 52.1317 7.63159 52.1317 7.12195C52.1317 6.61232 51.7185 6.19918 51.2089 6.19918C50.6993 6.19918 50.2861 6.61232 50.2861 7.12195C50.2861 7.63159 50.6993 8.04473 51.2089 8.04473Z" fill="#0031B2"/>
</svg>
