<svg width="38" height="39" viewBox="0 0 38 39" fill="none" xmlns="http://www.w3.org/2000/svg">
<rect x="0.5" y="0.904297" width="37" height="37" rx="18.5" stroke="#F5F7F8"/>
<g clip-path="url(#clip0_9_5)">
<path d="M19.0839 4.66093C15.9569 4.68306 12.9063 5.57871 10.3179 7.2346C7.72943 8.8905 5.71944 11.2323 4.54205 13.9638C3.36467 16.6953 3.07278 19.6939 3.70329 22.5804C4.3338 25.4669 5.85839 28.1116 8.08428 30.18C10.3102 32.2485 13.1374 33.6479 16.2084 34.2012C19.2794 34.7545 22.4562 34.4369 25.3372 33.2885C28.2182 32.1402 30.674 30.2126 32.3939 27.7496C34.1138 25.2866 35.0207 22.3989 34.9999 19.4514C34.9719 15.4991 33.2793 11.7204 30.2945 8.94662C27.3097 6.17286 23.2771 4.63125 19.0839 4.66093ZM28.7487 12.4772L21.5715 30.6145C21.5267 30.7524 21.4472 30.8781 21.3398 30.9809C21.2324 31.0837 21.1003 31.1605 20.9547 31.2048C20.809 31.2491 20.6542 31.2597 20.5034 31.2355C20.3526 31.2112 20.2103 31.1531 20.0886 31.0658L16.5424 26.4617L15.0619 27.8129C14.9636 27.9352 14.8366 28.0344 14.691 28.1029C14.5453 28.1713 14.3848 28.2071 14.2221 28.2074L14.4986 24.201L14.6824 24.0466L14.6767 24.0393L24.5475 14.9343C24.8148 14.7042 24.5441 14.4527 24.2497 14.6576L12.9905 23.2529L8.11126 19.9355C8.01698 19.822 7.95322 19.6887 7.9254 19.5469C7.89757 19.4051 7.90651 19.259 7.95146 19.1211C7.9964 18.9833 8.07602 18.8576 8.18354 18.7549C8.29105 18.6522 8.42327 18.5755 8.56895 18.5313L27.7157 11.5172C27.8589 11.4515 28.0201 11.4292 28.1772 11.4535C28.3342 11.4777 28.4794 11.5473 28.5927 11.6525C28.706 11.7578 28.7819 11.8937 28.8098 12.0414C28.8378 12.1891 28.8164 12.3414 28.7487 12.4772Z" fill="white"/>
</g>
<defs>
<clipPath id="clip0_9_5">
<rect width="32" height="32" fill="white" transform="translate(3 3.4043)"/>
</clipPath>
</defs>
</svg>
