<svg width="82" height="120" viewBox="0 0 82 120" fill="none" xmlns="http://www.w3.org/2000/svg">
<path d="M74.4918 0.837728C74.4918 0.837728 59.264 -2.32486 59.264 15.9482C59.264 22.8594 60.4352 28.3648 60.4352 28.3648C60.4352 28.3648 61.7572 34.5732 61.7572 36.6814C61.7572 38.7896 61.7572 42.3679 56.7205 42.3679H12.7507C6.15524 42.3679 0.808594 47.7146 0.808594 54.31V86.653C0.808594 92.4118 4.88503 97.2179 10.3097 98.3449V120H68.5306V98.3967C73.7831 97.5118 77.2949 93.632 78.0317 86.6535L79.2167 61.0477C79.2176 61.0388 81.9886 41.1196 81.9886 38.4386C81.9886 35.7577 76.1318 12.9029 74.4918 0.837728Z" fill="#EBBDA7"/>
</svg>
