<svg width="30" height="31" viewBox="0 0 30 31" fill="none" xmlns="http://www.w3.org/2000/svg">
<path d="M10 4.1543C6.55375 4.1543 3.75 6.95805 3.75 10.4043V20.4043C3.75 23.8505 6.55375 26.6543 10 26.6543H20C23.4463 26.6543 26.25 23.8505 26.25 20.4043V10.4043C26.25 6.95805 23.4463 4.1543 20 4.1543H10ZM10 6.6543H20C22.0675 6.6543 23.75 8.3368 23.75 10.4043V20.4043C23.75 22.4718 22.0675 24.1543 20 24.1543H10C7.9325 24.1543 6.25 22.4718 6.25 20.4043V10.4043C6.25 8.3368 7.9325 6.6543 10 6.6543ZM21.25 7.9043C20.9185 7.9043 20.6005 8.03599 20.3661 8.27041C20.1317 8.50483 20 8.82278 20 9.1543C20 9.48582 20.1317 9.80376 20.3661 10.0382C20.6005 10.2726 20.9185 10.4043 21.25 10.4043C21.5815 10.4043 21.8995 10.2726 22.1339 10.0382C22.3683 9.80376 22.5 9.48582 22.5 9.1543C22.5 8.82278 22.3683 8.50483 22.1339 8.27041C21.8995 8.03599 21.5815 7.9043 21.25 7.9043ZM15 9.1543C11.5538 9.1543 8.75 11.958 8.75 15.4043C8.75 18.8505 11.5538 21.6543 15 21.6543C18.4462 21.6543 21.25 18.8505 21.25 15.4043C21.25 11.958 18.4462 9.1543 15 9.1543ZM15 11.6543C17.0675 11.6543 18.75 13.3368 18.75 15.4043C18.75 17.4718 17.0675 19.1543 15 19.1543C12.9325 19.1543 11.25 17.4718 11.25 15.4043C11.25 13.3368 12.9325 11.6543 15 11.6543Z" fill="#F5F7F8"/>
</svg>
