<svg width="118" height="201" viewBox="0 0 118 201" fill="none" xmlns="http://www.w3.org/2000/svg">
<path d="M17.8955 5.0246C28.2852 10.3138 36.2514 19.4216 41.9807 29.449C47.7089 39.4765 51.4008 50.4806 55.0578 61.4043L58.2578 117.744C46.1688 97.5307 36.4663 73.7677 33.8443 50.4624C36.5263 50.2276 39.2071 49.9929 41.8891 49.7581C36.4957 48.9487 31.9673 45.1077 29.0868 40.5528C26.2064 35.9979 24.7231 30.7461 23.2758 25.5748C26.5478 26.0529 29.8187 26.5311 33.0907 27.0092C25.4058 21.9676 19.8336 13.9061 17.8955 5.0246Z" fill="#455A64"/>
<g opacity="0.3">
<path d="M17.8955 5.0246C28.2852 10.3138 36.2514 19.4216 41.9807 29.449C47.7089 39.4765 51.4008 50.4806 55.0578 61.4043L58.2578 117.744C46.1688 97.5307 36.4663 73.7677 33.8443 50.4624C36.5263 50.2276 39.2071 49.9929 41.8891 49.7581C36.4957 48.9487 31.9673 45.1077 29.0868 40.5528C26.2064 35.9979 24.7231 30.7461 23.2758 25.5748C26.5478 26.0529 29.8187 26.5311 33.0907 27.0092C25.4058 21.9676 19.8336 13.9061 17.8955 5.0246Z" fill="black"/>
</g>
<path d="M60.0478 130.946C60.0478 130.946 86.2871 100.077 85.9839 70.6096H75.3848C75.3848 70.6096 86.8979 63.1677 85.9872 59.0009C85.0765 54.834 84.7733 39.0574 84.7733 39.0574L75.0827 41.4383C75.0827 41.4383 82.3509 37.8664 83.2595 32.2105C84.168 26.5546 81.1392 0.361389 81.1392 0.361389C81.1392 0.361389 69.3283 12.565 65.6942 25.0667C62.0601 37.5684 52.5211 52.154 55.322 90.2539C58.1228 128.355 60.0478 130.946 60.0478 130.946Z" fill="#455A64"/>
<path d="M46.7459 133.86C46.7459 133.86 18.3177 115.247 12.0028 91.4889L20.5241 89.2098C20.5241 89.2098 9.61202 85.7033 9.41679 82.1571C9.22156 78.6109 5.9539 65.8627 5.9539 65.8627L14.2757 65.6933C14.2757 65.6933 7.63679 64.3844 5.64742 60.0332C3.65804 55.6819 0.261719 33.9707 0.261719 33.9707C0.261719 33.9707 12.4739 41.2421 18.1781 50.5117C23.8823 59.7812 34.7988 69.4561 41.0276 100.69C47.2553 131.925 46.7459 133.86 46.7459 133.86Z" fill="#455A64"/>
<path d="M73.971 27.275C73.9808 27.2771 73.9666 27.3897 73.9295 27.6063C73.8837 27.8528 73.8259 28.1701 73.7529 28.5668C73.5773 29.4458 73.3308 30.6797 73.0178 32.2491C72.6851 33.8453 72.2913 35.8006 71.8605 38.0754C71.4221 40.3491 70.9029 42.9348 70.3947 45.8045C69.3193 51.5333 68.1719 58.378 66.9787 65.9892C65.8226 73.6058 64.6567 81.9952 63.6075 90.8232C62.579 99.6554 61.7675 108.088 61.124 115.764C60.5187 123.443 60.0464 130.365 59.7639 136.184C59.5927 139.092 59.4967 141.725 59.3964 144.037C59.2884 146.348 59.2176 148.341 59.1707 149.97C59.1118 151.568 59.0648 152.824 59.031 153.72C59.0103 154.123 58.994 154.444 58.9809 154.695C58.9667 154.915 58.9536 155.027 58.9438 155.027C58.934 155.027 58.9263 154.915 58.922 154.694C58.9209 154.443 58.9187 154.122 58.9165 153.718C58.9241 152.822 58.9351 151.566 58.9493 149.965C58.9623 148.336 59.0005 146.342 59.079 144.028C59.1499 141.713 59.2164 139.078 59.3626 136.167C59.5938 130.341 60.0246 123.413 60.6016 115.726C61.2167 108.042 62.014 99.6007 63.0425 90.761C64.0928 81.9266 65.2751 73.5318 66.4606 65.9142C67.6833 58.3008 68.8721 51.4583 69.9988 45.7359C70.5332 42.8694 71.0785 40.288 71.5475 38.0186C72.0089 35.7481 72.4331 33.7981 72.7996 32.2084C73.1573 30.6475 73.4388 29.4211 73.6394 28.5464C73.7354 28.154 73.8118 27.841 73.8718 27.5977C73.9285 27.3811 73.9611 27.2729 73.971 27.275Z" fill="#263238"/>
<path d="M63.687 149.849C63.687 149.849 87.6991 123.07 95.1549 106.882L89.526 104.518C93.6062 105.179 97.7856 103.457 100.95 100.839C104.114 98.2222 106.437 94.7789 108.714 91.3871L101.3 90.1554C108.042 88.2954 113.983 83.7727 117.5 77.8209C108.751 79.2349 100.835 83.9592 94.3118 89.8627C89.0297 94.6438 84.5558 100.195 80.2608 105.864C78.1656 108.631 76.3311 111.578 74.8042 114.683C70.7687 122.884 63.6739 140.015 63.687 149.849Z" fill="#455A64"/>
<path d="M11.6243 49.5566C11.633 49.5523 11.6865 49.6359 11.7836 49.8053C11.8926 50.0036 12.0301 50.2523 12.2002 50.56C12.5743 51.2664 13.0935 52.2462 13.7511 53.4876C15.0959 56.0314 16.9719 59.7481 19.223 64.3727C23.7318 73.6176 29.6105 86.5609 35.3583 101.152C41.0952 115.754 45.6051 129.219 48.5968 139.04C50.0954 143.949 51.2515 147.939 51.9986 150.71C52.3618 152.064 52.6487 153.131 52.8548 153.902C52.9399 154.242 53.0086 154.516 53.0642 154.736C53.1079 154.924 53.1264 155.022 53.1166 155.025C53.1067 155.027 53.0707 154.935 53.0086 154.751C52.9399 154.535 52.8526 154.266 52.7457 153.932C52.5145 153.169 52.1939 152.112 51.787 150.769C50.9756 148.018 49.7616 144.047 48.2151 139.155C45.1274 129.37 40.5619 115.94 34.8315 101.353C29.0903 86.7764 23.2759 73.8223 18.8631 64.541C16.6599 59.8992 14.8396 56.1579 13.557 53.5851C12.9397 52.3234 12.4532 51.3286 12.102 50.6114C11.9526 50.293 11.8326 50.0368 11.7367 49.831C11.6516 49.6541 11.6156 49.5619 11.6243 49.5566Z" fill="#263238"/>
<path d="M61.651 161.324C61.6314 161.322 61.6358 161.149 61.6598 160.819C61.6968 160.426 61.7416 159.952 61.7961 159.384C61.9161 158.137 62.1734 156.341 62.5672 154.134C63.3481 149.722 64.8423 143.678 67.2963 137.27C69.7645 130.863 72.7071 125.358 75.0881 121.539C76.2758 119.627 77.2912 118.112 78.0394 117.099C78.3819 116.637 78.6655 116.252 78.9021 115.933C79.105 115.67 79.2184 115.537 79.2348 115.548C79.2511 115.559 79.1682 115.713 78.997 115.996C78.7854 116.331 78.5302 116.735 78.2237 117.219C77.5333 118.267 76.5735 119.81 75.4349 121.741C73.151 125.597 70.2837 131.098 67.8286 137.468C65.3888 143.84 63.8422 149.831 62.9631 154.208C62.5203 156.396 62.2029 158.178 62.0164 159.414C61.9204 159.977 61.8408 160.445 61.7743 160.834C61.7121 161.157 61.6696 161.326 61.651 161.324Z" fill="#263238"/>
<path d="M82.5196 155.025H29.9658V165.562H82.5196V155.025Z" fill="#FF725E"/>
<path d="M77.5124 165.562L71.8279 201.003H40.0709L34.7725 165.562H77.5124Z" fill="#FF725E"/>
<path d="M33.1899 165.562C33.1899 165.408 43.1313 165.283 55.3926 165.283C67.6582 165.283 77.5975 165.409 77.5975 165.562C77.5975 165.715 67.6582 165.841 55.3926 165.841C43.1313 165.842 33.1899 165.716 33.1899 165.562Z" fill="#263238"/>
</svg>
