<svg width="61" height="60" viewBox="0 0 61 60" fill="none" xmlns="http://www.w3.org/2000/svg">
<path d="M59.6453 54.0165L56.6415 45.2754C59.3518 40.7569 60.8657 35.4687 60.7534 29.8397C60.4327 13.6503 46.8201 0.782022 30.3488 1.09719C13.8776 1.41236 0.785208 14.792 1.10586 30.9813C1.42652 47.1707 15.0391 60.039 31.5115 59.7238C38.3892 59.5919 44.6726 57.1767 49.6417 53.2361L49.6318 53.25L59.6453 54.0165Z" fill="white"/>
<path d="M59.6454 54.0165C59.6454 54.0165 59.4458 54.0132 59.0248 53.9897C58.5722 53.9618 57.9428 53.9232 57.1281 53.8728C55.3983 53.7581 52.8843 53.593 49.621 53.3765C49.5502 53.3722 49.4956 53.3111 49.5011 53.2414C49.5022 53.2167 49.5131 53.1921 49.5262 53.1739C49.5262 53.1739 49.5327 53.1653 49.536 53.161L49.7236 53.3357C46.7144 55.7435 42.2296 58.3688 36.3171 59.4461C33.3799 60.0089 30.1123 60.0947 26.7116 59.6294C23.3142 59.1696 19.7739 58.0997 16.4168 56.2837C13.0619 54.4753 9.89897 51.9228 7.31191 48.7036C4.72376 45.4919 2.72021 41.607 1.66227 37.3372C-0.50816 28.8362 1.49975 18.6994 7.92268 11.338C11.1336 7.61708 15.1887 4.69695 19.6364 2.98818C24.0634 1.23439 28.7915 0.574036 33.2971 0.907428C37.8102 1.25047 42.0715 2.63442 45.7307 4.68194C49.3975 6.73161 52.4633 9.45449 54.8006 12.4711C59.4981 18.5408 61.2115 25.6042 60.9345 31.4616C60.7022 37.3801 58.7227 42.1108 56.7519 45.3408L56.7628 45.2379C57.7073 48.0894 58.4358 50.2902 58.9386 51.8081C59.171 52.521 59.3509 53.072 59.4807 53.4719C59.5974 53.8385 59.6454 54.0165 59.6454 54.0165C59.6454 54.0165 59.5625 53.8117 59.424 53.4322C59.2789 53.0291 59.0771 52.4728 58.8176 51.7524C58.2875 50.2655 57.5186 48.1087 56.5228 45.315C56.5108 45.2807 56.5163 45.2411 56.5337 45.2121C58.4445 41.9843 60.3543 37.2879 60.5408 31.4466C60.7731 25.6621 59.0444 18.7209 54.4014 12.7702C52.0914 9.81253 49.0692 7.14754 45.4623 5.14505C41.8631 3.14469 37.6804 1.79612 33.2523 1.46809C28.8297 1.1497 24.1954 1.80469 19.8578 3.5274C15.4984 5.20508 11.5273 8.07053 8.37968 11.7175C2.08544 18.9331 0.108052 28.8609 2.21958 37.2053C3.25026 41.3947 5.20587 45.21 7.73948 48.3713C10.2709 51.5401 13.3706 54.0583 16.6611 55.8496C19.9549 57.6484 23.432 58.7161 26.7749 59.1867C30.1211 59.6616 33.3439 59.5973 36.2462 59.0613C42.0878 58.0397 46.5454 55.4862 49.56 53.1363C49.6156 53.0913 49.6974 53.0999 49.7432 53.1546C49.7814 53.2007 49.7803 53.2661 49.7476 53.3122C49.7443 53.3164 49.7377 53.325 49.7377 53.325L49.6429 53.1224C52.8593 53.4033 55.3383 53.6198 57.0452 53.7688C57.8741 53.8449 58.5132 53.9028 58.9746 53.9457C59.4087 53.9854 59.6454 54.0165 59.6454 54.0165Z" fill="#263238"/>
<path d="M24.345 23.4098H28.8823C28.8823 23.4098 28.8822 19.6653 32.8413 19.5988C34.8972 19.5635 35.9639 20.8874 36.3969 21.9015C36.8997 23.0796 36.7481 24.4218 36.0741 25.5131C35.3041 26.7598 33.6179 27.894 30.5607 27.3644V37.4187H35.0467V31.5291C35.0467 31.5291 41.3387 29.9308 41.3387 23.115C41.3387 16.594 35.3892 15.0793 32.8425 15.0793C30.8945 15.0804 24.26 15.5435 24.345 23.4098Z" fill="#263238"/>
<path d="M35.1003 39.4909H30.5479V43.6706H35.1003V39.4909Z" fill="#263238"/>
</svg>
